  0
SECTION
  2
HEADER
  9
$ACADVER
  1
AC1014
  9
$HANDSEED
  5
FFFF
  9
$MEASUREMENT
 70
     1
  0
ENDSEC
  0
SECTION
  2
TABLES
  0
TABLE
  2
VPORT
  5
8
330
0
100
AcDbSymbolTable
 70
     4
  0
VPORT
  5
2E
330
8
100
AcDbSymbolTableRecord
100
AcDbViewportTableRecord
  2
*ACTIVE
 70
     0
 10
0.0
 20
0.0
 11
1.0
 21
1.0
 12
210.0
 22
148.5
 13
0.0
 23
0.0
 14
10.0
 24
10.0
 15
10.0
 25
10.0
 16
0.0
 26
0.0
 36
1.0
 17
0.0
 27
0.0
 37
0.0
 40
341.0
 41
1.24
 42
50.0
 43
0.0
 44
0.0
 50
0.0
 51
0.0
 71
     0
 72
   100
 73
     1
 74
     3
 75
     0
 76
     0
 77
     0
 78
     0
  0
ENDTAB
  0
TABLE
  2
LTYPE
  5
5
330
0
100
AcDbSymbolTable
 70
     1
  0
LTYPE
  5
14
330
5
100
AcDbSymbolTableRecord
100
AcDbLinetypeTableRecord
  2
BYBLOCK
 70
     0
  3

 72
    65
 73
     0
 40
0.0
  0
LTYPE
  5
15
330
5
100
AcDbSymbolTableRecord
100
AcDbLinetypeTableRecord
  2
BYLAYER
 70
     0
  3

 72
    65
 73
     0
 40
0.0
  0
LTYPE
  5
16
330
5
100
AcDbSymbolTableRecord
100
AcDbLinetypeTableRecord
  2
CONTINUOUS
 70
     0
  3
Solid line
 72
    65
 73
     0
 40
0.0
  0
ENDTAB
  0
TABLE
  2
LAYER
  5
2
100
AcDbSymbolTable
 70
2
  0
LAYER
  5
50
100
AcDbSymbolTableRecord
100
AcDbLayerTableRecord
  2
0
 70
0
  6
CONTINUOUS
  0
LAYER
  5
51
100
AcDbSymbolTableRecord
100
AcDbLayerTableRecord
  2
Vrstva_1
 70
0
  6
CONTINUOUS
  0
ENDTAB
  0
TABLE
  2
STYLE
  5
3
330
0
100
AcDbSymbolTable
 70
     1
  0
STYLE
  5
11
330
3
100
AcDbSymbolTableRecord
100
AcDbTextStyleTableRecord
  2
STANDARD
 70
     0
 40
0.0
 41
1.0
 50
0.0
 71
     0
 42
2.5
  3
txt
  4

  0
ENDTAB
  0
TABLE
  2
VIEW
  5
6
330
0
100
AcDbSymbolTable
 70
     0
  0
ENDTAB
  0
TABLE
  2
UCS
  5
7
330
0
100
AcDbSymbolTable
 70
     0
  0
ENDTAB
  0
TABLE
  2
APPID
  5
9
330
0
100
AcDbSymbolTable
 70
     2
  0
APPID
  5
12
330
9
100
AcDbSymbolTableRecord
100
AcDbRegAppTableRecord
  2
ACAD
 70
     0
  0
ENDTAB
  0
TABLE
  2
DIMSTYLE
  5
A
330
0
100
AcDbSymbolTable
 70
     1
  0
DIMSTYLE
105
27
330
A
100
AcDbSymbolTableRecord
100
AcDbDimStyleTableRecord
  2
ISO-25
 70
     0
  3

  4

  5

  6

  7

 40
1.0
 41
2.5
 42
0.625
 43
3.75
 44
1.25
 45
0.0
 46
0.0
 47
0.0
 48
0.0
140
2.5
141
2.5
142
0.0
143
0.03937007874016
144
1.0
145
0.0
146
1.0
147
0.625
 71
     0
 72
     0
 73
     0
 74
     0
 75
     0
 76
     0
 77
     1
 78
     8
170
     0
171
     3
172
     1
173
     0
174
     0
175
     0
176
     0
177
     0
178
     0
270
     2
271
     2
272
     2
273
     2
274
     3
340
11
275
     0
280
     0
281
     0
282
     0
283
     0
284
     8
285
     0
286
     0
287
     3
288
     0
  0
ENDTAB
  0
TABLE
  2
BLOCK_RECORD
  5
1
330
0
100
AcDbSymbolTable
 70
     1
  0
BLOCK_RECORD
  5
1F
330
1
100
AcDbSymbolTableRecord
100
AcDbBlockTableRecord
  2
*MODEL_SPACE
  0
BLOCK_RECORD
  5
1B
330
1
100
AcDbSymbolTableRecord
100
AcDbBlockTableRecord
  2
*PAPER_SPACE
  0
ENDTAB
  0
ENDSEC
  0
SECTION
  2
BLOCKS
  0
BLOCK
  5
20
330
1F
100
AcDbEntity
  8
0
100
AcDbBlockBegin
  2
*MODEL_SPACE
 70
     0
 10
0.0
 20
0.0
 30
0.0
  3
*MODEL_SPACE
  1

  0
ENDBLK
  5
21
330
1F
100
AcDbEntity
  8
0
100
AcDbBlockEnd
  0
BLOCK
  5
1C
330
1B
100
AcDbEntity
 67
     1
  8
0
100
AcDbBlockBegin
  2
*PAPER_SPACE
  1

  0
ENDBLK
  5
1D
330
1B
100
AcDbEntity
 67
     1
  8
0
100
AcDbBlockEnd
  0
ENDSEC
  0
SECTION
  2
ENTITIES
  0
SPLINE
  5
100
100
AcDbEntity
  8
Vrstva_1
 62
7
100
AcDbSpline
 70
0
 71
3
 72
151
 73
147
 74
145
 40
0.000000
 40
0.000000
 40
0.000000
 40
0.000000
 40
0.912659
 40
1.825317
 40
2.730101
 40
5.916591
 40
9.926667
 40
12.912927
 40
19.287183
 40
25.624174
 40
31.981761
 40
34.303412
 40
36.612229
 40
38.921066
 40
39.705269
 40
40.490471
 40
41.356106
 40
41.688124
 40
42.020142
 40
42.210293
 40
42.398244
 40
42.731059
 40
43.061603
 40
44.312950
 40
45.564206
 40
46.813964
 40
49.257966
 40
51.721078
 40
54.186030
 40
55.573588
 40
57.974526
 40
59.564751
 40
62.154285
 40
64.751936
 40
67.341449
 40
68.997331
 40
70.656866
 40
72.313438
 40
72.822655
 40
73.418631
 40
73.873314
 40
73.957770
 40
74.062279
 40
74.146740
 40
75.099214
 40
76.139956
 40
77.041474
 40
77.448542
 40
77.944253
 40
78.378546
 40
78.836135
 40
79.482051
 40
79.939978
 40
80.207648
 40
80.487928
 40
80.747983
 40
80.997722
 40
81.257875
 40
81.507614
 40
81.689182
 40
81.888452
 40
82.052159
 40
82.136620
 40
82.241126
 40
82.325585
 40
83.070085
 40
84.959617
 40
86.145857
 40
86.416262
 40
86.478560
 40
86.842510
 40
87.903792
 40
89.221259
 40
90.336337
 40
90.577915
 40
90.924149
 40
91.141301
 40
92.018545
 40
92.333138
 40
92.594340
 40
93.039403
 40
93.485482
 40
93.931661
 40
94.880324
 40
95.973599
 40
96.855267
 40
97.157158
 40
97.676817
 40
98.053553
 40
98.138014
 40
98.242522
 40
98.326981
 40
99.467569
 40
101.080237
 40
102.313752
 40
103.127595
 40
104.215140
 40
105.003367
 40
105.394791
 40
105.774236
 40
106.204545
 40
107.549044
 40
109.121181
 40
110.500040
 40
111.219660
 40
111.945949
 40
112.656362
 40
112.831260
 40
113.021131
 40
113.196029
 40
113.776906
 40
114.427088
 40
114.995175
 40
115.079636
 40
115.184142
 40
115.268601
 40
115.805435
 40
116.433909
 40
116.970740
 40
117.801894
 40
119.603000
 40
120.764887
 40
124.514440
 40
128.308615
 40
132.056018
 40
133.887043
 40
135.708329
 40
137.470242
 40
138.411949
 40
139.257122
 40
140.148633
 40
141.041834
 40
142.051096
 40
142.907995
 40
143.345084
 40
144.025951
 40
144.519789
 40
146.772006
 40
148.936187
 40
150.989134
 40
151.346103
 40
151.963506
 40
152.328249
 40
152.725081
 40
153.125245
 40
153.525409
 40
153.525409
 40
153.525409
 40
153.525409
 10
14.432554
 20
268.402162
 30
0.0
 10
14.482213
 20
268.102074
 30
0.0
 10
14.581530
 20
267.501897
 30
0.0
 10
14.693082
 20
266.597318
 30
0.0
 10
15.167604
 20
264.989730
 30
0.0
 10
16.578103
 20
262.658422
 30
0.0
 10
18.277324
 20
259.730823
 30
0.0
 10
20.647642
 20
255.953118
 30
0.0
 10
23.400658
 20
251.505045
 30
0.0
 10
26.717118
 20
246.081623
 30
0.0
 10
29.254988
 20
241.767817
 30
0.0
 10
31.105202
 20
238.605882
 30
0.0
 10
32.196205
 20
236.567054
 30
0.0
 10
33.003839
 20
234.953460
 30
0.0
 10
33.380330
 20
233.706990
 30
0.0
 10
33.406191
 20
232.891224
 30
0.0
 10
33.437244
 20
232.232088
 30
0.0
 10
33.370959
 20
231.720666
 30
0.0
 10
33.222489
 20
231.466861
 30
0.0
 10
33.408772
 20
231.173356
 30
0.0
 10
33.590371
 20
231.468674
 30
0.0
 10
33.436435
 20
231.719383
 30
0.0
 10
33.372882
 20
232.363787
 30
0.0
 10
33.494011
 20
233.301667
 30
0.0
 10
33.530523
 20
234.552736
 30
0.0
 10
33.696092
 20
236.194527
 30
0.0
 10
34.191312
 20
238.198662
 30
0.0
 10
35.121070
 20
240.474684
 30
0.0
 10
35.904310
 20
242.430546
 30
0.0
 10
36.852161
 20
244.288192
 30
0.0
 10
37.653738
 20
245.891421
 30
0.0
 10
38.649977
 20
247.846397
 30
0.0
 10
39.542898
 20
249.922686
 30
0.0
 10
40.631248
 20
252.275358
 30
0.0
 10
41.754273
 20
254.268392
 30
0.0
 10
42.924554
 20
255.853000
 30
0.0
 10
43.930487
 20
257.169740
 30
0.0
 10
44.722292
 20
258.169579
 30
0.0
 10
45.166437
 20
258.986726
 30
0.0
 10
45.438662
 20
259.403298
 30
0.0
 10
45.571848
 20
259.823524
 30
0.0
 10
45.794749
 20
259.875409
 30
0.0
 10
45.879106
 20
259.823163
 30
0.0
 10
46.266322
 20
259.925082
 30
0.0
 10
46.516962
 20
260.702342
 30
0.0
 10
47.028601
 20
261.464629
 30
0.0
 10
47.426005
 20
262.170884
 30
0.0
 10
47.918100
 20
262.525728
 30
0.0
 10
48.286012
 20
262.772427
 30
0.0
 10
48.669742
 20
263.041712
 30
0.0
 10
48.947781
 20
263.482525
 30
0.0
 10
49.199416
 20
263.929144
 30
0.0
 10
49.461807
 20
264.321813
 30
0.0
 10
49.468580
 20
264.668389
 30
0.0
 10
49.395973
 20
264.925266
 30
0.0
 10
49.413916
 20
265.206078
 30
0.0
 10
49.609653
 20
265.393735
 30
0.0
 10
49.811980
 20
265.531672
 30
0.0
 10
50.001469
 20
265.694911
 30
0.0
 10
49.996583
 20
265.924275
 30
0.0
 10
49.930067
 20
266.078596
 30
0.0
 10
49.938356
 20
266.271512
 30
0.0
 10
50.074142
 20
266.287471
 30
0.0
 10
50.152405
 20
266.237853
 30
0.0
 10
50.504182
 20
266.323476
 30
0.0
 10
48.756869
 20
266.911375
 30
0.0
 10
47.867506
 20
266.464072
 30
0.0
 10
47.047564
 20
266.678821
 30
0.0
 10
46.174959
 20
266.451891
 30
0.0
 10
46.342525
 20
266.685002
 30
0.0
 10
45.598415
 20
266.921447
 30
0.0
 10
44.908602
 20
267.001440
 30
0.0
 10
43.657144
 20
266.903872
 30
0.0
 10
42.785860
 20
266.771178
 30
0.0
 10
42.220985
 20
266.818056
 30
0.0
 10
41.946556
 20
266.832837
 30
0.0
 10
41.498483
 20
266.823947
 30
0.0
 10
40.741692
 20
265.851312
 30
0.0
 10
41.464130
 20
266.386327
 30
0.0
 10
41.444553
 20
265.875855
 30
0.0
 10
41.168322
 20
265.644860
 30
0.0
 10
40.909807
 20
265.268710
 30
0.0
 10
40.518985
 20
264.798790
 30
0.0
 10
39.978709
 20
264.174137
 30
0.0
 10
39.297721
 20
263.445191
 30
0.0
 10
39.089567
 20
262.704993
 30
0.0
 10
38.894404
 20
262.166119
 30
0.0
 10
38.686915
 20
261.846297
 30
0.0
 10
38.593315
 20
261.470660
 30
0.0
 10
38.394824
 20
261.427589
 30
0.0
 10
38.310919
 20
261.479476
 30
0.0
 10
37.858415
 20
261.360794
 30
0.0
 10
37.711605
 20
260.174011
 30
0.0
 10
37.233539
 20
259.049853
 30
0.0
 10
36.866593
 20
257.853432
 30
0.0
 10
36.799804
 20
256.808148
 30
0.0
 10
36.762297
 20
255.923625
 30
0.0
 10
36.713514
 20
255.140809
 30
0.0
 10
36.416357
 20
254.705749
 30
0.0
 10
36.198024
 20
254.369747
 30
0.0
 10
35.974070
 20
253.677809
 30
0.0
 10
36.019968
 20
252.543878
 30
0.0
 10
36.063123
 20
251.128559
 30
0.0
 10
35.957670
 20
249.874688
 30
0.0
 10
35.487993
 20
249.046315
 30
0.0
 10
35.123898
 20
248.434732
 30
0.0
 10
34.765865
 20
248.006628
 30
0.0
 10
34.712107
 20
247.641865
 30
0.0
 10
34.778283
 20
247.468195
 30
0.0
 10
34.728001
 20
247.149451
 30
0.0
 10
34.495199
 20
246.730340
 30
0.0
 10
34.263975
 20
246.211722
 30
0.0
 10
34.112167
 20
245.721238
 30
0.0
 10
33.851612
 20
245.658319
 30
0.0
 10
33.767832
 20
245.709952
 30
0.0
 10
33.514821
 20
245.652530
 30
0.0
 10
33.453928
 20
245.110735
 30
0.0
 10
33.389950
 20
244.660573
 30
0.0
 10
33.136602
 20
243.757241
 30
0.0
 10
32.245107
 20
245.184889
 30
0.0
 10
32.148692
 20
246.174652
 30
0.0
 10
31.578469
 20
248.427364
 30
0.0
 10
31.053823
 20
251.228198
 30
0.0
 10
30.333879
 20
254.945891
 30
0.0
 10
29.360562
 20
257.916042
 30
0.0
 10
28.506372
 20
260.231159
 30
0.0
 10
27.958023
 20
261.948337
 30
0.0
 10
27.436315
 20
263.372272
 30
0.0
 10
26.779102
 20
264.368277
 30
0.0
 10
26.131537
 20
264.987587
 30
0.0
 10
25.628850
 20
265.713203
 30
0.0
 10
25.274865
 20
266.589050
 30
0.0
 10
24.831851
 20
267.348467
 30
0.0
 10
24.503187
 20
268.174180
 30
0.0
 10
23.797649
 20
268.221658
 30
0.0
 10
23.274852
 20
268.173910
 30
0.0
 10
22.130784
 20
268.093148
 30
0.0
 10
20.496788
 20
267.994310
 30
0.0
 10
18.387973
 20
267.495031
 30
0.0
 10
16.872745
 20
267.366529
 30
0.0
 10
15.856943
 20
267.306061
 30
0.0
 10
15.434695
 20
267.308756
 30
0.0
 10
14.910472
 20
267.261540
 30
0.0
 10
14.764263
 20
267.690244
 30
0.0
 10
14.596489
 20
268.033299
 30
0.0
 10
14.487199
 20
268.279208
 30
0.0
 10
14.432554
 20
268.402162
 30
0.0
 11
14.432554
 21
268.402162
 31
0.0
 11
14.575346
 21
267.500743
 31
0.0
 11
14.718139
 21
266.599325
 31
0.0
 11
14.967093
 21
265.729465
 31
0.0
 11
16.424503
 21
262.895796
 31
0.0
 11
18.472090
 21
259.447885
 31
0.0
 11
20.045214
 21
256.909572
 31
0.0
 11
23.402530
 21
251.491126
 31
0.0
 11
26.697998
 21
246.078423
 31
0.0
 11
29.934188
 21
240.606130
 31
0.0
 11
31.094368
 21
238.595149
 31
0.0
 11
32.187301
 21
236.561401
 31
0.0
 11
33.141422
 21
234.458930
 31
0.0
 11
33.346355
 21
233.701977
 31
0.0
 11
33.407219
 21
232.919138
 31
0.0
 11
33.408691
 21
232.053505
 31
0.0
 11
33.349298
 21
231.726842
 31
0.0
 11
33.289905
 21
231.400179
 31
0.0
 11
33.408691
 21
231.251696
 31
0.0
 11
33.523773
 21
231.400295
 31
0.0
 11
33.460675
 21
231.727074
 31
0.0
 11
33.408691
 21
232.053505
 31
0.0
 11
33.473352
 21
233.303179
 31
0.0
 11
33.545406
 21
234.552360
 31
0.0
 11
33.675960
 21
235.795280
 31
0.0
 11
34.245385
 21
238.172021
 31
0.0
 11
35.118249
 21
240.475286
 31
0.0
 11
36.081385
 21
242.744286
 31
0.0
 11
36.697267
 21
243.987671
 31
0.0
 11
37.777966
 21
246.131637
 31
0.0
 11
38.486812
 21
247.555138
 31
0.0
 11
39.552430
 21
249.915253
 31
0.0
 11
40.663818
 21
252.263148
 31
0.0
 11
41.961315
 21
254.504147
 31
0.0
 11
42.927248
 21
255.849107
 31
0.0
 11
43.934965
 21
257.167653
 31
0.0
 11
44.901281
 21
258.513188
 31
0.0
 11
45.155698
 21
258.954293
 31
0.0
 11
45.443988
 21
259.475902
 31
0.0
 11
45.703090
 21
259.849537
 31
0.0
 11
45.786378
 21
259.863537
 31
0.0
 11
45.887066
 21
259.835537
 31
0.0
 11
45.970359
 21
259.849537
 31
0.0
 11
46.531854
 21
260.618906
 31
0.0
 11
47.048975
 21
261.522084
 31
0.0
 11
47.573975
 21
262.254962
 31
0.0
 11
47.894370
 21
262.506063
 31
0.0
 11
48.303276
 21
262.786285
 31
0.0
 11
48.643053
 21
263.056771
 31
0.0
 11
48.910003
 21
263.428423
 31
0.0
 11
49.241110
 21
263.983017
 31
0.0
 11
49.444862
 21
264.393118
 31
0.0
 11
49.455865
 21
264.660562
 31
0.0
 11
49.410522
 21
264.937150
 31
0.0
 11
49.444862
 21
265.194927
 31
0.0
 11
49.608489
 21
265.383595
 31
0.0
 11
49.815775
 21
265.540797
 31
0.0
 11
49.979402
 21
265.729465
 31
0.0
 11
49.986817
 21
265.910882
 31
0.0
 11
49.941112
 21
266.104839
 31
0.0
 11
49.979402
 21
266.264005
 31
0.0
 11
50.062695
 21
266.278005
 31
0.0
 11
50.163380
 21
266.250005
 31
0.0
 11
50.246671
 21
266.264005
 31
0.0
 11
49.579106
 21
266.593605
 31
0.0
 11
47.689574
 21
266.592136
 31
0.0
 11
46.504896
 21
266.531274
 31
0.0
 11
46.234522
 21
266.527173
 31
0.0
 11
46.263224
 21
266.582465
 31
0.0
 11
45.970359
 21
266.798543
 31
0.0
 11
44.922522
 21
266.966935
 31
0.0
 11
43.607748
 21
266.882739
 31
0.0
 11
42.495853
 21
266.798543
 31
0.0
 11
42.254787
 21
266.814265
 31
0.0
 11
41.908910
 21
266.829987
 31
0.0
 11
41.694047
 21
266.798543
 31
0.0
 11
41.107325
 21
266.146381
 31
0.0
 11
41.401922
 21
266.256750
 31
0.0
 11
41.426775
 21
265.996734
 31
0.0
 11
41.178880
 21
265.627100
 31
0.0
 11
40.905592
 21
265.274538
 31
0.0
 11
40.624969
 21
264.927656
 31
0.0
 11
40.003154
 21
264.211202
 31
0.0
 11
39.334072
 21
263.346575
 31
0.0
 11
39.021350
 21
262.522231
 31
0.0
 11
38.912860
 21
262.240508
 31
0.0
 11
38.685583
 21
261.773184
 31
0.0
 11
38.486812
 21
261.453153
 31
0.0
 11
38.403519
 21
261.439153
 31
0.0
 11
38.302832
 21
261.467153
 31
0.0
 11
38.219541
 21
261.453153
 31
0.0
 11
37.703813
 21
260.435821
 31
0.0
 11
37.206034
 21
258.901900
 31
0.0
 11
36.883194
 21
257.711381
 31
0.0
 11
36.808199
 21
256.901001
 31
0.0
 11
36.753349
 21
255.814840
 31
0.0
 11
36.615925
 21
255.038685
 31
0.0
 11
36.415829
 21
254.702271
 31
0.0
 11
36.221104
 21
254.376602
 31
0.0
 11
36.081385
 21
253.969607
 31
0.0
 11
36.014573
 21
252.626769
 31
0.0
 11
36.032588
 21
251.054735
 31
0.0
 11
35.814116
 21
249.693294
 31
0.0
 11
35.488179
 21
249.051720
 31
0.0
 11
35.101644
 21
248.436832
 31
0.0
 11
34.745038
 21
247.822407
 31
0.0
 11
34.727331
 21
247.648408
 31
0.0
 11
34.762745
 21
247.461869
 31
0.0
 11
34.745038
 21
247.287869
 31
0.0
 11
34.516833
 21
246.753696
 31
0.0
 11
34.257584
 21
246.157436
 31
0.0
 11
33.943229
 21
245.684251
 31
0.0
 11
33.859936
 21
245.670251
 31
0.0
 11
33.759251
 21
245.698251
 31
0.0
 11
33.675960
 21
245.684251
 31
0.0
 11
33.461147
 21
245.192270
 31
0.0
 11
33.356233
 21
244.572615
 31
0.0
 11
33.141422
 21
244.080635
 31
0.0
 11
32.585122
 21
244.698168
 31
0.0
 11
32.067265
 21
246.423222
 31
0.0
 11
31.805073
 21
247.555138
 31
0.0
 11
31.049996
 21
251.227876
 31
0.0
 11
30.254380
 21
254.937696
 31
0.0
 11
29.132379
 21
258.513188
 31
0.0
 11
28.518242
 21
260.238149
 31
0.0
 11
27.939033
 21
261.964879
 31
0.0
 11
27.261492
 21
263.591309
 31
0.0
 11
26.733144
 21
264.370836
 31
0.0
 11
26.163565
 21
264.995253
 31
0.0
 11
25.657874
 21
265.729465
 31
0.0
 11
25.275372
 21
266.536622
 31
0.0
 11
24.817134
 21
267.435859
 31
0.0
 11
24.321527
 21
268.134893
 31
0.0
 11
23.890364
 21
268.206627
 31
0.0
 11
23.210443
 21
268.170760
 31
0.0
 11
22.717909
 21
268.134893
 31
0.0
 11
20.475305
 21
267.927016
 31
0.0
 11
18.345837
 21
267.540960
 31
0.0
 11
16.303441
 21
267.333083
 31
0.0
 11
15.946975
 21
267.314139
 31
0.0
 11
15.329863
 21
267.295194
 31
0.0
 11
14.967093
 21
267.333083
 31
0.0
 11
14.761859
 21
267.672721
 31
0.0
 11
14.597206
 21
268.037441
 31
0.0
 11
14.432554
 21
268.402162
 31
0.0
  0
SPLINE
  5
101
100
AcDbEntity
  8
Vrstva_1
 62
7
100
AcDbSpline
 70
0
 71
3
 72
28
 73
24
 74
22
 40
0.000000
 40
0.000000
 40
0.000000
 40
0.000000
 40
4.717041
 40
9.438740
 40
14.012398
 40
14.857435
 40
15.702898
 40
16.548076
 40
18.012271
 40
19.566958
 40
21.033948
 40
22.411932
 40
23.753640
 40
25.123115
 40
27.093205
 40
29.060709
 40
31.039377
 40
32.031978
 40
33.110751
 40
34.044779
 40
34.869219
 40
35.834727
 40
36.720146
 40
36.720146
 40
36.720146
 40
36.720146
 10
40.357697
 20
230.984427
 30
0.0
 10
40.607565
 20
232.564348
 30
0.0
 10
41.107548
 20
235.725750
 30
0.0
 10
44.024696
 20
239.488696
 30
0.0
 10
45.850239
 20
242.361939
 30
0.0
 10
46.517340
 20
244.344023
 30
0.0
 10
46.762875
 20
245.152619
 30
0.0
 10
47.114881
 20
246.143889
 30
0.0
 10
47.466367
 20
247.384616
 30
0.0
 10
47.802864
 20
248.839812
 30
0.0
 10
48.306670
 20
250.231384
 30
0.0
 10
49.112203
 20
251.380120
 30
0.0
 10
49.954173
 20
252.454797
 30
0.0
 10
50.629858
 20
253.874872
 30
0.0
 10
51.119675
 20
255.576111
 30
0.0
 10
51.767898
 20
257.438958
 30
0.0
 10
52.270972
 20
259.006232
 30
0.0
 10
52.724743
 20
260.278707
 30
0.0
 10
53.134363
 20
261.193025
 30
0.0
 10
53.661253
 20
261.994723
 30
0.0
 10
54.384371
 20
262.555798
 30
0.0
 10
55.101488
 20
263.082865
 30
0.0
 10
55.614110
 20
263.426788
 30
0.0
 10
55.859330
 20
263.591309
 30
0.0
 11
40.357697
 21
230.984427
 31
0.0
 11
41.473191
 21
235.567673
 31
0.0
 11
43.987983
 21
239.563954
 31
0.0
 11
46.237628
 21
243.546095
 31
0.0
 11
46.513213
 21
244.344932
 31
0.0
 11
46.769137
 21
245.150730
 31
0.0
 11
47.039437
 21
245.951520
 31
0.0
 11
47.446808
 21
247.357904
 31
0.0
 11
47.841037
 21
248.861778
 31
0.0
 11
48.375784
 21
250.227832
 31
0.0
 11
49.128607
 21
251.381997
 31
0.0
 11
49.907578
 21
252.474418
 31
0.0
 11
50.513940
 21
253.702338
 31
0.0
 11
51.136937
 21
255.571330
 31
0.0
 11
51.759117
 21
257.437868
 31
0.0
 11
52.384827
 21
259.314997
 31
0.0
 11
52.726624
 21
260.246894
 31
0.0
 11
53.182659
 21
261.224536
 31
0.0
 11
53.721174
 21
261.987693
 31
0.0
 11
54.347902
 21
262.523336
 31
0.0
 11
55.127443
 21
263.093004
 31
0.0
 11
55.859330
 21
263.591309
 31
0.0
  0
LWPOLYLINE
  5
102
100
AcDbEntity
  8
Vrstva_1
 62
7
100
AcDbPolyline
 90
1
 70
1
 10
14.432554
 20
268.402162
 30
0.0
  0
SPLINE
  5
103
100
AcDbEntity
  8
Vrstva_1
 62
7
100
AcDbSpline
 70
0
 71
3
 72
106
 73
102
 74
100
 40
0.000000
 40
0.000000
 40
0.000000
 40
0.000000
 40
0.241939
 40
0.526025
 40
0.720906
 40
1.559544
 40
2.606286
 40
3.316041
 40
3.685633
 40
4.098356
 40
4.456718
 40
4.947969
 40
5.401024
 40
5.897350
 40
6.569767
 40
7.395490
 40
8.044478
 40
9.323869
 40
10.594902
 40
11.871514
 40
12.434170
 40
13.002723
 40
13.564239
 40
14.619084
 40
14.840926
 40
16.603331
 40
17.001596
 40
17.406901
 40
17.801887
 40
20.430036
 40
20.916655
 40
22.955116
 40
24.444200
 40
25.947645
 40
27.437640
 40
28.128437
 40
28.885804
 40
29.594844
 40
29.950689
 40
30.312622
 40
30.666532
 40
32.337085
 40
34.668884
 40
36.178622
 40
37.496212
 40
38.975476
 40
40.317670
 40
41.534776
 40
42.734947
 40
43.907860
 40
44.664040
 40
45.572950
 40
46.385183
 40
47.392019
 40
48.903185
 40
49.907584
 40
49.996620
 40
50.107099
 40
50.183175
 40
51.127119
 40
51.335025
 40
51.924504
 40
52.180244
 40
52.441721
 40
52.686117
 40
53.833445
 40
55.017278
 40
56.184559
 40
56.843652
 40
57.750786
 40
58.333733
 40
60.513403
 40
63.330172
 40
64.776678
 40
66.329174
 40
68.252849
 40
69.601096
 40
69.978984
 40
70.465779
 40
70.797612
 40
70.997121
 40
71.206030
 40
71.399863
 40
71.677502
 40
71.964504
 40
72.248192
 40
72.496722
 40
72.754270
 40
73.006990
 40
74.839396
 40
76.553877
 40
78.374010
 40
78.851935
 40
79.219744
 40
79.623483
 40
80.791962
 40
82.664825
 40
83.869044
 40
84.321132
 40
84.777793
 40
85.234455
 40
85.234455
 40
85.234455
 40
85.234455
 10
55.859330
 20
263.591309
 30
0.0
 10
55.953962
 20
263.595541
 30
0.0
 10
56.159711
 20
263.604744
 30
0.0
 10
56.125447
 20
263.905618
 30
0.0
 10
56.089445
 20
264.362708
 30
0.0
 10
57.140133
 20
264.318238
 30
0.0
 10
57.841708
 20
264.088250
 30
0.0
 10
58.476640
 20
263.694582
 30
0.0
 10
58.774532
 20
263.289511
 30
0.0
 10
59.115391
 20
263.103935
 30
0.0
 10
59.382970
 20
262.762618
 30
0.0
 10
59.478417
 20
262.332406
 30
0.0
 10
59.654350
 20
261.885925
 30
0.0
 10
59.927814
 20
261.412366
 30
0.0
 10
59.982614
 20
260.729394
 30
0.0
 10
59.873567
 20
260.025591
 30
0.0
 10
59.833965
 20
259.100159
 30
0.0
 10
60.159197
 20
258.069192
 30
0.0
 10
60.438210
 20
256.827763
 30
0.0
 10
60.599972
 20
255.801225
 30
0.0
 10
60.815089
 20
255.027290
 30
0.0
 10
61.073172
 20
254.514796
 30
0.0
 10
61.231082
 20
253.831079
 30
0.0
 10
61.451502
 20
253.106511
 30
0.0
 10
60.661947
 20
252.385307
 30
0.0
 10
61.328573
 20
251.434300
 30
0.0
 10
61.621234
 20
250.659694
 30
0.0
 10
61.875563
 20
250.338177
 30
0.0
 10
62.248322
 20
249.260541
 30
0.0
 10
62.698535
 20
248.027359
 30
0.0
 10
62.002039
 20
246.415390
 30
0.0
 10
62.544048
 20
245.044022
 30
0.0
 10
62.893821
 20
243.436766
 30
0.0
 10
63.378900
 20
242.013308
 30
0.0
 10
63.837734
 20
240.872796
 30
0.0
 10
64.030919
 20
239.907649
 30
0.0
 10
64.044584
 20
239.186413
 30
0.0
 10
64.140965
 20
238.586712
 30
0.0
 10
64.171218
 20
238.109587
 30
0.0
 10
64.105567
 20
237.755494
 30
0.0
 10
64.177528
 20
236.956861
 30
0.0
 10
64.791983
 20
235.597957
 30
0.0
 10
65.259545
 20
233.921350
 30
0.0
 10
65.516043
 20
231.952984
 30
0.0
 10
64.064336
 20
231.238497
 30
0.0
 10
62.870433
 20
230.632186
 30
0.0
 10
61.510022
 20
230.422518
 30
0.0
 10
60.265558
 20
230.408211
 30
0.0
 10
59.051857
 20
230.388524
 30
0.0
 10
58.072521
 20
230.859893
 30
0.0
 10
57.404748
 20
231.533169
 30
0.0
 10
56.837552
 20
232.131676
 30
0.0
 10
56.305564
 20
232.882598
 30
0.0
 10
56.118526
 20
234.040649
 30
0.0
 10
56.070068
 20
235.005368
 30
0.0
 10
55.803341
 20
236.268530
 30
0.0
 10
56.224190
 20
236.353091
 30
0.0
 10
56.309038
 20
236.292860
 30
0.0
 10
56.678509
 20
236.444285
 30
0.0
 10
56.863032
 20
236.993717
 30
0.0
 10
56.571684
 20
237.524365
 30
0.0
 10
56.858893
 20
237.861652
 30
0.0
 10
57.102829
 20
238.121600
 30
0.0
 10
57.329990
 20
238.251273
 30
0.0
 10
57.638686
 20
238.723019
 30
0.0
 10
57.691301
 20
239.614550
 30
0.0
 10
57.764632
 20
240.766832
 30
0.0
 10
57.702764
 20
241.773237
 30
0.0
 10
57.785441
 20
242.684710
 30
0.0
 10
57.853237
 20
243.384395
 30
0.0
 10
57.722583
 20
244.683694
 30
0.0
 10
55.291730
 20
244.947814
 30
0.0
 10
53.666832
 20
245.660754
 30
0.0
 10
51.134863
 20
245.401778
 30
0.0
 10
51.828163
 20
243.370785
 30
0.0
 10
51.728775
 20
241.904982
 30
0.0
 10
51.743829
 20
240.625691
 30
0.0
 10
51.406622
 20
239.962020
 30
0.0
 10
51.237445
 20
239.609705
 30
0.0
 10
51.103293
 20
239.277482
 30
0.0
 10
50.872240
 20
239.162665
 30
0.0
 10
50.676089
 20
239.125965
 30
0.0
 10
50.474368
 20
238.998406
 30
0.0
 10
50.389645
 20
238.745760
 30
0.0
 10
50.337314
 20
238.473031
 30
0.0
 10
50.271374
 20
238.201279
 30
0.0
 10
50.093567
 20
237.997212
 30
0.0
 10
49.882108
 20
237.857098
 30
0.0
 10
49.356011
 20
237.273878
 30
0.0
 10
48.672382
 20
236.205763
 30
0.0
 10
47.266457
 20
235.024990
 30
0.0
 10
46.108108
 20
234.462110
 30
0.0
 10
45.306072
 20
233.936201
 30
0.0
 10
45.271368
 20
233.498905
 30
0.0
 10
45.145667
 20
232.852404
 30
0.0
 10
44.036341
 20
232.213895
 30
0.0
 10
42.981507
 20
231.434316
 30
0.0
 10
41.954842
 20
230.638849
 30
0.0
 10
41.238816
 20
230.760713
 30
0.0
 10
40.802286
 20
230.877122
 30
0.0
 10
40.505893
 20
230.948659
 30
0.0
 10
40.357697
 20
230.984427
 30
0.0
 11
55.859330
 21
263.591309
 31
0.0
 11
56.094412
 21
263.648502
 31
0.0
 11
56.124612
 21
263.930978
 31
0.0
 11
56.126599
 21
264.125849
 31
0.0
 11
56.947461
 21
264.297602
 31
0.0
 11
57.950461
 21
263.998167
 31
0.0
 11
58.532026
 21
263.591309
 31
0.0
 11
58.783237
 21
263.320216
 31
0.0
 11
59.112449
 21
263.071300
 31
0.0
 11
59.333836
 21
262.789500
 31
0.0
 11
59.493700
 21
262.324988
 31
0.0
 11
59.659118
 21
261.903211
 31
0.0
 11
59.868373
 21
261.453153
 31
0.0
 11
59.954781
 21
260.786311
 31
0.0
 11
59.881424
 21
259.963854
 31
0.0
 11
59.868373
 21
259.314997
 31
0.0
 11
60.141597
 21
258.065121
 31
0.0
 11
60.424552
 21
256.825983
 31
0.0
 11
60.670183
 21
255.573225
 31
0.0
 11
60.832228
 21
255.034408
 31
0.0
 11
61.051306
 21
254.509758
 31
0.0
 11
61.204720
 21
253.969607
 31
0.0
 11
61.220451
 21
252.914879
 31
0.0
 11
61.075568
 21
252.746882
 31
0.0
 11
61.471992
 21
251.029641
 31
0.0
 11
61.639803
 21
250.668456
 31
0.0
 11
61.856514
 21
250.325952
 31
0.0
 11
62.006529
 21
249.960563
 31
0.0
 11
62.389065
 21
247.360403
 31
0.0
 11
62.237119
 21
246.898115
 31
0.0
 11
62.541070
 21
244.882442
 31
0.0
 11
62.921492
 21
243.442772
 31
0.0
 11
63.392682
 21
242.015071
 31
0.0
 11
63.877417
 21
240.606130
 31
0.0
 11
64.006963
 21
239.927588
 31
0.0
 11
64.063101
 21
239.172305
 31
0.0
 11
64.144686
 21
238.467974
 31
0.0
 11
64.156542
 21
238.112326
 31
0.0
 11
64.121804
 21
237.752065
 31
0.0
 11
64.144686
 21
237.398895
 31
0.0
 11
64.659508
 21
235.809648
 31
0.0
 11
65.279585
 21
233.561807
 31
0.0
 11
65.213764
 21
232.053505
 31
0.0
 11
64.149027
 21
231.277374
 31
0.0
 11
62.793353
 21
230.685452
 31
0.0
 11
61.471992
 21
230.449889
 31
0.0
 11
60.255638
 21
230.407118
 31
0.0
 11
59.057877
 21
230.483133
 31
0.0
 11
57.997486
 21
230.984427
 31
0.0
 11
57.442863
 21
231.498433
 31
0.0
 11
56.831710
 21
232.171195
 31
0.0
 11
56.393870
 21
232.855314
 31
0.0
 11
56.163923
 21
233.835540
 31
0.0
 11
55.982621
 21
235.335791
 31
0.0
 11
56.126599
 21
236.329817
 31
0.0
 11
56.215037
 21
236.340110
 31
0.0
 11
56.320870
 21
236.308404
 31
0.0
 11
56.393870
 21
236.329817
 31
0.0
 11
56.727965
 21
237.212660
 31
0.0
 11
56.659380
 21
237.408927
 31
0.0
 11
56.928408
 21
237.933436
 31
0.0
 11
57.111408
 21
238.112081
 31
0.0
 11
57.320010
 21
238.269736
 31
0.0
 11
57.462948
 21
238.467974
 31
0.0
 11
57.690856
 21
239.592438
 31
0.0
 11
57.740233
 21
240.775241
 31
0.0
 11
57.730217
 21
241.942479
 31
0.0
 11
57.778299
 21
242.599815
 31
0.0
 11
57.826381
 21
243.505674
 31
0.0
 11
57.730217
 21
244.080635
 31
0.0
 11
55.743776
 21
244.977860
 31
0.0
 11
52.980375
 21
245.523573
 31
0.0
 11
51.583018
 21
245.149713
 31
0.0
 11
51.663952
 21
243.599327
 31
0.0
 11
51.744885
 21
241.677356
 31
0.0
 11
51.583018
 21
240.338861
 31
0.0
 11
51.425032
 21
239.995583
 31
0.0
 11
51.218322
 21
239.554856
 31
0.0
 11
51.048480
 21
239.269783
 31
0.0
 11
50.873851
 21
239.173300
 31
0.0
 11
50.674345
 21
239.111334
 31
0.0
 11
50.513940
 21
239.002514
 31
0.0
 11
50.397519
 21
238.750464
 31
0.0
 11
50.334396
 21
238.470489
 31
0.0
 11
50.246671
 21
238.200705
 31
0.0
 11
50.089063
 21
238.008542
 31
0.0
 11
49.887796
 21
237.847848
 31
0.0
 11
49.712131
 21
237.666164
 31
0.0
 11
48.573504
 21
236.230461
 31
0.0
 11
47.271907
 21
235.114535
 31
0.0
 11
45.703090
 21
234.191661
 31
0.0
 11
45.346695
 21
233.873235
 31
0.0
 11
45.265875
 21
233.514416
 31
0.0
 11
45.168550
 21
233.122583
 31
0.0
 11
44.296172
 21
232.345216
 31
0.0
 11
42.766986
 21
231.263918
 31
0.0
 11
41.694047
 21
230.717158
 31
0.0
 11
41.244677
 21
230.766652
 31
0.0
 11
40.801187
 21
230.875539
 31
0.0
 11
40.357697
 21
230.984427
 31
0.0
  0
LWPOLYLINE
  5
104
100
AcDbEntity
  8
Vrstva_1
 62
7
100
AcDbPolyline
 90
1
 70
1
 10
40.357697
 20
230.984427
 30
0.0
  0
SPLINE
  5
105
100
AcDbEntity
  8
Vrstva_1
 62
7
100
AcDbSpline
 70
0
 71
3
 72
37
 73
33
 74
31
 40
0.000000
 40
0.000000
 40
0.000000
 40
0.000000
 40
1.649214
 40
3.302582
 40
4.933408
 40
5.113410
 40
5.298973
 40
5.471912
 40
5.552037
 40
5.668528
 40
5.748656
 40
5.922543
 40
6.110550
 40
6.287634
 40
6.731813
 40
7.189315
 40
7.629556
 40
7.894444
 40
8.170378
 40
8.435267
 40
8.951875
 40
9.430224
 40
9.964919
 40
11.521925
 40
14.226458
 40
15.886697
 40
17.150106
 40
19.398373
 40
21.037498
 40
22.558287
 40
23.756679
 40
25.273680
 40
25.273680
 40
25.273680
 40
25.273680
 10
55.859330
 20
257.444110
 30
0.0
 10
55.735900
 20
256.903360
 30
0.0
 10
55.488730
 20
255.820499
 30
0.0
 10
54.635718
 20
254.418051
 30
0.0
 10
53.998590
 20
253.397222
 30
0.0
 10
53.980324
 20
252.714911
 30
0.0
 10
54.015315
 20
252.553471
 30
0.0
 10
54.035225
 20
252.363992
 30
0.0
 10
53.892539
 20
252.335965
 30
0.0
 10
53.817204
 20
252.395986
 30
0.0
 10
53.673484
 20
252.368022
 30
0.0
 10
53.699995
 20
252.175339
 30
0.0
 10
53.740829
 20
252.016797
 30
0.0
 10
53.728782
 20
251.733298
 30
0.0
 10
53.465146
 20
251.453373
 30
0.0
 10
53.153583
 20
251.151424
 30
0.0
 10
52.901146
 20
250.829527
 30
0.0
 10
52.889058
 20
250.491491
 30
0.0
 10
52.949857
 20
250.231595
 30
0.0
 10
52.935439
 20
249.866117
 30
0.0
 10
52.644550
 20
249.535147
 30
0.0
 10
52.249635
 20
249.182294
 30
0.0
 10
52.382799
 20
248.148159
 30
0.0
 10
54.561212
 20
248.488609
 30
0.0
 10
55.995405
 20
248.427789
 30
0.0
 10
58.619955
 20
248.215584
 30
0.0
 10
58.068061
 20
250.344310
 30
0.0
 10
57.860593
 20
251.865831
 30
0.0
 10
57.416952
 20
253.666144
 30
0.0
 10
57.344961
 20
255.100574
 30
0.0
 10
56.980176
 20
256.521972
 30
0.0
 10
56.261071
 20
257.113592
 30
0.0
 10
55.859330
 20
257.444110
 30
0.0
 11
55.859330
 21
257.444110
 31
0.0
 11
55.408278
 21
255.857775
 31
0.0
 11
54.622653
 21
254.402983
 31
0.0
 11
53.988443
 21
252.900528
 31
0.0
 11
53.986945
 21
252.720532
 31
0.0
 11
54.014254
 21
252.536990
 31
0.0
 11
53.988443
 21
252.365988
 31
0.0
 11
53.910299
 21
252.348281
 31
0.0
 11
53.799321
 21
252.383695
 31
0.0
 11
53.721174
 21
252.365988
 31
0.0
 11
53.700467
 21
252.193338
 31
0.0
 11
53.732881
 21
252.008146
 31
0.0
 11
53.721174
 21
251.831450
 31
0.0
 11
53.471074
 21
251.464374
 31
0.0
 11
53.153084
 21
251.135450
 31
0.0
 11
52.919365
 21
250.762372
 31
0.0
 11
52.900583
 21
250.498150
 31
0.0
 11
52.938147
 21
250.224785
 31
0.0
 11
52.919365
 21
249.960563
 31
0.0
 11
52.628398
 21
249.533688
 31
0.0
 11
52.334199
 21
249.156509
 31
0.0
 11
52.384827
 21
248.624216
 31
0.0
 11
53.919411
 21
248.360932
 31
0.0
 11
56.623926
 21
248.371090
 31
0.0
 11
58.264755
 21
248.624216
 31
0.0
 11
58.203351
 21
249.886131
 31
0.0
 11
57.781767
 21
252.094519
 31
0.0
 11
57.462948
 21
253.702338
 31
0.0
 11
57.280443
 21
255.212137
 31
0.0
 11
56.913093
 21
256.352837
 31
0.0
 11
55.859330
 21
257.444110
 31
0.0
  0
SPLINE
  5
106
100
AcDbEntity
  8
Vrstva_1
 62
7
100
AcDbSpline
 70
0
 71
3
 72
28
 73
24
 74
22
 40
0.000000
 40
0.000000
 40
0.000000
 40
0.000000
 40
5.391458
 40
9.271960
 40
14.356400
 40
17.446649
 40
20.938616
 40
24.222582
 40
24.666532
 40
25.117500
 40
25.561452
 40
26.888502
 40
28.382390
 40
29.660292
 40
31.066970
 40
32.745275
 40
34.092078
 40
36.312613
 40
39.073798
 40
41.336453
 40
41.415140
 40
41.514421
 40
41.613702
 40
41.613702
 40
41.613702
 40
41.613702
 10
75.637275
 20
259.849537
 30
0.0
 10
73.851403
 20
259.963401
 30
0.0
 10
70.780148
 20
260.159220
 30
0.0
 10
65.879520
 20
258.203703
 30
0.0
 10
65.394544
 20
253.382042
 30
0.0
 10
67.512262
 20
249.881910
 30
0.0
 10
70.793324
 20
248.831132
 30
0.0
 10
73.083102
 20
248.155863
 30
0.0
 10
74.480441
 20
248.053110
 30
0.0
 10
74.922609
 20
248.123415
 30
0.0
 10
75.671606
 20
248.096420
 30
0.0
 10
76.657183
 20
247.544152
 30
0.0
 10
77.756906
 20
246.755968
 30
0.0
 10
78.859583
 20
245.895911
 30
0.0
 10
80.146549
 20
245.206628
 30
0.0
 10
81.400107
 20
244.448552
 30
0.0
 10
82.680621
 20
243.114330
 30
0.0
 10
82.379423
 20
240.786074
 30
0.0
 10
81.638552
 20
238.659157
 30
0.0
 10
81.371177
 20
236.729296
 30
0.0
 10
80.639063
 20
236.282295
 30
0.0
 10
80.545514
 20
236.317647
 30
0.0
 10
80.480590
 20
236.325760
 30
0.0
 10
80.448128
 20
236.329817
 30
0.0
 11
75.637275
 21
259.849537
 31
0.0
 11
70.247951
 21
259.697892
 31
0.0
 11
66.796286
 21
257.924671
 31
0.0
 11
66.015573
 21
252.900528
 31
0.0
 11
67.658472
 21
250.283177
 31
0.0
 11
70.834769
 21
248.832327
 31
0.0
 11
74.033660
 21
248.089676
 31
0.0
 11
74.477185
 21
248.070263
 31
0.0
 11
74.926479
 21
248.109089
 31
0.0
 11
75.370006
 21
248.089676
 31
0.0
 11
76.585862
 21
247.557927
 31
0.0
 11
77.811308
 21
246.703536
 31
0.0
 11
78.844509
 21
245.951520
 31
0.0
 11
80.058648
 21
245.241161
 31
0.0
 11
81.457798
 21
244.314291
 31
0.0
 11
82.319012
 21
243.278826
 31
0.0
 11
82.351039
 21
241.058522
 31
0.0
 11
81.663247
 21
238.384371
 31
0.0
 11
80.715397
 21
236.329817
 31
0.0
 11
80.643938
 21
236.296875
 31
0.0
 11
80.546032
 21
236.313346
 31
0.0
 11
80.448128
 21
236.329817
 31
0.0
  0
SPLINE
  5
107
100
AcDbEntity
  8
Vrstva_1
 62
7
100
AcDbSpline
 70
0
 71
3
 72
52
 73
48
 74
46
 40
0.000000
 40
0.000000
 40
0.000000
 40
0.000000
 40
0.127736
 40
0.255473
 40
0.379858
 40
1.192181
 40
2.113510
 40
2.936274
 40
3.619420
 40
4.350474
 40
5.092703
 40
5.748007
 40
6.389690
 40
7.041127
 40
8.219560
 40
9.678785
 40
10.934785
 40
12.841831
 40
15.398288
 40
16.954858
 40
17.547899
 40
18.444070
 40
19.107031
 40
21.662234
 40
23.600730
 40
26.255952
 40
26.761505
 40
27.402781
 40
27.868862
 40
30.164738
 40
33.703271
 40
36.189512
 40
36.729037
 40
37.253443
 40
37.818870
 40
38.664298
 40
39.674857
 40
40.353755
 40
40.598239
 40
40.955971
 40
41.200455
 40
41.403981
 40
41.618193
 40
41.806087
 40
42.065309
 40
42.342647
 40
42.613901
 40
42.613901
 40
42.613901
 40
42.613901
 10
80.448128
 20
236.329817
 30
0.0
 10
80.416418
 20
236.301470
 30
0.0
 10
80.352998
 20
236.244776
 30
0.0
 10
80.251342
 20
236.167592
 30
0.0
 10
80.047871
 20
235.872631
 30
0.0
 10
79.859689
 20
235.277744
 30
0.0
 10
79.496527
 20
234.497627
 30
0.0
 10
78.903985
 20
233.916473
 30
0.0
 10
78.231535
 20
233.586636
 30
0.0
 10
77.641037
 20
233.176368
 30
0.0
 10
77.009880
 20
232.841706
 30
0.0
 10
76.350992
 20
232.662189
 30
0.0
 10
75.708238
 20
232.558141
 30
0.0
 10
74.935481
 20
232.264686
 30
0.0
 10
73.942369
 20
231.782200
 30
0.0
 10
72.722262
 20
231.429690
 30
0.0
 10
71.020586
 20
231.302714
 30
0.0
 10
70.069744
 20
233.420483
 30
0.0
 10
69.840384
 20
234.995628
 30
0.0
 10
69.308307
 20
237.173462
 30
0.0
 10
70.471722
 20
237.265010
 30
0.0
 10
71.151100
 20
237.190921
 30
0.0
 10
72.530292
 20
237.075293
 30
0.0
 10
74.240733
 20
237.049503
 30
0.0
 10
76.613526
 20
238.227052
 30
0.0
 10
76.653347
 20
240.169727
 30
0.0
 10
76.744775
 20
241.421685
 30
0.0
 10
76.811790
 20
241.956046
 30
0.0
 10
76.636124
 20
243.115070
 30
0.0
 10
74.370746
 20
244.068151
 30
0.0
 10
72.274575
 20
245.626906
 30
0.0
 10
70.388733
 20
246.852436
 30
0.0
 10
69.243482
 20
247.175879
 30
0.0
 10
68.700939
 20
247.213090
 30
0.0
 10
68.053702
 20
247.266756
 30
0.0
 10
67.312070
 20
247.642480
 30
0.0
 10
66.666754
 20
248.150915
 30
0.0
 10
66.047901
 20
248.471758
 30
0.0
 10
65.911762
 20
248.890621
 30
0.0
 10
65.844702
 20
249.152910
 30
0.0
 10
65.787182
 20
249.441791
 30
0.0
 10
65.561449
 20
249.528076
 30
0.0
 10
65.366120
 20
249.555946
 30
0.0
 10
65.170268
 20
249.696237
 30
0.0
 10
65.160985
 20
249.961748
 30
0.0
 10
65.222059
 20
250.219548
 30
0.0
 10
65.216509
 20
250.403934
 30
0.0
 10
65.213764
 20
250.495104
 30
0.0
 11
80.448128
 21
236.329817
 31
0.0
 11
80.351761
 21
236.245972
 31
0.0
 11
80.255394
 21
236.162128
 31
0.0
 11
80.180856
 21
236.062549
 31
0.0
 11
79.855208
 21
235.318358
 31
0.0
 11
79.432851
 21
234.499539
 31
0.0
 11
78.844509
 21
233.924392
 31
0.0
 11
78.254773
 21
233.579575
 31
0.0
 11
77.635869
 21
233.190476
 31
0.0
 11
76.973622
 21
232.855314
 31
0.0
 11
76.344348
 21
232.672456
 31
0.0
 11
75.716940
 21
232.537859
 31
0.0
 11
75.102738
 21
232.320774
 31
0.0
 11
74.021141
 21
231.852957
 31
0.0
 11
72.615613
 21
231.460747
 31
0.0
 11
71.360963
 21
231.518968
 31
0.0
 11
70.282119
 21
233.091519
 31
0.0
 11
69.683176
 21
235.576825
 31
0.0
 11
69.757345
 21
237.131627
 31
0.0
 11
70.340275
 21
237.240671
 31
0.0
 11
71.234785
 21
237.186149
 31
0.0
 11
71.895501
 21
237.131627
 31
0.0
 11
74.445602
 21
237.293009
 31
0.0
 11
76.110517
 21
238.285896
 31
0.0
 11
76.706353
 21
240.873401
 31
0.0
 11
76.745411
 21
241.377444
 31
0.0
 11
76.784470
 21
242.017528
 31
0.0
 11
76.706353
 21
242.477017
 31
0.0
 11
74.914789
 21
243.912756
 31
0.0
 11
71.935982
 21
245.822709
 31
0.0
 11
69.757345
 21
247.020598
 31
0.0
 11
69.235762
 21
247.158578
 31
0.0
 11
68.714228
 21
247.213387
 31
0.0
 11
68.153729
 21
247.287869
 31
0.0
 11
67.382558
 21
247.634344
 31
0.0
 11
66.542776
 21
248.196479
 31
0.0
 11
66.015573
 21
248.624216
 31
0.0
 11
65.926483
 21
248.851890
 31
0.0
 11
65.837393
 21
249.198351
 31
0.0
 11
65.748304
 21
249.426025
 31
0.0
 11
65.566911
 21
249.518327
 31
0.0
 11
65.360641
 21
249.576114
 31
0.0
 11
65.213764
 21
249.693294
 31
0.0
 11
65.172290
 21
249.949177
 31
0.0
 11
65.210500
 21
250.223870
 31
0.0
 11
65.213764
 21
250.495104
 31
0.0
  0
SPLINE
  5
108
100
AcDbEntity
  8
Vrstva_1
 62
7
100
AcDbSpline
 70
0
 71
3
 72
28
 73
24
 74
22
 40
0.000000
 40
0.000000
 40
0.000000
 40
0.000000
 40
0.594216
 40
0.936585
 40
1.232965
 40
1.489459
 40
1.784340
 40
2.040833
 40
2.290573
 40
2.550726
 40
2.800464
 40
3.956590
 40
5.163097
 40
6.342402
 40
7.541629
 40
9.059262
 40
10.099934
 40
10.931766
 40
11.753371
 40
12.571952
 40
12.654350
 40
12.750264
 40
12.846179
 40
12.846179
 40
12.846179
 40
12.846179
 10
65.213764
 20
250.495104
 30
0.0
 10
65.320132
 20
250.759635
 30
0.0
 10
65.487786
 20
251.176581
 30
0.0
 10
64.997035
 20
251.044816
 30
0.0
 10
64.624686
 20
250.946575
 30
0.0
 10
64.651620
 20
251.320121
 30
0.0
 10
64.711597
 20
251.553035
 30
0.0
 10
64.712836
 20
251.844742
 30
0.0
 10
64.515754
 20
252.030918
 30
0.0
 10
64.302819
 20
252.164104
 30
0.0
 10
63.941416
 20
252.599177
 30
0.0
 10
63.766368
 20
253.488084
 30
0.0
 10
63.606049
 20
254.648381
 30
0.0
 10
63.631134
 20
255.847451
 30
0.0
 10
63.519486
 20
257.148622
 30
0.0
 10
63.446197
 20
258.367857
 30
0.0
 10
63.454885
 20
259.582127
 30
0.0
 10
64.182528
 20
260.199307
 30
0.0
 10
64.815008
 20
260.690130
 30
0.0
 10
65.374446
 20
260.952248
 30
0.0
 10
65.520596
 20
261.266954
 30
0.0
 10
65.491786
 20
261.358499
 30
0.0
 10
65.484617
 20
261.421602
 30
0.0
 10
65.481032
 20
261.453153
 30
0.0
 11
65.213764
 21
250.495104
 31
0.0
 11
65.315327
 21
251.080577
 31
0.0
 11
64.975446
 21
251.039375
 31
0.0
 11
64.679226
 21
251.029641
 31
0.0
 11
64.655468
 21
251.285032
 31
0.0
 11
64.702982
 21
251.576059
 31
0.0
 11
64.679226
 21
251.831450
 31
0.0
 11
64.515599
 21
252.020120
 31
0.0
 11
64.308313
 21
252.177320
 31
0.0
 11
64.144686
 21
252.365988
 31
0.0
 11
63.782046
 21
253.463767
 31
0.0
 11
63.636704
 21
254.661488
 31
0.0
 11
63.610148
 21
255.840494
 31
0.0
 11
63.533455
 21
257.037266
 31
0.0
 11
63.456761
 21
258.552960
 31
0.0
 11
63.610148
 21
259.582266
 31
0.0
 11
64.179334
 21
260.188872
 31
0.0
 11
64.844143
 21
260.671640
 31
0.0
 11
65.481032
 21
261.185884
 31
0.0
 11
65.509032
 21
261.263378
 31
0.0
 11
65.495032
 21
261.358265
 31
0.0
 11
65.481032
 21
261.453153
 31
0.0
  0
SPLINE
  5
109
100
AcDbEntity
  8
Vrstva_1
 62
7
100
AcDbSpline
 70
0
 71
3
 72
16
 73
12
 74
10
 40
0.000000
 40
0.000000
 40
0.000000
 40
0.000000
 40
0.255473
 40
0.510946
 40
0.759717
 40
0.934615
 40
1.124487
 40
1.299384
 40
1.375345
 40
1.476934
 40
1.578523
 40
1.578523
 40
1.578523
 40
1.578523
 10
65.481032
 20
261.453153
 30
0.0
 10
65.537427
 20
261.517246
 30
0.0
 10
65.650218
 20
261.645433
 30
0.0
 10
65.809033
 20
261.838730
 30
0.0
 10
65.982382
 20
262.002002
 30
0.0
 10
66.199197
 20
262.014809
 30
0.0
 10
66.362021
 20
261.967535
 30
0.0
 10
66.537686
 20
261.945710
 30
0.0
 10
66.600098
 20
262.063765
 30
0.0
 10
66.563330
 20
262.154800
 30
0.0
 10
66.554517
 20
262.221574
 30
0.0
 10
66.550111
 20
262.254962
 30
0.0
 11
65.481032
 21
261.453153
 31
0.0
 11
65.648723
 21
261.645887
 31
0.0
 11
65.816414
 21
261.838619
 31
0.0
 11
66.015573
 21
261.987693
 31
0.0
 11
66.189573
 21
262.005400
 31
0.0
 11
66.376113
 21
261.969986
 31
0.0
 11
66.550111
 21
261.987693
 31
0.0
 11
66.585524
 21
262.054894
 31
0.0
 11
66.567818
 21
262.154928
 31
0.0
 11
66.550111
 21
262.254962
 31
0.0
  0
LWPOLYLINE
  5
10a
100
AcDbEntity
  8
Vrstva_1
 62
7
100
AcDbPolyline
 90
1
 70
1
 10
55.859330
 20
257.444110
 30
0.0
  0
SPLINE
  5
10b
100
AcDbEntity
  8
Vrstva_1
 62
7
100
AcDbSpline
 70
0
 71
3
 72
19
 73
15
 74
13
 40
0.000000
 40
0.000000
 40
0.000000
 40
0.000000
 40
0.200496
 40
0.400992
 40
0.599027
 40
2.861137
 40
5.095049
 40
7.382100
 40
8.230352
 40
9.258524
 40
10.068187
 40
11.245418
 40
12.925231
 40
14.121708
 40
14.121708
 40
14.121708
 40
14.121708
 10
66.550111
 20
262.254962
 30
0.0
 10
66.608659
 20
262.287108
 30
0.0
 10
66.725756
 20
262.351400
 30
0.0
 10
66.895806
 20
262.457675
 30
0.0
 10
67.737205
 20
262.749053
 30
0.0
 10
69.276896
 20
263.034404
 30
0.0
 10
71.495240
 20
263.511772
 30
0.0
 10
73.283411
 20
263.548771
 30
0.0
 10
74.679498
 20
263.658878
 30
0.0
 10
75.532931
 20
263.719462
 30
0.0
 10
76.681719
 20
263.732720
 30
0.0
 10
76.938727
 20
262.195263
 30
0.0
 10
76.324645
 20
261.026213
 30
0.0
 10
75.839207
 20
260.195215
 30
0.0
 10
75.637275
 20
259.849537
 30
0.0
 11
66.550111
 21
262.254962
 31
0.0
 11
66.724940
 21
262.353113
 31
0.0
 11
66.899768
 21
262.451263
 31
0.0
 11
67.084651
 21
262.522231
 31
0.0
 11
69.285044
 21
263.047029
 31
0.0
 11
71.484485
 21
263.437956
 31
0.0
 11
73.766388
 21
263.591309
 31
0.0
 11
74.612421
 21
263.652628
 31
0.0
 11
75.638763
 21
263.713946
 31
0.0
 11
76.439084
 21
263.591309
 31
0.0
 11
76.796014
 21
262.469492
 31
0.0
 11
76.234471
 21
260.886317
 31
0.0
 11
75.637275
 21
259.849537
 31
0.0
  0
LWPOLYLINE
  5
10c
100
AcDbEntity
  8
Vrstva_1
 62
7
100
AcDbPolyline
 90
1
 70
1
 10
75.637275
 20
259.849537
 30
0.0
  0
SPLINE
  5
10d
100
AcDbEntity
  8
Vrstva_1
 62
7
100
AcDbSpline
 70
0
 71
3
 72
112
 73
108
 74
106
 40
0.000000
 40
0.000000
 40
0.000000
 40
0.000000
 40
1.828800
 40
3.427055
 40
5.179720
 40
5.774472
 40
6.375888
 40
6.974884
 40
9.500818
 40
12.579547
 40
15.294816
 40
17.634901
 40
20.212935
 40
22.521096
 40
23.930244
 40
25.237839
 40
27.147970
 40
27.339800
 40
27.531631
 40
27.696421
 40
28.676387
 40
29.822480
 40
30.840283
 40
33.087893
 40
36.943146
 40
39.139578
 40
39.704624
 40
40.387110
 40
41.099463
 40
41.831542
 40
42.325049
 40
42.801825
 40
43.425416
 40
44.031540
 40
44.755634
 40
45.330854
 40
46.330953
 40
46.897633
 40
49.729718
 40
53.184692
 40
55.511928
 40
55.841510
 40
56.225172
 40
56.608834
 40
58.155685
 40
60.459183
 40
61.687632
 40
61.932208
 40
62.223017
 40
62.505995
 40
62.787346
 40
63.070466
 40
63.351816
 40
65.250315
 40
67.967424
 40
69.523610
 40
70.009772
 40
70.621752
 40
71.135632
 40
72.009959
 40
73.009272
 40
73.824134
 40
75.025260
 40
77.103573
 40
78.668848
 40
79.242183
 40
80.037743
 40
80.549319
 40
80.878900
 40
81.262563
 40
81.646225
 40
82.748400
 40
84.625656
 40
85.655824
 40
86.150197
 40
86.725690
 40
87.301184
 40
88.726611
 40
90.912148
 40
92.135949
 40
92.886429
 40
93.816475
 40
94.547322
 40
95.562463
 40
96.563508
 40
97.559899
 40
98.081221
 40
98.710752
 40
99.250949
 40
100.801311
 40
102.327363
 40
103.836079
 40
104.629987
 40
105.467028
 40
106.250239
 40
107.067745
 40
107.871834
 40
108.790101
 40
109.467278
 40
110.351309
 40
110.940683
 40
111.244257
 40
111.678473
 40
112.017608
 40
112.415690
 40
112.814485
 40
113.213280
 40
113.213280
 40
113.213280
 40
113.213280
 10
82.853553
 20
260.918615
 30
0.0
 10
83.406273
 20
260.633614
 30
0.0
 10
84.442035
 20
260.099540
 30
0.0
 10
85.348903
 20
258.546331
 30
0.0
 10
85.641152
 20
257.267496
 30
0.0
 10
86.009648
 20
256.350885
 30
0.0
 10
86.332473
 20
255.846161
 30
0.0
 10
86.908342
 20
254.738443
 30
0.0
 10
87.044273
 20
252.607717
 30
0.0
 10
86.988417
 20
249.859721
 30
0.0
 10
86.808535
 20
247.145354
 30
0.0
 10
86.966114
 20
244.600396
 30
0.0
 10
87.050114
 20
242.207147
 30
0.0
 10
87.060685
 20
240.066253
 30
0.0
 10
86.369311
 20
238.510982
 30
0.0
 10
85.355041
 20
237.298533
 30
0.0
 10
85.326429
 20
236.091826
 30
0.0
 10
85.237101
 20
235.338578
 30
0.0
 10
85.180739
 20
235.156495
 30
0.0
 10
85.367485
 20
234.724906
 30
0.0
 10
86.207919
 20
234.501039
 30
0.0
 10
87.188956
 20
234.279724
 30
0.0
 10
88.574688
 20
233.722244
 30
0.0
 10
91.048427
 20
233.871472
 30
0.0
 10
93.486948
 20
234.249216
 30
0.0
 10
96.306426
 20
233.590130
 30
0.0
 10
96.754198
 20
234.753257
 30
0.0
 10
96.741705
 20
235.404765
 30
0.0
 10
96.996263
 20
236.081122
 30
0.0
 10
97.365746
 20
236.629532
 30
0.0
 10
97.404481
 20
237.206420
 30
0.0
 10
97.554610
 20
237.718154
 30
0.0
 10
97.819393
 20
238.225952
 30
0.0
 10
97.966421
 20
238.863675
 30
0.0
 10
98.102667
 20
239.484309
 30
0.0
 10
98.122360
 20
240.257498
 30
0.0
 10
98.150050
 20
240.944777
 30
0.0
 10
98.120332
 20
242.544838
 30
0.0
 10
94.612262
 20
241.729900
 30
0.0
 10
92.513623
 20
241.955484
 30
0.0
 10
89.796719
 20
241.534252
 30
0.0
 10
89.379690
 20
242.537551
 30
0.0
 10
89.489891
 20
242.899602
 30
0.0
 10
89.594539
 20
243.659450
 30
0.0
 10
89.416781
 20
245.122018
 30
0.0
 10
89.768146
 20
246.589779
 30
0.0
 10
89.168312
 20
248.255690
 30
0.0
 10
89.789028
 20
248.460864
 30
0.0
 10
90.048920
 20
248.364201
 30
0.0
 10
90.339826
 20
248.334968
 30
0.0
 10
90.608526
 20
248.437597
 30
0.0
 10
90.867065
 20
248.546870
 30
0.0
 10
91.655218
 20
248.787840
 30
0.0
 10
93.381283
 20
248.537828
 30
0.0
 10
95.118381
 20
248.746337
 30
0.0
 10
97.309539
 20
248.443951
 30
0.0
 10
97.376352
 20
249.429306
 30
0.0
 10
97.328558
 20
249.946720
 30
0.0
 10
97.257818
 20
250.615161
 30
0.0
 10
97.368452
 20
251.418075
 30
0.0
 10
97.428652
 20
252.261814
 30
0.0
 10
97.424353
 20
253.450537
 30
0.0
 10
95.693165
 20
253.442875
 30
0.0
 10
94.241845
 20
253.479893
 30
0.0
 10
92.807662
 20
253.468606
 30
0.0
 10
91.822431
 20
253.381658
 30
0.0
 10
91.241201
 20
253.363881
 30
0.0
 10
90.585167
 20
253.314311
 30
0.0
 10
90.456989
 20
253.774300
 30
0.0
 10
90.556301
 20
254.121787
 30
0.0
 10
90.648288
 20
254.741369
 30
0.0
 10
90.522970
 20
255.886664
 30
0.0
 10
90.747549
 20
257.090015
 30
0.0
 10
90.321771
 20
258.501584
 30
0.0
 10
91.113781
 20
258.737274
 30
0.0
 10
91.634463
 20
258.583470
 30
0.0
 10
92.487312
 20
258.465410
 30
0.0
 10
93.924215
 20
258.496940
 30
0.0
 10
95.325929
 20
258.592296
 30
0.0
 10
97.166347
 20
258.469744
 30
0.0
 10
97.084814
 20
259.627149
 30
0.0
 10
97.068491
 20
260.381375
 30
0.0
 10
97.002963
 20
261.282109
 30
0.0
 10
97.015715
 20
262.201951
 30
0.0
 10
96.821860
 20
263.173170
 30
0.0
 10
96.669090
 20
264.056839
 30
0.0
 10
96.026851
 20
264.489590
 30
0.0
 10
95.445455
 20
264.432350
 30
0.0
 10
94.548071
 20
264.364579
 30
0.0
 10
93.337963
 20
264.361804
 30
0.0
 10
91.812931
 20
264.204382
 30
0.0
 10
90.581372
 20
263.850553
 30
0.0
 10
89.525890
 20
263.795696
 30
0.0
 10
88.735110
 20
263.960398
 30
0.0
 10
87.906259
 20
263.904362
 30
0.0
 10
87.174929
 20
263.556828
 30
0.0
 10
86.385584
 20
263.261756
 30
0.0
 10
85.615542
 20
263.007189
 30
0.0
 10
84.763893
 20
263.096745
 30
0.0
 10
84.132928
 20
263.142624
 30
0.0
 10
83.350895
 20
263.211713
 30
0.0
 10
83.322833
 20
262.696788
 30
0.0
 10
83.397106
 20
262.365829
 30
0.0
 10
83.420225
 20
261.958739
 30
0.0
 10
83.217118
 20
261.625625
 30
0.0
 10
83.039973
 20
261.271827
 30
0.0
 10
82.915693
 20
261.036352
 30
0.0
 10
82.853553
 20
260.918615
 30
0.0
 11
82.853553
 21
260.918615
 31
0.0
 11
84.387625
 21
259.923058
 31
0.0
 11
85.244867
 21
258.574149
 31
0.0
 11
85.793518
 21
256.909572
 31
0.0
 11
86.025041
 21
256.361733
 31
0.0
 11
86.325288
 21
255.840627
 31
0.0
 11
86.595325
 21
255.305953
 31
0.0
 11
86.999574
 21
252.812576
 31
0.0
 11
86.960782
 21
249.734092
 31
0.0
 11
86.862596
 21
247.020598
 31
0.0
 11
86.951160
 21
244.682190
 31
0.0
 11
87.039724
 21
242.105677
 31
0.0
 11
86.862596
 21
239.804323
 31
0.0
 11
86.295679
 21
238.514245
 31
0.0
 11
85.599149
 21
237.407605
 31
0.0
 11
85.258978
 21
235.528008
 31
0.0
 11
85.230980
 21
235.338232
 31
0.0
 11
85.202982
 21
235.148456
 31
0.0
 11
85.258978
 21
234.993471
 31
0.0
 11
86.122211
 21
234.529617
 31
0.0
 11
87.230245
 21
234.236716
 31
0.0
 11
88.198943
 21
233.924392
 31
0.0
 11
90.445576
 21
233.858109
 31
0.0
 11
94.299254
 21
233.968292
 31
0.0
 11
96.484299
 21
234.191661
 31
0.0
 11
96.704023
 21
234.712235
 31
0.0
 11
96.783991
 21
235.390021
 31
0.0
 11
97.018836
 21
236.062549
 31
0.0
 11
97.337808
 21
236.721484
 31
0.0
 11
97.422793
 21
237.207619
 31
0.0
 11
97.553377
 21
237.666164
 31
0.0
 11
97.796834
 21
238.240267
 31
0.0
 11
97.956508
 21
238.824981
 31
0.0
 11
98.087914
 21
239.537052
 31
0.0
 11
98.119638
 21
240.111397
 31
0.0
 11
98.143088
 21
241.111220
 31
0.0
 11
98.087914
 21
241.675208
 31
0.0
 11
95.273273
 21
241.989064
 31
0.0
 11
91.824116
 21
241.788674
 31
0.0
 11
89.535290
 21
242.209748
 31
0.0
 11
89.423297
 21
242.519718
 31
0.0
 11
89.479294
 21
242.899272
 31
0.0
 11
89.535290
 21
243.278826
 31
0.0
 11
89.517630
 21
244.825576
 31
0.0
 11
89.499970
 21
247.129006
 31
0.0
 11
89.535290
 21
248.356947
 31
0.0
 11
89.768922
 21
248.429292
 31
0.0
 11
90.054740
 21
248.375646
 31
0.0
 11
90.337099
 21
248.356947
 31
0.0
 11
90.606366
 21
248.438517
 31
0.0
 11
90.869642
 21
248.542646
 31
0.0
 11
91.138908
 21
248.624216
 31
0.0
 11
93.037284
 21
248.645872
 31
0.0
 11
95.754244
 21
248.617428
 31
0.0
 11
97.286108
 21
248.891485
 31
0.0
 11
97.361386
 21
249.371783
 31
0.0
 11
97.323747
 21
249.982604
 31
0.0
 11
97.286108
 21
250.495104
 31
0.0
 11
97.352890
 21
251.366877
 31
0.0
 11
97.419672
 21
252.363956
 31
0.0
 11
97.286108
 21
253.167797
 31
0.0
 11
96.118290
 21
253.448701
 31
0.0
 11
94.040103
 21
253.471582
 31
0.0
 11
92.475255
 21
253.435069
 31
0.0
 11
91.903458
 21
253.393089
 31
0.0
 11
91.109007
 21
253.351109
 31
0.0
 11
90.604368
 21
253.435069
 31
0.0
 11
90.492375
 21
253.745039
 31
0.0
 11
90.548372
 21
254.124593
 31
0.0
 11
90.604368
 21
254.504147
 31
0.0
 11
90.589881
 21
255.606227
 31
0.0
 11
90.575395
 21
257.483427
 31
0.0
 11
90.604368
 21
258.513188
 31
0.0
 11
91.069323
 21
258.681177
 31
0.0
 11
91.638655
 21
258.597182
 31
0.0
 11
92.207986
 21
258.513188
 31
0.0
 11
93.633332
 21
258.498075
 31
0.0
 11
95.818421
 21
258.542356
 31
0.0
 11
97.018836
 21
258.780459
 31
0.0
 11
97.096995
 21
259.526857
 31
0.0
 11
97.057916
 21
260.456082
 31
0.0
 11
97.018836
 21
261.185884
 31
0.0
 11
96.980518
 21
262.200302
 31
0.0
 11
96.823415
 21
263.188942
 31
0.0
 11
96.484299
 21
264.125849
 31
0.0
 11
96.048659
 21
264.412195
 31
0.0
 11
95.419450
 21
264.432353
 31
0.0
 11
94.880680
 21
264.393118
 31
0.0
 11
93.331386
 21
264.335560
 31
0.0
 11
91.815557
 21
264.159215
 31
0.0
 11
90.337099
 21
263.858578
 31
0.0
 11
89.543721
 21
263.829567
 31
0.0
 11
88.712095
 21
263.924629
 31
0.0
 11
87.931674
 21
263.858578
 31
0.0
 11
87.168099
 21
263.566569
 31
0.0
 11
86.417266
 21
263.278807
 31
0.0
 11
85.526247
 21
263.056771
 31
0.0
 11
84.849655
 21
263.084931
 31
0.0
 11
83.968667
 21
263.158217
 31
0.0
 11
83.388090
 21
263.056771
 31
0.0
 11
83.336851
 21
262.757552
 31
0.0
 11
83.391661
 21
262.326809
 31
0.0
 11
83.388090
 21
261.987693
 31
0.0
 11
83.223338
 21
261.625304
 31
0.0
 11
83.038445
 21
261.271960
 31
0.0
 11
82.853553
 21
260.918615
 31
0.0
  0
SPLINE
  5
10e
100
AcDbEntity
  8
Vrstva_1
 62
7
100
AcDbSpline
 70
0
 71
3
 72
187
 73
183
 74
181
 40
0.000000
 40
0.000000
 40
0.000000
 40
0.000000
 40
4.009043
 40
8.018086
 40
12.027130
 40
14.699825
 40
17.372519
 40
20.045214
 40
21.648831
 40
23.252449
 40
24.856066
 40
26.195714
 40
28.460441
 40
29.666948
 40
31.076034
 40
33.584666
 40
35.026233
 40
35.520604
 40
36.096097
 40
36.671589
 40
39.522464
 40
42.373339
 40
45.224214
 40
46.564857
 40
47.764047
 40
48.976686
 40
49.422135
 40
49.867584
 40
50.313033
 40
50.423706
 40
50.534379
 40
50.597765
 40
50.897552
 40
51.498780
 40
51.934207
 40
53.819885
 40
55.687440
 40
57.580355
 40
57.899672
 40
58.321719
 40
58.653188
 40
59.746313
 40
60.881813
 40
62.037230
 40
62.896087
 40
63.971028
 40
64.687121
 40
65.438441
 40
66.202633
 40
66.988513
 40
67.272476
 40
67.566399
 40
67.839993
 40
68.899441
 40
70.123249
 40
71.628953
 40
72.009561
 40
72.394616
 40
72.767105
 40
72.948672
 40
73.147940
 40
73.311649
 40
74.394848
 40
75.912831
 40
77.338069
 40
77.829144
 40
78.393646
 40
78.919212
 40
79.010002
 40
79.109633
 40
79.191485
 40
79.355190
 40
79.554460
 40
79.736029
 40
80.260638
 40
80.832260
 40
81.253882
 40
81.419063
 40
81.621742
 40
81.798934
 40
82.367560
 40
82.948440
 40
83.512981
 40
83.795657
 40
84.081344
 40
84.360328
 40
84.442267
 40
84.553962
 40
84.635914
 40
85.617689
 40
86.699130
 40
87.631546
 40
87.716007
 40
87.820513
 40
87.904974
 40
88.787238
 40
89.735292
 40
90.666366
 40
90.750826
 40
90.855333
 40
90.939793
 40
91.296195
 40
91.780304
 40
92.136705
 40
92.449811
 40
92.876825
 40
93.281474
 40
93.458065
 40
93.642018
 40
93.818609
 40
94.363754
 40
94.875006
 40
95.347082
 40
95.656451
 40
95.986763
 40
96.311387
 40
96.492955
 40
96.692225
 40
96.855931
 40
97.031591
 40
97.186710
 40
97.448403
 40
98.437058
 40
99.934247
 40
101.047996
 40
101.612443
 40
102.203226
 40
102.761899
 40
103.668344
 40
104.585635
 40
105.514210
 40
106.988671
 40
108.919023
 40
109.890447
 40
111.051177
 40
113.226467
 40
114.734353
 40
115.247340
 40
115.837102
 40
116.350090
 40
116.610710
 40
116.956595
 40
117.252422
 40
117.896231
 40
119.073573
 40
120.297681
 40
120.906613
 40
121.677709
 40
122.338952
 40
122.595449
 40
122.890330
 40
123.146821
 40
123.660027
 40
123.901654
 40
124.171108
 40
124.410534
 40
124.742553
 40
124.981972
 40
125.066433
 40
125.170940
 40
125.255398
 40
125.373253
 40
125.634135
 40
125.895017
 40
125.971074
 40
126.081563
 40
126.170607
 40
126.471698
 40
126.908265
 40
127.246868
 40
127.743462
 40
127.953786
 40
128.450381
 40
129.385763
 40
130.581765
 40
131.410919
 40
132.509757
 40
134.056725
 40
134.978712
 40
135.511119
 40
136.047996
 40
136.584872
 40
136.584872
 40
136.584872
 40
136.584872
 10
102.096960
 20
263.056771
 30
0.0
 10
102.096960
 20
261.720424
 30
0.0
 10
102.096961
 20
259.047729
 30
0.0
 10
102.096956
 20
255.038682
 30
0.0
 10
102.096972
 20
251.475100
 30
0.0
 10
102.096932
 20
248.356923
 30
0.0
 10
102.097066
 20
245.684339
 30
0.0
 10
102.096632
 20
243.367645
 30
0.0
 10
102.097653
 20
241.408514
 30
0.0
 10
102.094328
 20
239.802142
 30
0.0
 10
102.106110
 20
238.296275
 30
0.0
 10
102.060985
 20
236.522897
 30
0.0
 10
102.254663
 20
235.108568
 30
0.0
 10
101.765761
 20
233.009509
 30
0.0
 10
104.115066
 20
233.505282
 30
0.0
 10
105.459581
 20
233.621084
 30
0.0
 10
107.367373
 20
233.265141
 30
0.0
 10
107.669572
 20
234.158573
 30
0.0
 10
107.511223
 20
234.688909
 30
0.0
 10
107.336377
 20
236.013571
 30
0.0
 10
107.488074
 20
238.113880
 30
0.0
 10
107.420415
 20
240.961914
 30
0.0
 10
107.473074
 20
243.309878
 30
0.0
 10
107.396572
 20
245.107074
 30
0.0
 10
107.229277
 20
246.347402
 30
0.0
 10
107.171358
 20
247.299137
 30
0.0
 10
107.174433
 20
248.000890
 30
0.0
 10
107.180269
 20
248.444886
 30
0.0
 10
107.161308
 20
248.782826
 30
0.0
 10
107.186266
 20
248.999778
 30
0.0
 10
107.241247
 20
249.095479
 30
0.0
 10
107.092370
 20
249.240515
 30
0.0
 10
107.524752
 20
248.715999
 30
0.0
 10
107.665825
 20
248.516024
 30
0.0
 10
108.292750
 20
247.668072
 30
0.0
 10
108.948314
 20
246.493435
 30
0.0
 10
109.822044
 20
244.825570
 30
0.0
 10
110.399946
 20
243.539195
 30
0.0
 10
110.381881
 20
242.657403
 30
0.0
 10
110.324080
 20
242.302261
 30
0.0
 10
110.408382
 20
241.685493
 30
0.0
 10
110.814002
 20
240.916646
 30
0.0
 10
111.033737
 20
239.813628
 30
0.0
 10
111.328236
 20
238.775948
 30
0.0
 10
112.061864
 20
238.023888
 30
0.0
 10
112.736319
 20
237.465485
 30
0.0
 10
113.365306
 20
236.881991
 30
0.0
 10
113.698303
 20
236.205582
 30
0.0
 10
114.188911
 20
235.616678
 30
0.0
 10
114.607489
 20
235.157488
 30
0.0
 10
114.768939
 20
234.725440
 30
0.0
 10
114.780241
 20
234.437901
 30
0.0
 10
115.039705
 20
233.941388
 30
0.0
 10
115.971595
 20
233.636841
 30
0.0
 10
117.199460
 20
233.956682
 30
0.0
 10
118.139812
 20
234.450812
 30
0.0
 10
118.676159
 20
234.994310
 30
0.0
 10
118.899388
 20
235.291086
 30
0.0
 10
119.128792
 20
235.540955
 30
0.0
 10
119.393372
 20
235.549632
 30
0.0
 10
119.562423
 20
235.467803
 30
0.0
 10
120.065840
 20
235.610839
 30
0.0
 10
119.868831
 20
236.927843
 30
0.0
 10
119.041862
 20
237.824568
 30
0.0
 10
118.235229
 20
238.702509
 30
0.0
 10
117.927103
 20
239.479925
 30
0.0
 10
117.731422
 20
239.944353
 30
0.0
 10
117.483764
 20
240.331468
 30
0.0
 10
117.235730
 20
240.350284
 30
0.0
 10
117.152810
 20
240.310367
 30
0.0
 10
117.023927
 20
240.335203
 30
0.0
 10
117.013728
 20
240.522865
 30
0.0
 10
117.084010
 20
240.680064
 30
0.0
 10
117.072173
 20
241.000585
 30
0.0
 10
116.710379
 20
241.295504
 30
0.0
 10
116.383864
 20
241.657373
 30
0.0
 10
116.004831
 20
241.843870
 30
0.0
 10
115.939484
 20
242.120360
 30
0.0
 10
116.029158
 20
242.288367
 30
0.0
 10
115.988139
 20
242.618600
 30
0.0
 10
115.612554
 20
242.913477
 30
0.0
 10
115.250246
 20
243.339650
 30
0.0
 10
114.941679
 20
243.715254
 30
0.0
 10
114.832756
 20
244.085428
 30
0.0
 10
114.765067
 20
244.342394
 30
0.0
 10
114.735081
 20
244.604176
 30
0.0
 10
114.565639
 20
244.644783
 30
0.0
 10
114.483188
 20
244.584373
 30
0.0
 10
114.083162
 20
244.707057
 30
0.0
 10
114.020734
 20
245.622263
 30
0.0
 10
113.532409
 20
246.373809
 30
0.0
 10
113.345219
 20
247.214962
 30
0.0
 10
112.963759
 20
247.314275
 30
0.0
 10
112.879004
 20
247.261489
 30
0.0
 10
112.514369
 20
247.355862
 30
0.0
 10
112.331692
 20
248.119105
 30
0.0
 10
111.938940
 20
248.842161
 30
0.0
 10
111.741344
 20
249.621043
 30
0.0
 10
111.359974
 20
249.719498
 30
0.0
 10
111.276279
 20
249.667902
 30
0.0
 10
111.083579
 20
249.708181
 30
0.0
 10
111.011346
 20
250.073614
 30
0.0
 10
110.837032
 20
250.401760
 30
0.0
 10
110.686218
 20
250.775990
 30
0.0
 10
110.363828
 20
250.971820
 30
0.0
 10
110.079231
 20
251.213255
 30
0.0
 10
109.839808
 20
251.481715
 30
0.0
 10
109.826856
 20
251.744518
 30
0.0
 10
109.869235
 20
251.918682
 30
0.0
 10
109.848778
 20
252.226848
 30
0.0
 10
109.554885
 20
252.568579
 30
0.0
 10
109.105247
 20
252.799217
 30
0.0
 10
108.795387
 20
253.113957
 30
0.0
 10
108.615888
 20
253.440096
 30
0.0
 10
108.421883
 20
253.692705
 30
0.0
 10
108.231749
 20
253.913059
 30
0.0
 10
108.223643
 20
254.162817
 30
0.0
 10
108.298468
 20
254.320839
 30
0.0
 10
108.269527
 20
254.545196
 30
0.0
 10
108.080099
 20
254.525303
 30
0.0
 10
107.834377
 20
254.477125
 30
0.0
 10
108.118573
 20
255.131028
 30
0.0
 10
108.940706
 20
255.336423
 30
0.0
 10
110.027978
 20
255.934248
 30
0.0
 10
111.041932
 20
256.249355
 30
0.0
 10
111.664500
 20
256.692976
 30
0.0
 10
112.063588
 20
257.102078
 30
0.0
 10
112.605394
 20
257.526593
 30
0.0
 10
113.308474
 20
257.899174
 30
0.0
 10
114.099157
 20
258.367818
 30
0.0
 10
115.100664
 20
258.826587
 30
0.0
 10
116.285528
 20
259.779142
 30
0.0
 10
117.168001
 20
260.557964
 30
0.0
 10
118.583124
 20
261.961345
 30
0.0
 10
116.345816
 20
261.741025
 30
0.0
 10
115.088883
 20
261.959377
 30
0.0
 10
113.652951
 20
262.201847
 30
0.0
 10
112.782291
 20
262.342551
 30
0.0
 10
112.267823
 20
262.186319
 30
0.0
 10
111.773478
 20
262.177907
 30
0.0
 10
111.488301
 20
262.429712
 30
0.0
 10
111.245874
 20
262.620619
 30
0.0
 10
110.726483
 20
262.532272
 30
0.0
 10
111.002473
 20
261.614971
 30
0.0
 10
110.918613
 20
260.731291
 30
0.0
 10
110.616958
 20
259.631795
 30
0.0
 10
109.804883
 20
259.238654
 30
0.0
 10
109.156236
 20
259.056422
 30
0.0
 10
108.649053
 20
258.788821
 30
0.0
 10
108.243979
 20
258.738627
 30
0.0
 10
107.968928
 20
258.816798
 30
0.0
 10
107.668247
 20
258.809797
 30
0.0
 10
107.014219
 20
258.436032
 30
0.0
 10
107.614876
 20
258.591501
 30
0.0
 10
107.474724
 20
258.175920
 30
0.0
 10
107.159939
 20
258.220842
 30
0.0
 10
106.938624
 20
258.266796
 30
0.0
 10
106.639789
 20
258.316111
 30
0.0
 10
106.617317
 20
258.150220
 30
0.0
 10
106.662159
 20
258.077968
 30
0.0
 10
106.654577
 20
257.939930
 30
0.0
 10
106.447883
 20
258.042822
 30
0.0
 10
106.454328
 20
258.254343
 30
0.0
 10
106.444438
 20
258.496806
 30
0.0
 10
106.286167
 20
258.548517
 30
0.0
 10
106.205947
 20
258.492062
 30
0.0
 10
106.017206
 20
258.514094
 30
0.0
 10
106.065525
 20
258.893226
 30
0.0
 10
106.104006
 20
259.201159
 30
0.0
 10
106.132065
 20
259.639926
 30
0.0
 10
105.983162
 20
259.976630
 30
0.0
 10
105.693107
 20
260.256776
 30
0.0
 10
105.490457
 20
260.791009
 30
0.0
 10
105.576053
 20
261.692728
 30
0.0
 10
105.736301
 20
262.588903
 30
0.0
 10
105.723125
 20
263.865008
 30
0.0
 10
104.219400
 20
263.690797
 30
0.0
 10
103.184197
 20
263.437371
 30
0.0
 10
102.230652
 20
263.042816
 30
0.0
 10
101.564217
 20
263.003070
 30
0.0
 10
101.029932
 20
263.038347
 30
0.0
 10
100.672204
 20
263.050630
 30
0.0
 10
100.493340
 20
263.056771
 30
0.0
 11
102.096960
 21
263.056771
 31
0.0
 11
102.096960
 21
259.047728
 31
0.0
 11
102.096960
 21
255.038685
 31
0.0
 11
102.096960
 21
251.029641
 31
0.0
 11
102.096960
 21
248.356946
 31
0.0
 11
102.096960
 21
245.684252
 31
0.0
 11
102.096960
 21
243.011557
 31
0.0
 11
102.096960
 21
241.407940
 31
0.0
 11
102.096960
 21
239.804322
 31
0.0
 11
102.096960
 21
238.200705
 31
0.0
 11
102.093360
 21
236.861062
 31
0.0
 11
102.089760
 21
234.596337
 31
0.0
 11
102.096960
 21
233.389852
 31
0.0
 11
103.505746
 21
233.360817
 31
0.0
 11
106.011444
 21
233.482130
 31
0.0
 11
107.442350
 21
233.657124
 31
0.0
 11
107.610337
 21
234.122079
 31
0.0
 11
107.526343
 21
234.691409
 31
0.0
 11
107.442350
 21
235.260739
 31
0.0
 11
107.442350
 21
238.111614
 31
0.0
 11
107.442350
 21
240.962489
 31
0.0
 11
107.442350
 21
243.813364
 31
0.0
 11
107.373058
 21
245.152216
 31
0.0
 11
107.244372
 21
246.344480
 31
0.0
 11
107.175080
 21
247.555138
 31
0.0
 11
107.175080
 21
248.000587
 31
0.0
 11
107.175080
 21
248.446036
 31
0.0
 11
107.175080
 21
248.891485
 31
0.0
 11
107.194880
 21
249.000373
 31
0.0
 11
107.214680
 21
249.109260
 31
0.0
 11
107.175080
 21
249.158754
 31
0.0
 11
107.355412
 21
248.919270
 31
0.0
 11
107.721324
 21
248.442213
 31
0.0
 11
107.976890
 21
248.089676
 31
0.0
 11
108.949482
 21
246.474174
 31
0.0
 11
109.805971
 21
244.814599
 31
0.0
 11
110.382310
 21
243.011557
 31
0.0
 11
110.376119
 21
242.692300
 31
0.0
 11
110.342728
 21
242.271576
 31
0.0
 11
110.382310
 21
241.942479
 31
0.0
 11
110.757152
 21
240.915632
 31
0.0
 11
111.048521
 21
239.818150
 31
0.0
 11
111.451390
 21
238.735245
 31
0.0
 11
112.017049
 21
238.088974
 31
0.0
 11
112.823061
 21
237.377749
 31
0.0
 11
113.322280
 21
236.864358
 31
0.0
 11
113.720206
 21
236.227069
 31
0.0
 11
114.189958
 21
235.624307
 31
0.0
 11
114.658630
 21
234.993471
 31
0.0
 11
114.753093
 21
234.725681
 31
0.0
 11
114.802767
 21
234.435985
 31
0.0
 11
114.925890
 21
234.191661
 31
0.0
 11
115.891829
 21
233.756469
 31
0.0
 11
117.096194
 21
233.973745
 31
0.0
 11
118.400400
 21
234.726202
 31
0.0
 11
118.667541
 21
234.997308
 31
0.0
 11
118.911276
 21
235.295403
 31
0.0
 11
119.202210
 21
235.528008
 31
0.0
 11
119.383626
 21
235.535423
 31
0.0
 11
119.577581
 21
235.489718
 31
0.0
 11
119.736750
 21
235.528008
 31
0.0
 11
119.839308
 21
236.606341
 31
0.0
 11
118.999726
 21
237.871004
 31
0.0
 11
118.133130
 21
239.002514
 31
0.0
 11
117.936324
 21
239.452428
 31
0.0
 11
117.701472
 21
239.965757
 31
0.0
 11
117.331320
 21
240.338861
 31
0.0
 11
117.240606
 21
240.342568
 31
0.0
 11
117.143631
 21
240.319714
 31
0.0
 11
117.064050
 21
240.338861
 31
0.0
 11
117.025766
 21
240.498027
 31
0.0
 11
117.071474
 21
240.691984
 31
0.0
 11
117.064050
 21
240.873401
 31
0.0
 11
116.740768
 21
241.286563
 31
0.0
 11
116.314726
 21
241.667666
 31
0.0
 11
115.994970
 21
241.942479
 31
0.0
 11
115.960930
 21
242.104114
 31
0.0
 11
116.010883
 21
242.300541
 31
0.0
 11
115.994970
 21
242.477017
 31
0.0
 11
115.636197
 21
242.918172
 31
0.0
 11
115.245410
 21
243.347947
 31
0.0
 11
114.925890
 21
243.813364
 31
0.0
 11
114.835331
 21
244.081142
 31
0.0
 11
114.769375
 21
244.359111
 31
0.0
 11
114.658630
 21
244.615173
 31
0.0
 11
114.578364
 21
244.631646
 31
0.0
 11
114.471639
 21
244.598700
 31
0.0
 11
114.391360
 21
244.615173
 31
0.0
 11
113.961074
 21
245.497634
 31
0.0
 11
113.550976
 21
246.498300
 31
0.0
 11
113.055010
 21
247.287869
 31
0.0
 11
112.971718
 21
247.301869
 31
0.0
 11
112.871032
 21
247.273869
 31
0.0
 11
112.787740
 21
247.287869
 31
0.0
 11
112.318054
 21
248.034720
 31
0.0
 11
111.956422
 21
248.911092
 31
0.0
 11
111.451390
 21
249.693294
 31
0.0
 11
111.368098
 21
249.707294
 31
0.0
 11
111.267412
 21
249.679294
 31
0.0
 11
111.184120
 21
249.693294
 31
0.0
 11
111.011111
 21
250.004887
 31
0.0
 11
110.822589
 21
250.450780
 31
0.0
 11
110.649580
 21
250.762372
 31
0.0
 11
110.403333
 21
250.955757
 31
0.0
 11
110.076114
 21
251.230110
 31
0.0
 11
109.847780
 21
251.564182
 31
0.0
 11
109.835269
 21
251.740329
 31
0.0
 11
109.860291
 21
251.922572
 31
0.0
 11
109.847780
 21
252.098719
 31
0.0
 11
109.531104
 21
252.542453
 31
0.0
 11
109.108202
 21
252.829738
 31
0.0
 11
108.778700
 21
253.167797
 31
0.0
 11
108.613324
 21
253.429255
 31
0.0
 11
108.416389
 21
253.694439
 31
0.0
 11
108.244160
 21
253.969607
 31
0.0
 11
108.236736
 21
254.151023
 31
0.0
 11
108.282444
 21
254.344980
 31
0.0
 11
108.244160
 21
254.504147
 31
0.0
 11
108.069277
 21
254.520644
 31
0.0
 11
107.914193
 21
254.517344
 31
0.0
 11
107.976890
 21
254.771416
 31
0.0
 11
108.789652
 21
255.334316
 31
0.0
 11
110.158618
 21
255.940540
 31
0.0
 11
111.184120
 21
256.375031
 31
0.0
 11
111.645821
 21
256.699736
 31
0.0
 11
112.080382
 21
257.099962
 31
0.0
 11
112.520470
 21
257.444110
 31
0.0
 11
113.301744
 21
257.903733
 31
0.0
 11
114.102456
 21
258.351263
 31
0.0
 11
114.925890
 21
258.780459
 31
0.0
 11
116.115046
 21
259.652206
 31
0.0
 11
117.549734
 21
260.943688
 31
0.0
 11
118.133130
 21
261.720422
 31
0.0
 11
116.977755
 21
261.831781
 31
0.0
 11
114.809435
 21
262.005786
 31
0.0
 11
113.322280
 21
262.254962
 31
0.0
 11
112.811498
 21
262.302476
 31
0.0
 11
112.229442
 21
262.207448
 31
0.0
 11
111.718660
 21
262.254962
 31
0.0
 11
111.508461
 21
262.409038
 31
0.0
 11
111.207189
 21
262.578953
 31
0.0
 11
110.916850
 21
262.522231
 31
0.0
 11
110.896977
 21
261.878729
 31
0.0
 11
110.877957
 21
260.701541
 31
0.0
 11
110.382310
 21
259.582266
 31
0.0
 11
109.853860
 21
259.279712
 31
0.0
 11
109.128573
 21
259.017897
 31
0.0
 11
108.511430
 21
258.780459
 31
0.0
 11
108.256036
 21
258.756701
 31
0.0
 11
107.965008
 21
258.804216
 31
0.0
 11
107.709620
 21
258.780459
 31
0.0
 11
107.268854
 21
258.517578
 31
0.0
 11
107.510236
 21
258.506682
 31
0.0
 11
107.442350
 21
258.245919
 31
0.0
 11
107.204773
 21
258.216222
 31
0.0
 11
106.878110
 21
258.275615
 31
0.0
 11
106.640540
 21
258.245919
 31
0.0
 11
106.626540
 21
258.162626
 31
0.0
 11
106.654540
 21
258.061940
 31
0.0
 11
106.640540
 21
257.978650
 31
0.0
 11
106.528441
 21
258.015032
 31
0.0
 11
106.450856
 21
258.264110
 31
0.0
 11
106.373270
 21
258.513188
 31
0.0
 11
106.300289
 21
258.534601
 31
0.0
 11
106.194448
 21
258.502895
 31
0.0
 11
106.106000
 21
258.513188
 31
0.0
 11
106.054818
 21
258.809896
 31
0.0
 11
106.104142
 21
259.243668
 31
0.0
 11
106.106000
 21
259.582266
 31
0.0
 11
105.908000
 21
260.037680
 31
0.0
 11
105.769460
 21
260.195930
 31
0.0
 11
105.571460
 21
260.651344
 31
0.0
 11
105.576413
 21
261.586712
 31
0.0
 11
105.714947
 21
262.774665
 31
0.0
 11
105.571460
 21
263.591309
 31
0.0
 11
104.478388
 21
263.703726
 31
0.0
 11
102.976152
 21
263.334407
 31
0.0
 11
102.096960
 21
263.056771
 31
0.0
 11
101.566251
 21
263.014273
 31
0.0
 11
101.029796
 21
263.035522
 31
0.0
 11
100.493340
 21
263.056771
 31
0.0
  0
LWPOLYLINE
  5
10f
100
AcDbEntity
  8
Vrstva_1
 62
7
100
AcDbPolyline
 90
1
 70
1
 10
82.853553
 20
260.918615
 30
0.0
  0
ENDSEC
  0
SECTION
  2
OBJECTS
  0
DICTIONARY
  5
C
330
0
100
AcDbDictionary
  3
ACAD_GROUP
350
D
  3
ACAD_MLINESTYLE
350
17
  0
DICTIONARY
  5
D
330
C
100
AcDbDictionary
  0
DICTIONARY
  5
1A
330
C
100
AcDbDictionary
  0
DICTIONARY
  5
17
330
C
100
AcDbDictionary
  3
STANDARD
350
18
  0
DICTIONARY
  5
19
330
C
100
AcDbDictionary
  0
ENDSEC
  0
EOF
