999
"DXF R12 Output" (www.mydxf.blogspot.com)
 0 
SECTION
 2 
HEADER
 9 
$ACADVER
 1 
AC1009
 9 
$EXTMIN
 10 
 0 
 20 
 0 
 9 
$EXTMAX
 10 
 8.5 
 20 
 11 
 0 
ENDSEC
 0 
SECTION
 2 
ENTITIES
0
LINE
8
Vrstva 1
10
10.050400
20
2.389460
11
9.873534
21
2.528482
0
LINE
8
Vrstva 1
10
9.873534
20
2.528482
11
9.767224
21
2.626906
0
LINE
8
Vrstva 1
10
9.767224
20
2.626906
11
9.732423
21
2.615984
0
LINE
8
Vrstva 1
10
9.732423
20
2.615984
11
9.690567
21
2.600482
0
LINE
8
Vrstva 1
10
9.690567
20
2.600482
11
9.549456
21
2.557201
0
LINE
8
Vrstva 1
10
9.549456
20
2.557201
11
9.316809
21
2.620129
0
LINE
8
Vrstva 1
10
9.316809
20
2.620129
11
9.233359
21
2.666760
0
LINE
8
Vrstva 1
10
9.233359
20
2.666760
11
9.181673
21
2.611931
0
LINE
8
Vrstva 1
10
9.181673
20
2.611931
11
8.928280
21
2.420221
0
LINE
8
Vrstva 1
10
8.928280
20
2.420221
11
8.857831
21
2.424929
0
LINE
8
Vrstva 1
10
8.857831
20
2.424929
11
8.778168
21
2.537164
0
LINE
8
Vrstva 1
10
8.778168
20
2.537164
11
8.758526
21
2.590331
0
LINE
8
Vrstva 1
10
8.758526
20
2.590331
11
8.700371
21
2.560425
0
LINE
8
Vrstva 1
10
8.700371
20
2.560425
11
8.529934
21
2.470365
0
LINE
8
Vrstva 1
10
8.529934
20
2.470365
11
8.478877
21
2.447195
0
LINE
8
Vrstva 1
10
8.478877
20
2.447195
11
8.369330
21
2.454070
0
LINE
8
Vrstva 1
10
8.369330
20
2.454070
11
8.318813
21
2.529582
0
LINE
8
Vrstva 1
10
8.318813
20
2.529582
11
8.295134
21
2.544142
0
LINE
8
Vrstva 1
10
8.295134
20
2.544142
11
8.133672
21
2.511067
0
LINE
8
Vrstva 1
10
8.133672
20
2.511067
11
7.990492
21
2.588381
0
LINE
8
Vrstva 1
10
7.990492
20
2.588381
11
7.982110
21
2.623561
0
LINE
8
Vrstva 1
10
7.982110
20
2.623561
11
7.894427
21
2.627623
0
LINE
8
Vrstva 1
10
7.894427
20
2.627623
11
7.739033
21
2.654027
0
LINE
8
Vrstva 1
10
7.739033
20
2.654027
11
7.687680
21
2.742025
0
LINE
8
Vrstva 1
10
7.687680
20
2.742025
11
7.685986
21
2.783062
0
LINE
8
Vrstva 1
10
7.685986
20
2.783062
11
7.654612
21
2.782243
0
LINE
8
Vrstva 1
10
7.654612
20
2.782243
11
7.499765
21
2.774101
0
LINE
8
Vrstva 1
10
7.499765
20
2.774101
11
6.448485
21
2.799374
0
LINE
8
Vrstva 1
10
6.448485
20
2.799374
11
6.279152
21
2.812709
0
LINE
8
Vrstva 1
10
6.279152
20
2.812709
11
6.099235
21
2.830455
0
LINE
8
Vrstva 1
10
6.099235
20
2.830455
11
5.958124
21
2.846277
0
LINE
8
Vrstva 1
10
5.958124
20
2.846277
11
5.668846
21
2.878989
0
LINE
8
Vrstva 1
10
5.668846
20
2.878989
11
5.534627
21
2.895315
0
LINE
8
Vrstva 1
10
5.534627
20
2.895315
11
5.438459
21
2.909356
0
LINE
8
Vrstva 1
10
5.438459
20
2.909356
11
5.384324
21
2.864720
0
LINE
8
Vrstva 1
10
5.384324
20
2.864720
11
5.262808
21
2.768973
0
LINE
8
Vrstva 1
10
5.262808
20
2.768973
11
5.150264
21
2.749973
0
LINE
8
Vrstva 1
10
5.150264
20
2.749973
11
5.015638
21
2.778272
0
LINE
8
Vrstva 1
10
5.015638
20
2.778272
11
4.654098
21
3.109890
0
LINE
8
Vrstva 1
10
4.654098
20
3.109890
11
4.594786
21
3.192629
0
LINE
8
Vrstva 1
10
4.594786
20
3.192629
11
4.557276
21
3.250919
0
LINE
8
Vrstva 1
10
4.557276
20
3.250919
11
4.266014
21
3.816481
0
LINE
8
Vrstva 1
10
4.266014
20
3.816481
11
4.183653
21
4.026715
0
LINE
8
Vrstva 1
10
4.183653
20
4.026715
11
4.163220
21
4.085157
0
LINE
8
Vrstva 1
10
4.163220
20
4.085157
11
4.120573
21
4.208588
0
LINE
8
Vrstva 1
10
4.120573
20
4.208588
11
4.077901
21
4.341505
0
LINE
8
Vrstva 1
10
4.077901
20
4.341505
11
3.936423
21
4.879821
0
LINE
8
Vrstva 1
10
3.936423
20
4.879821
11
3.920280
21
4.966217
0
LINE
8
Vrstva 1
10
3.920280
20
4.966217
11
3.898239
21
5.092488
0
LINE
8
Vrstva 1
10
3.898239
20
5.092488
11
3.876846
21
5.222083
0
LINE
8
Vrstva 1
10
3.876846
20
5.222083
11
3.859179
21
5.348354
0
LINE
8
Vrstva 1
10
3.859179
20
5.348354
11
3.843770
21
5.471045
0
LINE
8
Vrstva 1
10
3.843770
20
5.471045
11
3.844335
21
5.976389
0
LINE
8
Vrstva 1
10
3.844335
20
5.976389
11
4.000356
21
6.307369
0
LINE
8
Vrstva 1
10
4.000356
20
6.307369
11
4.052493
21
6.381788
0
LINE
8
Vrstva 1
10
4.052493
20
6.381788
11
4.126368
21
6.478363
0
LINE
8
Vrstva 1
10
4.126368
20
6.478363
11
4.195537
21
6.495647
0
LINE
8
Vrstva 1
10
4.195537
20
6.495647
11
4.259088
21
6.484886
0
LINE
8
Vrstva 1
10
4.259088
20
6.484886
11
4.380091
21
6.376186
0
LINE
8
Vrstva 1
10
4.380091
20
6.376186
11
4.421188
21
6.357407
0
LINE
8
Vrstva 1
10
4.421188
20
6.357407
11
4.522469
21
6.324456
0
LINE
8
Vrstva 1
10
4.522469
20
6.324456
11
4.644999
21
6.161477
0
LINE
8
Vrstva 1
10
4.644999
20
6.161477
11
4.797574
21
5.865854
0
LINE
8
Vrstva 1
10
4.797574
20
5.865854
11
4.852743
21
5.761142
0
LINE
8
Vrstva 1
10
4.852743
20
5.761142
11
4.938335
21
5.835297
0
LINE
8
Vrstva 1
10
4.938335
20
5.835297
11
5.235018
21
6.098457
0
LINE
8
Vrstva 1
10
5.235018
20
6.098457
11
5.664478
21
6.315338
0
LINE
8
Vrstva 1
10
5.664478
20
6.315338
11
5.746791
21
6.398402
0
LINE
8
Vrstva 1
10
5.746791
20
6.398402
11
5.916957
21
6.717404
0
LINE
8
Vrstva 1
10
5.916957
20
6.717404
11
6.187518
21
7.252782
0
LINE
8
Vrstva 1
10
6.187518
20
7.252782
11
6.194292
21
7.270762
0
LINE
8
Vrstva 1
10
6.194292
20
7.270762
11
6.258023
21
7.418542
0
LINE
8
Vrstva 1
10
6.258023
20
7.418542
11
6.279867
21
7.475032
0
LINE
8
Vrstva 1
10
6.279867
20
7.475032
11
6.373412
21
7.747513
0
LINE
8
Vrstva 1
10
6.373412
20
7.747513
11
6.466452
21
8.123005
0
LINE
8
Vrstva 1
10
6.466452
20
8.123005
11
6.522248
21
8.588216
0
LINE
8
Vrstva 1
10
6.522248
20
8.588216
11
6.526594
21
8.677935
0
LINE
8
Vrstva 1
10
6.526594
20
8.677935
11
6.433864
21
8.767655
0
LINE
8
Vrstva 1
10
6.433864
20
8.767655
11
6.109661
21
9.112257
0
LINE
8
Vrstva 1
10
6.109661
20
9.112257
11
6.042876
21
9.192522
0
LINE
8
Vrstva 1
10
6.042876
20
9.192522
11
5.860826
21
9.438888
0
LINE
8
Vrstva 1
10
5.860826
20
9.438888
11
5.633891
21
9.834317
0
LINE
8
Vrstva 1
10
5.633891
20
9.834317
11
5.510687
21
10.206486
0
LINE
8
Vrstva 1
10
5.510687
20
10.206486
11
5.485231
21
10.488935
0
LINE
8
Vrstva 1
10
5.485231
20
10.488935
11
5.492174
21
10.595269
0
LINE
8
Vrstva 1
10
5.492174
20
10.595269
11
5.531326
21
10.867750
0
LINE
8
Vrstva 1
10
5.531326
20
10.867750
11
5.658348
21
11.283117
0
LINE
8
Vrstva 1
10
5.658348
20
11.283117
11
5.682083
21
11.342930
0
LINE
8
Vrstva 1
10
5.682083
20
11.342930
11
5.746952
21
11.509077
0
LINE
8
Vrstva 1
10
5.746952
20
11.509077
11
5.864224
21
11.818110
0
LINE
8
Vrstva 1
10
5.864224
20
11.818110
11
5.901982
21
11.927767
0
LINE
8
Vrstva 1
10
5.901982
20
11.927767
11
6.082181
21
12.602323
0
LINE
8
Vrstva 1
10
6.082181
20
12.602323
11
6.456938
21
13.740653
0
LINE
8
Vrstva 1
10
6.456938
20
13.740653
11
6.505043
21
13.832258
0
LINE
8
Vrstva 1
10
6.505043
20
13.832258
11
6.504972
21
14.116145
0
LINE
8
Vrstva 1
10
6.504972
20
14.116145
11
6.603499
21
15.612905
0
LINE
8
Vrstva 1
10
6.603499
20
15.612905
11
6.638966
21
15.857141
0
LINE
8
Vrstva 1
10
6.638966
20
15.857141
11
6.667450
21
16.031595
0
LINE
8
Vrstva 1
10
6.667450
20
16.031595
11
6.681195
21
16.108023
0
LINE
8
Vrstva 1
10
6.681195
20
16.108023
11
6.705833
21
16.227649
0
LINE
8
Vrstva 1
10
6.705833
20
16.227649
11
6.780303
21
16.573234
0
LINE
8
Vrstva 1
10
6.780303
20
16.573234
11
6.805251
21
16.679568
0
LINE
8
Vrstva 1
10
6.805251
20
16.679568
11
6.827603
21
16.769287
0
LINE
8
Vrstva 1
10
6.827603
20
16.769287
11
6.854866
21
16.872298
0
LINE
8
Vrstva 1
10
6.854866
20
16.872298
11
6.872307
21
16.938757
0
LINE
8
Vrstva 1
10
6.872307
20
16.938757
11
6.889551
21
17.001893
0
LINE
8
Vrstva 1
10
6.889551
20
17.001893
11
6.914443
21
17.088289
0
LINE
8
Vrstva 1
10
6.914443
20
17.088289
11
6.936287
21
17.164717
0
LINE
8
Vrstva 1
10
6.936287
20
17.164717
11
6.956099
21
17.231175
0
LINE
8
Vrstva 1
10
6.956099
20
17.231175
11
6.988608
21
17.330863
0
LINE
8
Vrstva 1
10
6.988608
20
17.330863
11
7.038358
21
17.480395
0
LINE
8
Vrstva 1
10
7.038358
20
17.480395
11
7.073622
21
17.590052
0
LINE
8
Vrstva 1
10
7.073622
20
17.590052
11
7.083584
21
17.616635
0
LINE
8
Vrstva 1
10
7.083584
20
17.616635
11
7.111552
21
17.689739
0
LINE
8
Vrstva 1
10
7.111552
20
17.689739
11
7.229721
21
18.002095
0
LINE
8
Vrstva 1
10
7.229721
20
18.002095
11
7.256589
21
18.068554
0
LINE
8
Vrstva 1
10
7.256589
20
18.068554
11
7.291533
21
18.151628
0
LINE
8
Vrstva 1
10
7.291533
20
18.151628
11
7.327223
21
18.234701
0
LINE
8
Vrstva 1
10
7.327223
20
18.234701
11
7.422256
21
18.447670
0
LINE
8
Vrstva 1
10
7.422256
20
18.447670
11
7.454534
21
18.515235
0
LINE
8
Vrstva 1
10
7.454534
20
18.515235
11
7.512561
21
18.633454
0
LINE
8
Vrstva 1
10
7.512561
20
18.633454
11
7.799586
21
19.161801
0
LINE
8
Vrstva 1
10
7.799586
20
19.161801
11
7.874031
21
19.281427
0
LINE
8
Vrstva 1
10
7.874031
20
19.281427
11
8.168439
21
19.704384
0
LINE
8
Vrstva 1
10
8.168439
20
19.704384
11
8.242581
21
19.795131
0
LINE
8
Vrstva 1
10
8.242581
20
19.795131
11
8.448668
21
19.999057
0
LINE
8
Vrstva 1
10
8.448668
20
19.999057
11
8.561131
21
20.045702
0
LINE
8
Vrstva 1
10
8.561131
20
20.045702
11
8.618340
21
20.024733
0
LINE
8
Vrstva 1
10
8.618340
20
20.024733
11
8.684016
21
19.899494
0
LINE
8
Vrstva 1
10
8.684016
20
19.899494
11
8.743035
21
19.404376
0
LINE
8
Vrstva 1
10
8.743035
20
19.404376
11
8.743142
21
17.789426
0
LINE
8
Vrstva 1
10
8.743142
20
17.789426
11
8.730837
21
17.503653
0
LINE
8
Vrstva 1
10
8.730837
20
17.503653
11
8.720564
21
17.287662
0
LINE
8
Vrstva 1
10
8.720564
20
17.287662
11
8.706989
21
17.021827
0
LINE
8
Vrstva 1
10
8.706989
20
17.021827
11
8.678166
21
16.569908
0
LINE
8
Vrstva 1
10
8.678166
20
16.569908
11
8.667498
21
16.420376
0
LINE
8
Vrstva 1
10
8.667498
20
16.420376
11
8.656858
21
16.287458
0
LINE
8
Vrstva 1
10
8.656858
20
16.287458
11
8.642888
21
16.134603
0
LINE
8
Vrstva 1
10
8.642888
20
16.134603
11
8.628636
21
15.991717
0
LINE
8
Vrstva 1
10
8.628636
20
15.991717
11
8.614271
21
15.862122
0
LINE
8
Vrstva 1
10
8.614271
20
15.862122
11
8.600414
21
15.735851
0
LINE
8
Vrstva 1
10
8.600414
20
15.735851
11
8.565153
21
15.463370
0
LINE
8
Vrstva 1
10
8.565153
20
15.463370
11
8.551239
21
15.373650
0
LINE
8
Vrstva 1
10
8.551239
20
15.373650
11
8.503945
21
15.121107
0
LINE
8
Vrstva 1
10
8.503945
20
15.121107
11
8.477670
21
14.988190
0
LINE
8
Vrstva 1
10
8.477670
20
14.988190
11
8.565246
21
14.983810
0
LINE
8
Vrstva 1
10
8.565246
20
14.983810
11
8.819246
21
15.015357
0
LINE
8
Vrstva 1
10
8.819246
20
15.015357
11
10.099826
21
15.017530
0
LINE
8
Vrstva 1
10
10.099826
20
15.017530
11
10.653687
21
14.958884
0
LINE
8
Vrstva 1
10
10.653687
20
14.958884
11
11.253409
21
14.855107
0
LINE
8
Vrstva 1
10
11.253409
20
14.855107
11
11.606187
21
14.772137
0
LINE
8
Vrstva 1
10
11.606187
20
14.772137
11
11.754354
21
14.728768
0
LINE
8
Vrstva 1
10
11.754354
20
14.728768
11
11.898465
21
14.685005
0
LINE
8
Vrstva 1
10
11.898465
20
14.685005
11
11.968013
21
14.661363
0
LINE
8
Vrstva 1
10
11.968013
20
14.661363
11
12.028513
21
14.638556
0
LINE
8
Vrstva 1
10
12.028513
20
14.638556
11
12.052671
21
14.629350
0
LINE
8
Vrstva 1
10
12.052671
20
14.629350
11
12.139220
21
14.595373
0
LINE
8
Vrstva 1
10
12.139220
20
14.595373
11
12.220260
21
14.561436
0
LINE
8
Vrstva 1
10
12.220260
20
14.561436
11
12.264236
21
14.587818
0
LINE
8
Vrstva 1
10
12.264236
20
14.587818
11
12.678631
21
14.813484
0
LINE
8
Vrstva 1
10
12.678631
20
14.813484
11
12.777409
21
14.863376
0
LINE
8
Vrstva 1
10
12.777409
20
14.863376
11
13.101964
21
15.021302
0
LINE
8
Vrstva 1
10
13.101964
20
15.021302
11
14.290824
21
15.487621
0
LINE
8
Vrstva 1
10
14.290824
20
15.487621
11
14.700046
21
15.618113
0
LINE
8
Vrstva 1
10
14.700046
20
15.618113
11
15.102212
21
15.731602
0
LINE
8
Vrstva 1
10
15.102212
20
15.731602
11
15.190406
21
15.755396
0
LINE
8
Vrstva 1
10
15.190406
20
15.755396
11
15.719572
21
15.881961
0
LINE
8
Vrstva 1
10
15.719572
20
15.881961
11
15.828933
21
15.905800
0
LINE
8
Vrstva 1
10
15.828933
20
15.905800
11
15.941822
21
15.928984
0
LINE
8
Vrstva 1
10
15.941822
20
15.928984
11
16.093516
21
15.959340
0
LINE
8
Vrstva 1
10
16.093516
20
15.959340
11
16.195821
21
15.978782
0
LINE
8
Vrstva 1
10
16.195821
20
15.978782
11
16.287543
21
15.994993
0
LINE
8
Vrstva 1
10
16.287543
20
15.994993
11
16.386321
21
16.012355
0
LINE
8
Vrstva 1
10
16.386321
20
16.012355
11
16.460404
21
16.024844
0
LINE
8
Vrstva 1
10
16.460404
20
16.024844
11
16.675598
21
16.058874
0
LINE
8
Vrstva 1
10
16.675598
20
16.058874
11
16.883737
21
16.087288
0
LINE
8
Vrstva 1
10
16.883737
20
16.087288
11
17.046015
21
16.107467
0
LINE
8
Vrstva 1
10
17.046015
20
16.107467
11
17.501098
21
16.151222
0
LINE
8
Vrstva 1
10
17.501098
20
16.151222
11
18.418320
21
16.155278
0
LINE
8
Vrstva 1
10
18.418320
20
16.155278
11
18.664460
21
16.078997
0
LINE
8
Vrstva 1
10
18.664460
20
16.078997
11
18.681281
21
16.029233
0
LINE
8
Vrstva 1
10
18.681281
20
16.029233
11
18.655627
21
15.968733
0
LINE
8
Vrstva 1
10
18.655627
20
15.968733
11
18.633529
21
15.934491
0
LINE
8
Vrstva 1
10
18.633529
20
15.934491
11
18.502826
21
15.782165
0
LINE
8
Vrstva 1
10
18.502826
20
15.782165
11
18.217251
21
15.520481
0
LINE
8
Vrstva 1
10
18.217251
20
15.520481
11
18.122001
21
15.444592
0
LINE
8
Vrstva 1
10
18.122001
20
15.444592
11
17.839779
21
15.243489
0
LINE
8
Vrstva 1
10
17.839779
20
15.243489
11
17.751584
21
15.184870
0
LINE
8
Vrstva 1
10
17.751584
20
15.184870
11
17.495936
21
15.024738
0
LINE
8
Vrstva 1
10
17.495936
20
15.024738
11
17.316564
21
14.916742
0
LINE
8
Vrstva 1
10
17.316564
20
14.916742
11
17.268135
21
14.888498
0
LINE
8
Vrstva 1
10
17.268135
20
14.888498
11
17.202939
21
14.852786
0
LINE
8
Vrstva 1
10
17.202939
20
14.852786
11
16.922557
21
14.697211
0
LINE
8
Vrstva 1
10
16.922557
20
14.697211
11
16.816724
21
14.640875
0
LINE
8
Vrstva 1
10
16.816724
20
14.640875
11
16.725002
21
14.592777
0
LINE
8
Vrstva 1
10
16.725002
20
14.592777
11
16.538030
21
14.498162
0
LINE
8
Vrstva 1
10
16.538030
20
14.498162
11
16.432197
21
14.445152
0
LINE
8
Vrstva 1
10
16.432197
20
14.445152
11
16.238169
21
14.350312
0
LINE
8
Vrstva 1
10
16.238169
20
14.350312
11
16.072364
21
14.269776
0
LINE
8
Vrstva 1
10
16.072364
20
14.269776
11
15.440892
21
13.984740
0
LINE
8
Vrstva 1
10
15.440892
20
13.984740
11
15.081059
21
13.835242
0
LINE
8
Vrstva 1
10
15.081059
20
13.835242
11
14.901142
21
13.761758
0
LINE
8
Vrstva 1
10
14.901142
20
13.761758
11
14.714170
21
13.688929
0
LINE
8
Vrstva 1
10
14.714170
20
13.688929
11
14.566003
21
13.632571
0
LINE
8
Vrstva 1
10
14.566003
20
13.632571
11
14.340225
21
13.549417
0
LINE
8
Vrstva 1
10
14.340225
20
13.549417
11
14.227336
21
13.508244
0
LINE
8
Vrstva 1
10
14.227336
20
13.508244
11
14.121503
21
13.471088
0
LINE
8
Vrstva 1
10
14.121503
20
13.471088
11
14.005086
21
13.431084
0
LINE
8
Vrstva 1
10
14.005086
20
13.431084
11
13.576710
21
13.290261
0
LINE
8
Vrstva 1
10
13.576710
20
13.290261
11
13.451683
21
13.247661
0
LINE
8
Vrstva 1
10
13.451683
20
13.247661
11
13.462605
21
13.196414
0
LINE
8
Vrstva 1
10
13.462605
20
13.196414
11
13.483066
21
13.130663
0
LINE
8
Vrstva 1
10
13.483066
20
13.130663
11
13.500394
21
13.074174
0
LINE
8
Vrstva 1
10
13.500394
20
13.074174
11
13.518089
21
13.007715
0
LINE
8
Vrstva 1
10
13.518089
20
13.007715
11
13.542615
21
12.898058
0
LINE
8
Vrstva 1
10
13.542615
20
12.898058
11
13.603507
21
12.582379
0
LINE
8
Vrstva 1
10
13.603507
20
12.582379
11
13.663741
21
11.949112
0
LINE
8
Vrstva 1
10
13.663741
20
11.949112
11
13.674946
21
11.860455
0
LINE
8
Vrstva 1
10
13.674946
20
11.860455
11
13.703831
21
11.866647
0
LINE
8
Vrstva 1
10
13.703831
20
11.866647
11
13.758156
21
11.889817
0
LINE
8
Vrstva 1
10
13.758156
20
11.889817
11
13.895739
21
11.947585
0
LINE
8
Vrstva 1
10
13.895739
20
11.947585
11
14.132100
21
12.044196
0
LINE
8
Vrstva 1
10
14.132100
20
12.044196
11
14.256899
21
12.094671
0
LINE
8
Vrstva 1
10
14.256899
20
12.094671
11
14.300330
21
12.110520
0
LINE
8
Vrstva 1
10
14.300330
20
12.110520
11
14.334281
21
12.123186
0
LINE
8
Vrstva 1
10
14.334281
20
12.123186
11
14.417850
21
12.155929
0
LINE
8
Vrstva 1
10
14.417850
20
12.155929
11
14.558961
21
12.206788
0
LINE
8
Vrstva 1
10
14.558961
20
12.206788
11
14.664794
21
12.244497
0
LINE
8
Vrstva 1
10
14.664794
20
12.244497
11
14.700072
21
12.256867
0
LINE
8
Vrstva 1
10
14.700072
20
12.256867
11
14.767100
21
12.279990
0
LINE
8
Vrstva 1
10
14.767100
20
12.279990
11
14.834127
21
12.303205
0
LINE
8
Vrstva 1
10
14.834127
20
12.303205
11
15.409154
21
12.484845
0
LINE
8
Vrstva 1
10
15.409154
20
12.484845
11
15.712543
21
12.573574
0
LINE
8
Vrstva 1
10
15.712543
20
12.573574
11
15.793682
21
12.595754
0
LINE
8
Vrstva 1
10
15.793682
20
12.595754
11
15.839543
21
12.607808
0
LINE
8
Vrstva 1
10
15.839543
20
12.607808
11
15.920682
21
12.628757
0
LINE
8
Vrstva 1
10
15.920682
20
12.628757
11
16.014168
21
12.652797
0
LINE
8
Vrstva 1
10
16.014168
20
12.652797
11
16.091779
21
12.672628
0
LINE
8
Vrstva 1
10
16.091779
20
12.672628
11
16.446320
21
12.757779
0
LINE
8
Vrstva 1
10
16.446320
20
12.757779
11
16.608598
21
12.794221
0
LINE
8
Vrstva 1
10
16.608598
20
12.794221
11
16.735598
21
12.820877
0
LINE
8
Vrstva 1
10
16.735598
20
12.820877
11
16.859070
21
12.844741
0
LINE
8
Vrstva 1
10
16.859070
20
12.844741
11
17.716319
21
12.990964
0
LINE
8
Vrstva 1
10
17.716319
20
12.990964
11
17.977374
21
13.024288
0
LINE
8
Vrstva 1
10
17.977374
20
13.024288
11
18.125541
21
13.041430
0
LINE
8
Vrstva 1
10
18.125541
20
13.041430
11
18.471263
21
13.073300
0
LINE
8
Vrstva 1
10
18.471263
20
13.073300
11
19.051159
21
13.107663
0
LINE
8
Vrstva 1
10
19.051159
20
13.107663
11
19.298103
21
13.105377
0
LINE
8
Vrstva 1
10
19.298103
20
13.105377
11
19.247484
21
12.721954
0
LINE
8
Vrstva 1
10
19.247484
20
12.721954
11
19.201973
21
12.599005
0
LINE
8
Vrstva 1
10
19.201973
20
12.599005
11
19.155623
21
12.482702
0
LINE
8
Vrstva 1
10
19.155623
20
12.482702
11
19.116567
21
12.386336
0
LINE
8
Vrstva 1
10
19.116567
20
12.386336
11
19.072901
21
12.280002
0
LINE
8
Vrstva 1
10
19.072901
20
12.280002
11
18.993284
21
12.090595
0
LINE
8
Vrstva 1
10
18.993284
20
12.090595
11
18.925533
21
11.932559
0
LINE
8
Vrstva 1
10
18.925533
20
11.932559
11
18.908713
21
11.893688
0
LINE
8
Vrstva 1
10
18.908713
20
11.893688
11
18.899033
21
11.868963
0
LINE
8
Vrstva 1
10
18.899033
20
11.868963
11
18.870195
21
11.804823
0
LINE
8
Vrstva 1
10
18.870195
20
11.804823
11
18.841070
21
11.740683
0
LINE
8
Vrstva 1
10
18.841070
20
11.740683
11
18.831108
21
11.715957
0
LINE
8
Vrstva 1
10
18.831108
20
11.715957
11
18.812820
21
11.673763
0
LINE
8
Vrstva 1
10
18.812820
20
11.673763
11
18.718321
21
11.469206
0
LINE
8
Vrstva 1
10
18.718321
20
11.469206
11
18.671119
21
11.366195
0
LINE
8
Vrstva 1
10
18.671119
20
11.366195
11
18.614666
21
11.246569
0
LINE
8
Vrstva 1
10
18.614666
20
11.246569
11
18.556458
21
11.123620
0
LINE
8
Vrstva 1
10
18.556458
20
11.123620
11
18.510049
21
11.027255
0
LINE
8
Vrstva 1
10
18.510049
20
11.027255
11
18.077614
21
10.193198
0
LINE
8
Vrstva 1
10
18.077614
20
10.193198
11
17.885658
21
9.867293
0
LINE
8
Vrstva 1
10
17.885658
20
9.867293
11
17.826894
21
9.770928
0
LINE
8
Vrstva 1
10
17.826894
20
9.770928
11
17.801099
21
9.731310
0
LINE
8
Vrstva 1
10
17.801099
20
9.731310
11
17.766323
21
9.677466
0
LINE
8
Vrstva 1
10
17.766323
20
9.677466
11
17.641493
21
9.512284
0
LINE
8
Vrstva 1
10
17.641493
20
9.512284
11
17.615868
21
9.491103
0
LINE
8
Vrstva 1
10
17.615868
20
9.491103
11
17.547897
21
9.494778
0
LINE
8
Vrstva 1
10
17.547897
20
9.494778
11
16.246197
21
9.495314
0
LINE
8
Vrstva 1
10
16.246197
20
9.495314
11
16.027475
21
9.488789
0
LINE
8
Vrstva 1
10
16.027475
20
9.488789
11
15.772487
21
9.478787
0
LINE
8
Vrstva 1
10
15.772487
20
9.478787
11
15.518487
21
9.468063
0
LINE
8
Vrstva 1
10
15.518487
20
9.468063
11
15.349154
21
9.461778
0
LINE
8
Vrstva 1
10
15.349154
20
9.461778
11
14.989321
21
9.441037
0
LINE
8
Vrstva 1
10
14.989321
20
9.441037
11
14.891497
21
9.430810
0
LINE
8
Vrstva 1
10
14.891497
20
9.430810
11
14.943460
21
9.196306
0
LINE
8
Vrstva 1
10
14.943460
20
9.196306
11
14.984617
21
9.070034
0
LINE
8
Vrstva 1
10
14.984617
20
9.070034
11
15.020097
21
8.957054
0
LINE
8
Vrstva 1
10
15.020097
20
8.957054
11
15.060150
21
8.827459
0
LINE
8
Vrstva 1
10
15.060150
20
8.827459
11
15.093509
21
8.717802
0
LINE
8
Vrstva 1
10
15.093509
20
8.717802
11
15.106717
21
8.684904
0
LINE
8
Vrstva 1
10
15.106717
20
8.684904
11
15.112785
21
8.663619
0
LINE
8
Vrstva 1
10
15.112785
20
8.663619
11
15.119360
21
8.633380
0
LINE
8
Vrstva 1
10
15.119360
20
8.633380
11
15.215025
21
8.332341
0
LINE
8
Vrstva 1
10
15.215025
20
8.332341
11
15.243366
21
8.239299
0
LINE
8
Vrstva 1
10
15.243366
20
8.239299
11
15.272694
21
8.142934
0
LINE
8
Vrstva 1
10
15.272694
20
8.142934
11
15.289176
21
8.089767
0
LINE
8
Vrstva 1
10
15.289176
20
8.089767
11
15.306279
21
8.033277
0
LINE
8
Vrstva 1
10
15.306279
20
8.033277
11
15.331905
21
7.946881
0
LINE
8
Vrstva 1
10
15.331905
20
7.946881
11
15.352507
21
7.877099
0
LINE
8
Vrstva 1
10
15.352507
20
7.877099
11
15.377766
21
7.790703
0
LINE
8
Vrstva 1
10
15.377766
20
7.790703
11
15.407097
21
7.691015
0
LINE
8
Vrstva 1
10
15.407097
20
7.691015
11
15.430296
21
7.614588
0
LINE
8
Vrstva 1
10
15.430296
20
7.614588
11
15.447765
21
7.551452
0
LINE
8
Vrstva 1
10
15.447765
20
7.551452
11
15.459026
21
7.508253
0
LINE
8
Vrstva 1
10
15.459026
20
7.508253
11
15.493762
21
7.368508
0
LINE
8
Vrstva 1
10
15.493762
20
7.368508
11
15.465006
21
7.316636
0
LINE
8
Vrstva 1
10
15.465006
20
7.316636
11
15.418366
21
7.289224
0
LINE
8
Vrstva 1
10
15.418366
20
7.289224
11
15.371275
21
7.272708
0
LINE
8
Vrstva 1
10
15.371275
20
7.272708
11
15.236235
21
7.226120
0
LINE
8
Vrstva 1
10
15.236235
20
7.226120
11
15.095124
21
7.179251
0
LINE
8
Vrstva 1
10
15.095124
20
7.179251
11
14.975180
21
7.138943
0
LINE
8
Vrstva 1
10
14.975180
20
7.138943
11
14.227120
21
6.878277
0
LINE
8
Vrstva 1
10
14.227120
20
6.878277
11
14.022746
21
6.778382
0
LINE
8
Vrstva 1
10
14.022746
20
6.778382
11
13.912027
21
6.476876
0
LINE
8
Vrstva 1
10
13.912027
20
6.476876
11
13.890662
21
6.415795
0
LINE
8
Vrstva 1
10
13.890662
20
6.415795
11
13.919393
21
6.357250
0
LINE
8
Vrstva 1
10
13.919393
20
6.357250
11
13.948120
21
6.298704
0
LINE
8
Vrstva 1
10
13.948120
20
6.298704
11
14.035231
21
6.294654
0
LINE
8
Vrstva 1
10
14.035231
20
6.294654
11
14.399100
21
6.202503
0
LINE
8
Vrstva 1
10
14.399100
20
6.202503
11
14.679115
21
5.977962
0
LINE
8
Vrstva 1
10
14.679115
20
5.977962
11
14.713882
21
5.945212
0
LINE
8
Vrstva 1
10
14.713882
20
5.945212
11
14.749941
21
5.986828
0
LINE
8
Vrstva 1
10
14.749941
20
5.986828
11
15.052951
21
6.328611
0
LINE
8
Vrstva 1
10
15.052951
20
6.328611
11
15.132797
21
6.406253
0
LINE
8
Vrstva 1
10
15.132797
20
6.406253
11
15.297942
21
6.494757
0
LINE
8
Vrstva 1
10
15.297942
20
6.494757
11
15.414689
21
6.430162
0
LINE
8
Vrstva 1
10
15.414689
20
6.430162
11
15.454920
21
6.300257
0
LINE
8
Vrstva 1
10
15.454920
20
6.300257
11
15.480376
21
6.245190
0
LINE
8
Vrstva 1
10
15.480376
20
6.245190
11
15.562732
21
6.123038
0
LINE
8
Vrstva 1
10
15.562732
20
6.123038
11
15.581753
21
5.893307
0
LINE
8
Vrstva 1
10
15.581753
20
5.893307
11
15.572835
21
5.660702
0
LINE
8
Vrstva 1
10
15.572835
20
5.660702
11
15.542894
21
5.474618
0
LINE
8
Vrstva 1
10
15.542894
20
5.474618
11
15.500135
21
5.245335
0
LINE
8
Vrstva 1
10
15.500135
20
5.245335
11
15.487209
21
5.182199
0
LINE
8
Vrstva 1
10
15.487209
20
5.182199
11
15.472646
21
5.122386
0
LINE
8
Vrstva 1
10
15.472646
20
5.122386
11
15.458535
21
5.065896
0
LINE
8
Vrstva 1
10
15.458535
20
5.065896
11
15.441602
21
4.999437
0
LINE
8
Vrstva 1
10
15.441602
20
4.999437
11
15.331914
21
4.613976
0
LINE
8
Vrstva 1
10
15.331914
20
4.613976
11
15.287938
21
4.477736
0
LINE
8
Vrstva 1
10
15.287938
20
4.477736
11
14.974869
21
3.694408
0
LINE
8
Vrstva 1
10
14.974869
20
3.694408
11
14.964596
21
3.672556
0
LINE
8
Vrstva 1
10
14.964596
20
3.672556
11
14.731763
21
3.243634
0
LINE
8
Vrstva 1
10
14.731763
20
3.243634
11
14.690172
21
3.175762
0
LINE
8
Vrstva 1
10
14.690172
20
3.175762
11
14.560310
21
2.996585
0
LINE
8
Vrstva 1
10
14.560310
20
2.996585
11
14.362949
21
2.787782
0
LINE
8
Vrstva 1
10
14.362949
20
2.787782
11
14.128936
21
2.663647
0
LINE
8
Vrstva 1
10
14.128936
20
2.663647
11
13.937688
21
2.732596
0
LINE
8
Vrstva 1
10
13.937688
20
2.732596
11
13.902083
21
2.767431
0
LINE
8
Vrstva 1
10
13.902083
20
2.767431
11
13.856549
21
2.747205
0
LINE
8
Vrstva 1
10
13.856549
20
2.747205
11
13.588763
21
2.667019
0
LINE
8
Vrstva 1
10
13.588763
20
2.667019
11
13.511152
21
2.653085
0
LINE
8
Vrstva 1
10
13.511152
20
2.653085
11
11.987152
21
2.673064
0
LINE
8
Vrstva 1
10
11.987152
20
2.673064
11
11.481850
21
2.698077
0
LINE
8
Vrstva 1
10
11.481850
20
2.698077
11
11.493647
21
2.647157
0
LINE
8
Vrstva 1
10
11.493647
20
2.647157
11
11.506093
21
2.556733
0
LINE
8
Vrstva 1
10
11.506093
20
2.556733
11
11.475489
21
2.487151
0
LINE
8
Vrstva 1
10
11.475489
20
2.487151
11
11.419770
21
2.453320
0
LINE
8
Vrstva 1
10
11.419770
20
2.453320
11
11.152249
21
2.514586
0
LINE
8
Vrstva 1
10
11.152249
20
2.514586
11
11.090778
21
2.540466
0
LINE
8
Vrstva 1
10
11.090778
20
2.540466
11
11.046528
21
2.484947
0
LINE
8
Vrstva 1
10
11.046528
20
2.484947
11
10.975296
21
2.414467
0
LINE
8
Vrstva 1
10
10.975296
20
2.414467
11
10.918865
21
2.403678
0
LINE
8
Vrstva 1
10
10.918865
20
2.403678
11
10.778476
21
2.486138
0
LINE
8
Vrstva 1
10
10.778476
20
2.486138
11
10.736070
21
2.513883
0
LINE
8
Vrstva 1
10
10.736070
20
2.513883
11
10.696705
21
2.477410
0
LINE
8
Vrstva 1
10
10.696705
20
2.477410
11
10.575637
21
2.404670
0
LINE
8
Vrstva 1
10
10.575637
20
2.404670
11
10.372446
21
2.505576
0
LINE
8
Vrstva 1
10
10.372446
20
2.505576
11
10.299433
21
2.546867
0
LINE
8
Vrstva 1
10
10.299433
20
2.546867
11
10.241261
21
2.489960
0
LINE
8
Vrstva 1
10
10.241261
20
2.489960
11
10.050420
21
2.389436
0
LINE
8
Vrstva 1
10
10.050420
20
2.389436
11
10.050400
21
2.389460
0
LINE
8
Vrstva 1
10
10.115715
20
2.598642
11
10.172238
21
2.670085
0
LINE
8
Vrstva 1
10
10.172238
20
2.670085
11
10.274981
21
2.743166
0
LINE
8
Vrstva 1
10
10.274981
20
2.743166
11
10.413654
21
2.673488
0
LINE
8
Vrstva 1
10
10.413654
20
2.673488
11
10.563099
21
2.580366
0
LINE
8
Vrstva 1
10
10.563099
20
2.580366
11
10.607617
21
2.636323
0
LINE
8
Vrstva 1
10
10.607617
20
2.636323
11
10.668374
21
2.709427
0
LINE
8
Vrstva 1
10
10.668374
20
2.709427
11
10.819456
21
2.666997
0
LINE
8
Vrstva 1
10
10.819456
20
2.666997
11
10.874260
21
2.618902
0
LINE
8
Vrstva 1
10
10.874260
20
2.618902
11
10.952978
21
2.656060
0
LINE
8
Vrstva 1
10
10.952978
20
2.656060
11
11.036171
21
2.735210
0
LINE
8
Vrstva 1
10
11.036171
20
2.735210
11
11.096143
21
2.722126
0
LINE
8
Vrstva 1
10
11.096143
20
2.722126
11
11.266408
21
2.641283
0
LINE
8
Vrstva 1
10
11.266408
20
2.641283
11
11.297470
21
2.630180
0
LINE
8
Vrstva 1
10
11.297470
20
2.630180
11
11.267650
21
2.727457
0
LINE
8
Vrstva 1
10
11.267650
20
2.727457
11
11.189872
21
2.951614
0
LINE
8
Vrstva 1
10
11.189872
20
2.951614
11
11.324548
21
3.204085
0
LINE
8
Vrstva 1
10
11.324548
20
3.204085
11
11.352150
21
3.249310
0
LINE
8
Vrstva 1
10
11.352150
20
3.249310
11
11.378594
21
3.290337
0
LINE
8
Vrstva 1
10
11.378594
20
3.290337
11
11.413383
21
3.341477
0
LINE
8
Vrstva 1
10
11.413383
20
3.341477
11
11.524037
21
3.510789
0
LINE
8
Vrstva 1
10
11.524037
20
3.510789
11
11.644755
21
3.696873
0
LINE
8
Vrstva 1
10
11.644755
20
3.696873
11
11.671679
21
3.739835
0
LINE
8
Vrstva 1
10
11.671679
20
3.739835
11
11.771758
21
3.899573
0
LINE
8
Vrstva 1
10
11.771758
20
3.899573
11
11.828587
21
3.989292
0
LINE
8
Vrstva 1
10
11.828587
20
3.989292
11
11.874168
21
4.065720
0
LINE
8
Vrstva 1
10
11.874168
20
4.065720
11
11.909519
21
4.125533
0
LINE
8
Vrstva 1
10
11.909519
20
4.125533
11
12.101738
21
4.453838
0
LINE
8
Vrstva 1
10
12.101738
20
4.453838
11
12.367814
21
4.962912
0
LINE
8
Vrstva 1
10
12.367814
20
4.962912
11
12.406634
21
5.039608
0
LINE
8
Vrstva 1
10
12.406634
20
5.039608
11
12.426841
21
5.082806
0
LINE
8
Vrstva 1
10
12.426841
20
5.082806
11
12.515552
21
5.281914
0
LINE
8
Vrstva 1
10
12.515552
20
5.281914
11
12.534066
21
5.325112
0
LINE
8
Vrstva 1
10
12.534066
20
5.325112
11
12.555063
21
5.374956
0
LINE
8
Vrstva 1
10
12.555063
20
5.374956
11
12.586486
21
5.451384
0
LINE
8
Vrstva 1
10
12.586486
20
5.451384
11
12.636913
21
5.574333
0
LINE
8
Vrstva 1
10
12.636913
20
5.574333
11
12.804869
21
6.072773
0
LINE
8
Vrstva 1
10
12.804869
20
6.072773
11
12.840548
21
6.192399
0
LINE
8
Vrstva 1
10
12.840548
20
6.192399
11
12.861799
21
6.268826
0
LINE
8
Vrstva 1
10
12.861799
20
6.268826
11
12.886550
21
6.358546
0
LINE
8
Vrstva 1
10
12.886550
20
6.358546
11
12.908817
21
6.448265
0
LINE
8
Vrstva 1
10
12.908817
20
6.448265
11
12.932806
21
6.524693
0
LINE
8
Vrstva 1
10
12.932806
20
6.524693
11
12.975252
21
6.544629
0
LINE
8
Vrstva 1
10
12.975252
20
6.544629
11
13.016629
21
6.527001
0
LINE
8
Vrstva 1
10
13.016629
20
6.527001
11
13.018040
21
6.394083
0
LINE
8
Vrstva 1
10
13.018040
20
6.394083
11
12.991285
21
6.189074
0
LINE
8
Vrstva 1
10
12.991285
20
6.189074
11
12.967325
21
6.065744
0
LINE
8
Vrstva 1
10
12.967325
20
6.065744
11
12.911512
21
5.856781
0
LINE
8
Vrstva 1
10
12.911512
20
5.856781
11
12.767968
21
5.451383
0
LINE
8
Vrstva 1
10
12.767968
20
5.451383
11
12.631237
21
5.129058
0
LINE
8
Vrstva 1
10
12.631237
20
5.129058
11
12.594314
21
5.049308
0
LINE
8
Vrstva 1
10
12.594314
20
5.049308
11
12.202999
21
4.295001
0
LINE
8
Vrstva 1
10
12.202999
20
4.295001
11
12.174918
21
4.248480
0
LINE
8
Vrstva 1
10
12.174918
20
4.248480
11
12.029342
21
3.999260
0
LINE
8
Vrstva 1
10
12.029342
20
3.999260
11
11.813840
21
3.653837
0
LINE
8
Vrstva 1
10
11.813840
20
3.653837
11
11.787170
21
3.610476
0
LINE
8
Vrstva 1
10
11.787170
20
3.610476
11
11.709102
21
3.489242
0
LINE
8
Vrstva 1
10
11.709102
20
3.489242
11
11.415600
21
3.038931
0
LINE
8
Vrstva 1
10
11.415600
20
3.038931
11
11.363079
21
2.924029
0
LINE
8
Vrstva 1
10
11.363079
20
2.924029
11
11.377867
21
2.884415
0
LINE
8
Vrstva 1
10
11.377867
20
2.884415
11
11.424642
21
2.865949
0
LINE
8
Vrstva 1
10
11.424642
20
2.865949
11
11.803697
21
2.846425
0
LINE
8
Vrstva 1
10
11.803697
20
2.846425
11
12.392835
21
2.806496
0
LINE
8
Vrstva 1
10
12.392835
20
2.806496
11
12.618613
21
2.792647
0
LINE
8
Vrstva 1
10
12.618613
20
2.792647
11
13.327696
21
2.795861
0
LINE
8
Vrstva 1
10
13.327696
20
2.795861
11
13.780199
21
2.892550
0
LINE
8
Vrstva 1
10
13.780199
20
2.892550
11
13.834801
21
2.979355
0
LINE
8
Vrstva 1
10
13.834801
20
2.979355
11
13.828790
21
3.394487
0
LINE
8
Vrstva 1
10
13.828790
20
3.394487
11
13.921612
21
3.737385
0
LINE
8
Vrstva 1
10
13.921612
20
3.737385
11
13.988547
21
3.728323
0
LINE
8
Vrstva 1
10
13.988547
20
3.728323
11
13.992159
21
3.397948
0
LINE
8
Vrstva 1
10
13.992159
20
3.397948
11
14.018463
21
2.931028
0
LINE
8
Vrstva 1
10
14.018463
20
2.931028
11
14.098193
21
2.819619
0
LINE
8
Vrstva 1
10
14.098193
20
2.819619
11
14.158608
21
2.841217
0
LINE
8
Vrstva 1
10
14.158608
20
2.841217
11
14.286037
21
2.938595
0
LINE
8
Vrstva 1
10
14.286037
20
2.938595
11
14.381287
21
3.035662
0
LINE
8
Vrstva 1
10
14.381287
20
3.035662
11
14.435389
21
3.105882
0
LINE
8
Vrstva 1
10
14.435389
20
3.105882
11
14.823992
21
3.760009
0
LINE
8
Vrstva 1
10
14.823992
20
3.760009
11
14.851819
21
3.819822
0
LINE
8
Vrstva 1
10
14.851819
20
3.819822
11
14.897452
21
3.922833
0
LINE
8
Vrstva 1
10
14.897452
20
3.922833
11
14.936528
21
4.012552
0
LINE
8
Vrstva 1
10
14.936528
20
4.012552
11
15.148480
21
4.594066
0
LINE
8
Vrstva 1
10
15.148480
20
4.594066
11
15.178729
21
4.690431
0
LINE
8
Vrstva 1
10
15.178729
20
4.690431
11
15.211230
21
4.800088
0
LINE
8
Vrstva 1
10
15.211230
20
4.800088
11
15.236714
21
4.889807
0
LINE
8
Vrstva 1
10
15.236714
20
4.889807
11
15.306392
21
5.172257
0
LINE
8
Vrstva 1
10
15.306392
20
5.172257
11
15.324821
21
5.252008
0
LINE
8
Vrstva 1
10
15.324821
20
5.252008
11
15.363074
21
5.438092
0
LINE
8
Vrstva 1
10
15.363074
20
5.438092
11
15.380966
21
5.547749
0
LINE
8
Vrstva 1
10
15.380966
20
5.547749
11
15.409076
21
5.807300
0
LINE
8
Vrstva 1
10
15.409076
20
5.807300
11
15.402020
21
5.816907
0
LINE
8
Vrstva 1
10
15.402020
20
5.816907
11
15.394965
21
5.808313
0
LINE
8
Vrstva 1
10
15.394965
20
5.808313
11
15.319524
21
5.607561
0
LINE
8
Vrstva 1
10
15.319524
20
5.607561
11
15.167398
21
5.431445
0
LINE
8
Vrstva 1
10
15.167398
20
5.431445
11
15.114955
21
5.480024
0
LINE
8
Vrstva 1
10
15.114955
20
5.480024
11
15.137702
21
5.541102
0
LINE
8
Vrstva 1
10
15.137702
20
5.541102
11
15.162453
21
5.607561
0
LINE
8
Vrstva 1
10
15.162453
20
5.607561
11
15.225519
21
5.840167
0
LINE
8
Vrstva 1
10
15.225519
20
5.840167
11
15.253261
21
5.949824
0
LINE
8
Vrstva 1
10
15.253261
20
5.949824
11
15.279508
21
6.306675
0
LINE
8
Vrstva 1
10
15.279508
20
6.306675
11
15.232004
21
6.272219
0
LINE
8
Vrstva 1
10
15.232004
20
6.272219
11
15.213321
21
6.163209
0
LINE
8
Vrstva 1
10
15.213321
20
6.163209
11
15.201976
21
6.022149
0
LINE
8
Vrstva 1
10
15.201976
20
6.022149
11
15.150154
21
5.790322
0
LINE
8
Vrstva 1
10
15.150154
20
5.790322
11
15.049231
21
5.567685
0
LINE
8
Vrstva 1
10
15.049231
20
5.567685
11
15.014185
21
5.509831
0
LINE
8
Vrstva 1
10
15.014185
20
5.509831
11
14.972729
21
5.458325
0
LINE
8
Vrstva 1
10
14.972729
20
5.458325
11
14.889338
21
5.448532
0
LINE
8
Vrstva 1
10
14.889338
20
5.448532
11
14.875848
21
5.493062
0
LINE
8
Vrstva 1
10
14.875848
20
5.493062
11
14.886064
21
5.527481
0
LINE
8
Vrstva 1
10
14.886064
20
5.527481
11
14.967889
21
5.767062
0
LINE
8
Vrstva 1
10
14.967889
20
5.767062
11
14.985810
21
5.826875
0
LINE
8
Vrstva 1
10
14.985810
20
5.826875
11
15.035103
21
6.059304
0
LINE
8
Vrstva 1
10
15.035103
20
6.059304
11
15.028584
21
6.069450
0
LINE
8
Vrstva 1
10
15.028584
20
6.069450
11
14.727439
21
5.652392
0
LINE
8
Vrstva 1
10
14.727439
20
5.652392
11
14.525334
21
5.298529
0
LINE
8
Vrstva 1
10
14.525334
20
5.298529
11
14.456655
21
5.162289
0
LINE
8
Vrstva 1
10
14.456655
20
5.162289
11
14.364834
21
4.974416
0
LINE
8
Vrstva 1
10
14.364834
20
4.974416
11
14.346828
21
4.948587
0
LINE
8
Vrstva 1
10
14.346828
20
4.948587
11
14.269158
21
4.940089
0
LINE
8
Vrstva 1
10
14.269158
20
4.940089
11
14.265799
21
5.035255
0
LINE
8
Vrstva 1
10
14.265799
20
5.035255
11
14.284229
21
5.102129
0
LINE
8
Vrstva 1
10
14.284229
20
5.102129
11
14.364442
21
5.335081
0
LINE
8
Vrstva 1
10
14.364442
20
5.335081
11
14.400400
21
5.414831
0
LINE
8
Vrstva 1
10
14.400400
20
5.414831
11
14.581945
21
5.733833
0
LINE
8
Vrstva 1
10
14.581945
20
5.733833
11
14.589028
21
5.819325
0
LINE
8
Vrstva 1
10
14.589028
20
5.819325
11
14.244017
21
6.096000
0
LINE
8
Vrstva 1
10
14.244017
20
6.096000
11
13.669873
21
6.103377
0
LINE
8
Vrstva 1
10
13.669873
20
6.103377
11
13.528536
21
6.060238
0
LINE
8
Vrstva 1
10
13.528536
20
6.060238
11
13.481513
21
6.042867
0
LINE
8
Vrstva 1
10
13.481513
20
6.042867
11
13.302559
21
5.959651
0
LINE
8
Vrstva 1
10
13.302559
20
5.959651
11
13.169424
21
5.872027
0
LINE
8
Vrstva 1
10
13.169424
20
5.872027
11
13.066625
21
5.895318
0
LINE
8
Vrstva 1
10
13.066625
20
5.895318
11
13.282175
21
6.110261
0
LINE
8
Vrstva 1
10
13.282175
20
6.110261
11
13.731362
21
6.278304
0
LINE
8
Vrstva 1
10
13.731362
20
6.278304
11
13.761435
21
6.288518
0
LINE
8
Vrstva 1
10
13.761435
20
6.288518
11
13.740184
21
6.349735
0
LINE
8
Vrstva 1
10
13.740184
20
6.349735
11
13.680268
21
6.484818
0
LINE
8
Vrstva 1
10
13.680268
20
6.484818
11
13.577229
21
6.747330
0
LINE
8
Vrstva 1
10
13.577229
20
6.747330
11
13.560634
21
6.790528
0
LINE
8
Vrstva 1
10
13.560634
20
6.790528
11
13.441299
21
7.129468
0
LINE
8
Vrstva 1
10
13.441299
20
7.129468
11
13.300462
21
7.601325
0
LINE
8
Vrstva 1
10
13.300462
20
7.601325
11
13.225442
21
7.900389
0
LINE
8
Vrstva 1
10
13.225442
20
7.900389
11
13.199929
21
8.013369
0
LINE
8
Vrstva 1
10
13.199929
20
8.013369
11
13.165058
21
8.189485
0
LINE
8
Vrstva 1
10
13.165058
20
8.189485
11
13.115968
21
8.551685
0
LINE
8
Vrstva 1
10
13.115968
20
8.551685
11
13.102280
21
8.643647
0
LINE
8
Vrstva 1
10
13.102280
20
8.643647
11
13.083287
21
8.631613
0
LINE
8
Vrstva 1
10
13.083287
20
8.631613
11
12.942822
21
8.464578
0
LINE
8
Vrstva 1
10
12.942822
20
8.464578
11
12.339894
21
8.000768
0
LINE
8
Vrstva 1
10
12.339894
20
8.000768
11
11.803672
21
7.804259
0
LINE
8
Vrstva 1
10
11.803672
20
7.804259
11
11.657354
21
7.803073
0
LINE
8
Vrstva 1
10
11.657354
20
7.803073
11
11.638755
21
7.863014
0
LINE
8
Vrstva 1
10
11.638755
20
7.863014
11
11.719144
21
7.902658
0
LINE
8
Vrstva 1
10
11.719144
20
7.902658
11
12.176437
21
8.094230
0
LINE
8
Vrstva 1
10
12.176437
20
8.094230
11
12.230558
21
8.123018
0
LINE
8
Vrstva 1
10
12.230558
20
8.123018
11
12.406800
21
8.227976
0
LINE
8
Vrstva 1
10
12.406800
20
8.227976
11
12.845971
21
8.602072
0
LINE
8
Vrstva 1
10
12.845971
20
8.602072
11
12.979231
21
8.774314
0
LINE
8
Vrstva 1
10
12.979231
20
8.774314
11
13.032058
21
8.848811
0
LINE
8
Vrstva 1
10
13.032058
20
8.848811
11
13.045435
21
8.869247
0
LINE
8
Vrstva 1
10
13.045435
20
8.869247
11
13.086385
21
8.940959
0
LINE
8
Vrstva 1
10
13.086385
20
8.940959
11
13.275073
21
9.370382
0
LINE
8
Vrstva 1
10
13.275073
20
9.370382
11
13.433185
21
10.548762
0
LINE
8
Vrstva 1
10
13.433185
20
10.548762
11
13.471488
21
11.253225
0
LINE
8
Vrstva 1
10
13.471488
20
11.253225
11
13.494433
21
11.824770
0
LINE
8
Vrstva 1
10
13.494433
20
11.824770
11
13.469400
21
12.289981
0
LINE
8
Vrstva 1
10
13.469400
20
12.289981
11
13.390725
21
12.798390
0
LINE
8
Vrstva 1
10
13.390725
20
12.798390
11
13.326000
21
13.060902
0
LINE
8
Vrstva 1
10
13.326000
20
13.060902
11
13.294132
21
13.169693
0
LINE
8
Vrstva 1
10
13.294132
20
13.169693
11
13.283153
21
13.208702
0
LINE
8
Vrstva 1
10
13.283153
20
13.208702
11
13.244418
21
13.204415
0
LINE
8
Vrstva 1
10
13.244418
20
13.204415
11
12.986651
21
13.185717
0
LINE
8
Vrstva 1
10
12.986651
20
13.185717
11
12.891401
21
13.198567
0
LINE
8
Vrstva 1
10
12.891401
20
13.198567
11
12.909125
21
13.282484
0
LINE
8
Vrstva 1
10
12.909125
20
13.282484
11
13.645143
21
13.481006
0
LINE
8
Vrstva 1
10
13.645143
20
13.481006
11
13.765087
21
13.519562
0
LINE
8
Vrstva 1
10
13.765087
20
13.519562
11
13.902670
21
13.565935
0
LINE
8
Vrstva 1
10
13.902670
20
13.565935
11
14.029670
21
13.608694
0
LINE
8
Vrstva 1
10
14.029670
20
13.608694
11
14.153142
21
13.651943
0
LINE
8
Vrstva 1
10
14.153142
20
13.651943
11
14.273086
21
13.695592
0
LINE
8
Vrstva 1
10
14.273086
20
13.695592
11
14.481225
21
13.772291
0
LINE
8
Vrstva 1
10
14.481225
20
13.772291
11
14.597642
21
13.815722
0
LINE
8
Vrstva 1
10
14.597642
20
13.815722
11
14.770503
21
13.882009
0
LINE
8
Vrstva 1
10
14.770503
20
13.882009
11
14.943364
21
13.951580
0
LINE
8
Vrstva 1
10
14.943364
20
13.951580
11
15.208814
21
14.062121
0
LINE
8
Vrstva 1
10
15.208814
20
14.062121
11
15.262803
21
14.084371
0
LINE
8
Vrstva 1
10
15.262803
20
14.084371
11
15.328964
21
14.111631
0
LINE
8
Vrstva 1
10
15.328964
20
14.111631
11
15.451364
21
14.164994
0
LINE
8
Vrstva 1
10
15.451364
20
14.164994
11
15.666558
21
14.260847
0
LINE
8
Vrstva 1
10
15.666558
20
14.260847
11
16.276863
21
14.547638
0
LINE
8
Vrstva 1
10
16.276863
20
14.547638
11
16.568751
21
14.695180
0
LINE
8
Vrstva 1
10
16.568751
20
14.695180
11
16.657863
21
14.817554
0
LINE
8
Vrstva 1
10
16.657863
20
14.817554
11
16.688078
21
14.869697
0
LINE
8
Vrstva 1
10
16.688078
20
14.869697
11
16.731368
21
14.948335
0
LINE
8
Vrstva 1
10
16.731368
20
14.948335
11
16.753466
21
14.998179
0
LINE
8
Vrstva 1
10
16.753466
20
14.998179
11
16.855475
21
15.383640
0
LINE
8
Vrstva 1
10
16.855475
20
15.383640
11
16.842323
21
15.892049
0
LINE
8
Vrstva 1
10
16.842323
20
15.892049
11
16.802044
21
15.913236
0
LINE
8
Vrstva 1
10
16.802044
20
15.913236
11
16.622565
21
15.888510
0
LINE
8
Vrstva 1
10
16.622565
20
15.888510
11
16.213343
21
15.818968
0
LINE
8
Vrstva 1
10
16.213343
20
15.818968
11
15.969927
21
15.772379
0
LINE
8
Vrstva 1
10
15.969927
20
15.772379
11
15.864094
21
15.750013
0
LINE
8
Vrstva 1
10
15.864094
20
15.750013
11
15.370206
21
15.636156
0
LINE
8
Vrstva 1
10
15.370206
20
15.636156
11
15.278484
21
15.612924
0
LINE
8
Vrstva 1
10
15.278484
20
15.612924
11
15.176179
21
15.586336
0
LINE
8
Vrstva 1
10
15.176179
20
15.586336
11
15.098568
21
15.565468
0
LINE
8
Vrstva 1
10
15.098568
20
15.565468
11
15.052707
21
15.553245
0
LINE
8
Vrstva 1
10
15.052707
20
15.553245
11
15.003318
21
15.539851
0
LINE
8
Vrstva 1
10
15.003318
20
15.539851
11
14.925707
21
15.516779
0
LINE
8
Vrstva 1
10
14.925707
20
15.516779
11
14.682291
21
15.445413
0
LINE
8
Vrstva 1
10
14.682291
20
15.445413
11
14.640266
21
15.432157
0
LINE
8
Vrstva 1
10
14.640266
20
15.432157
11
14.509738
21
15.390259
0
LINE
8
Vrstva 1
10
14.509738
20
15.390259
11
14.029653
21
15.227905
0
LINE
8
Vrstva 1
10
14.029653
20
15.227905
11
13.948514
21
15.197446
0
LINE
8
Vrstva 1
10
13.948514
20
15.197446
11
13.853264
21
15.161042
0
LINE
8
Vrstva 1
10
13.853264
20
15.161042
11
13.758014
21
15.124578
0
LINE
8
Vrstva 1
10
13.758014
20
15.124578
11
13.645125
21
15.079918
0
LINE
8
Vrstva 1
10
13.645125
20
15.079918
11
13.556931
21
15.043377
0
LINE
8
Vrstva 1
10
13.556931
20
15.043377
11
12.809043
21
14.698467
0
LINE
8
Vrstva 1
10
12.809043
20
14.698467
11
12.685571
21
14.634684
0
LINE
8
Vrstva 1
10
12.685571
20
14.634684
11
12.432999
21
14.497282
0
LINE
8
Vrstva 1
10
12.432999
20
14.497282
11
12.096334
21
14.294115
0
LINE
8
Vrstva 1
10
12.096334
20
14.294115
11
12.029405
21
14.247596
0
LINE
8
Vrstva 1
10
12.029405
20
14.247596
11
11.933429
21
14.173194
0
LINE
8
Vrstva 1
10
11.933429
20
14.173194
11
11.826487
21
14.119026
0
LINE
8
Vrstva 1
10
11.826487
20
14.119026
11
11.798133
21
14.145682
0
LINE
8
Vrstva 1
10
11.798133
20
14.145682
11
11.804341
21
14.192143
0
LINE
8
Vrstva 1
10
11.804341
20
14.192143
11
11.970132
21
14.381997
0
LINE
8
Vrstva 1
10
11.970132
20
14.381997
11
12.043417
21
14.454326
0
LINE
8
Vrstva 1
10
12.043417
20
14.454326
11
11.718949
21
14.572749
0
LINE
8
Vrstva 1
10
11.718949
20
14.572749
11
11.630755
21
14.598171
0
LINE
8
Vrstva 1
10
11.630755
20
14.598171
11
10.958714
21
14.749514
0
LINE
8
Vrstva 1
10
10.958714
20
14.749514
11
10.881103
21
14.762581
0
LINE
8
Vrstva 1
10
10.881103
20
14.762581
11
10.681784
21
14.793161
0
LINE
8
Vrstva 1
10
10.681784
20
14.793161
11
10.586534
21
14.806211
0
LINE
8
Vrstva 1
10
10.586534
20
14.806211
11
10.258451
21
14.842232
0
LINE
8
Vrstva 1
10
10.258451
20
14.842232
11
10.127923
21
14.855014
0
LINE
8
Vrstva 1
10
10.127923
20
14.855014
11
8.886143
21
14.861409
0
LINE
8
Vrstva 1
10
8.886143
20
14.861409
11
8.610977
21
14.828284
0
LINE
8
Vrstva 1
10
8.610977
20
14.828284
11
8.110033
21
14.727593
0
LINE
8
Vrstva 1
10
8.110033
20
14.727593
11
7.986561
21
14.699057
0
LINE
8
Vrstva 1
10
7.986561
20
14.699057
11
7.885912
21
14.673262
0
LINE
8
Vrstva 1
10
7.885912
20
14.673262
11
7.808755
21
14.655919
0
LINE
8
Vrstva 1
10
7.808755
20
14.655919
11
7.760783
21
14.703901
0
LINE
8
Vrstva 1
10
7.760783
20
14.703901
11
7.975977
21
14.835552
0
LINE
8
Vrstva 1
10
7.975977
20
14.835552
11
8.224770
21
14.911884
0
LINE
8
Vrstva 1
10
8.224770
20
14.911884
11
8.275186
21
14.931138
0
LINE
8
Vrstva 1
10
8.275186
20
14.931138
11
8.381793
21
15.383643
0
LINE
8
Vrstva 1
10
8.381793
20
15.383643
11
8.417150
21
15.636186
0
LINE
8
Vrstva 1
10
8.417150
20
15.636186
11
8.430951
21
15.739197
0
LINE
8
Vrstva 1
10
8.430951
20
15.739197
11
8.449126
21
15.902021
0
LINE
8
Vrstva 1
10
8.449126
20
15.902021
11
8.466708
21
16.081459
0
LINE
8
Vrstva 1
10
8.466708
20
16.081459
11
8.536998
21
17.018527
0
LINE
8
Vrstva 1
10
8.536998
20
17.018527
11
8.561777
21
17.563489
0
LINE
8
Vrstva 1
10
8.561777
20
17.563489
11
8.568664
21
17.742927
0
LINE
8
Vrstva 1
10
8.568664
20
17.742927
11
8.576425
21
18.053436
0
LINE
8
Vrstva 1
10
8.576425
20
18.053436
11
8.568410
21
18.308822
0
LINE
8
Vrstva 1
10
8.568410
20
18.308822
11
8.289927
21
18.291694
0
LINE
8
Vrstva 1
10
8.289927
20
18.291694
11
8.180566
21
18.267214
0
LINE
8
Vrstva 1
10
8.180566
20
18.267214
11
7.402528
21
17.877336
0
LINE
8
Vrstva 1
10
7.402528
20
17.877336
11
7.327629
21
17.787616
0
LINE
8
Vrstva 1
10
7.327629
20
17.787616
11
7.177603
21
17.367434
0
LINE
8
Vrstva 1
10
7.177603
20
17.367434
11
7.145633
21
17.267746
0
LINE
8
Vrstva 1
10
7.145633
20
17.267746
11
7.100313
21
17.118214
0
LINE
8
Vrstva 1
10
7.100313
20
17.118214
11
7.057949
21
16.975328
0
LINE
8
Vrstva 1
10
7.057949
20
16.975328
11
7.041326
21
16.915515
0
LINE
8
Vrstva 1
10
7.041326
20
16.915515
11
7.007646
21
16.789243
0
LINE
8
Vrstva 1
10
7.007646
20
16.789243
11
6.927769
21
16.466918
0
LINE
8
Vrstva 1
10
6.927769
20
16.466918
11
6.854498
21
16.108041
0
LINE
8
Vrstva 1
10
6.854498
20
16.108041
11
6.815199
21
15.888727
0
LINE
8
Vrstva 1
10
6.815199
20
15.888727
11
6.800664
21
15.795685
0
LINE
8
Vrstva 1
10
6.800664
20
15.795685
11
6.773148
21
15.602954
0
LINE
8
Vrstva 1
10
6.773148
20
15.602954
11
6.755565
21
15.470037
0
LINE
8
Vrstva 1
10
6.755565
20
15.470037
11
6.738067
21
15.320505
0
LINE
8
Vrstva 1
10
6.738067
20
15.320505
11
6.691385
21
14.729022
0
LINE
8
Vrstva 1
10
6.691385
20
14.729022
11
6.684471
21
14.602751
0
LINE
8
Vrstva 1
10
6.684471
20
14.602751
11
6.679419
21
14.102059
0
LINE
8
Vrstva 1
10
6.679419
20
14.102059
11
6.699400
21
14.115998
0
LINE
8
Vrstva 1
10
6.699400
20
14.115998
11
6.982319
21
14.400368
0
LINE
8
Vrstva 1
10
6.982319
20
14.400368
11
7.090483
21
14.379794
0
LINE
8
Vrstva 1
10
7.090483
20
14.379794
11
7.031931
21
14.288790
0
LINE
8
Vrstva 1
10
7.031931
20
14.288790
11
6.832612
21
14.027274
0
LINE
8
Vrstva 1
10
6.832612
20
14.027274
11
6.506389
21
13.453014
0
LINE
8
Vrstva 1
10
6.506389
20
13.453014
11
6.395549
21
13.150627
0
LINE
8
Vrstva 1
10
6.395549
20
13.150627
11
6.377374
21
13.094137
0
LINE
8
Vrstva 1
10
6.377374
20
13.094137
11
6.268563
21
12.672124
0
LINE
8
Vrstva 1
10
6.268563
20
12.672124
11
6.248666
21
12.575759
0
LINE
8
Vrstva 1
10
6.248666
20
12.575759
11
6.223097
21
12.456133
0
LINE
8
Vrstva 1
10
6.223097
20
12.456133
11
6.166124
21
12.220204
0
LINE
8
Vrstva 1
10
6.166124
20
12.220204
11
6.152154
21
12.170360
0
LINE
8
Vrstva 1
10
6.152154
20
12.170360
11
6.086958
21
11.951046
0
LINE
8
Vrstva 1
10
6.086958
20
11.951046
11
6.064014
21
11.881264
0
LINE
8
Vrstva 1
10
6.064014
20
11.881264
11
6.031722
21
11.788222
0
LINE
8
Vrstva 1
10
6.031722
20
11.788222
11
5.986874
21
11.668596
0
LINE
8
Vrstva 1
10
5.986874
20
11.668596
11
5.888537
21
11.411613
0
LINE
8
Vrstva 1
10
5.888537
20
11.411613
11
5.840330
21
11.282717
0
LINE
8
Vrstva 1
10
5.840330
20
11.282717
11
5.965126
21
11.270347
0
LINE
8
Vrstva 1
10
5.965126
20
11.270347
11
6.157119
21
11.248261
0
LINE
8
Vrstva 1
10
6.157119
20
11.248261
11
6.529412
21
10.994038
0
LINE
8
Vrstva 1
10
6.529412
20
10.994038
11
6.676112
21
10.655201
0
LINE
8
Vrstva 1
10
6.676112
20
10.655201
11
6.655627
21
10.262992
0
LINE
8
Vrstva 1
10
6.655627
20
10.262992
11
6.519844
21
9.973896
0
LINE
8
Vrstva 1
10
6.519844
20
9.973896
11
6.340131
21
9.797780
0
LINE
8
Vrstva 1
10
6.340131
20
9.797780
11
6.321702
21
9.788122
0
LINE
8
Vrstva 1
10
6.321702
20
9.788122
11
6.152095
21
9.709496
0
LINE
8
Vrstva 1
10
6.152095
20
9.709496
11
5.954317
21
9.679677
0
LINE
8
Vrstva 1
10
5.954317
20
9.679677
11
5.914826
21
9.675000
0
LINE
8
Vrstva 1
10
5.914826
20
9.675000
11
5.977747
21
9.562080
0
LINE
8
Vrstva 1
10
5.977747
20
9.562080
11
6.123334
21
9.356500
0
LINE
8
Vrstva 1
10
6.123334
20
9.356500
11
6.178844
21
9.284741
0
LINE
8
Vrstva 1
10
6.178844
20
9.284741
11
6.243693
21
9.205884
0
LINE
8
Vrstva 1
10
6.243693
20
9.205884
11
6.327169
21
9.110566
0
LINE
8
Vrstva 1
10
6.327169
20
9.110566
11
6.588684
21
8.840774
0
LINE
8
Vrstva 1
10
6.588684
20
8.840774
11
7.083859
21
8.425407
0
LINE
8
Vrstva 1
10
7.083859
20
8.425407
11
7.192768
21
8.346305
0
LINE
8
Vrstva 1
10
7.192768
20
8.346305
11
7.499704
21
8.140704
0
LINE
8
Vrstva 1
10
7.499704
20
8.140704
11
7.874890
21
7.917628
0
LINE
8
Vrstva 1
10
7.874890
20
7.917628
11
7.941918
21
7.879555
0
LINE
8
Vrstva 1
10
7.941918
20
7.879555
11
8.055532
21
7.820591
0
LINE
8
Vrstva 1
10
8.055532
20
7.820591
11
8.127134
21
7.721841
0
LINE
8
Vrstva 1
10
8.127134
20
7.721841
11
8.021814
21
7.720543
0
LINE
8
Vrstva 1
10
8.021814
20
7.720543
11
7.504924
21
7.951243
0
LINE
8
Vrstva 1
10
7.504924
20
7.951243
11
7.242175
21
8.113827
0
LINE
8
Vrstva 1
10
7.242175
20
8.113827
11
6.938786
21
8.330855
0
LINE
8
Vrstva 1
10
6.938786
20
8.330855
11
6.837028
21
8.410987
0
LINE
8
Vrstva 1
10
6.837028
20
8.410987
11
6.748151
21
8.483546
0
LINE
8
Vrstva 1
10
6.748151
20
8.483546
11
6.686231
21
8.476900
0
LINE
8
Vrstva 1
10
6.686231
20
8.476900
11
6.656350
21
8.232664
0
LINE
8
Vrstva 1
10
6.656350
20
8.232664
11
6.621738
21
8.039934
0
LINE
8
Vrstva 1
10
6.621738
20
8.039934
11
6.561433
21
7.790714
0
LINE
8
Vrstva 1
10
6.561433
20
7.790714
11
6.543540
21
7.730901
0
LINE
8
Vrstva 1
10
6.543540
20
7.730901
11
6.380198
21
7.272336
0
LINE
8
Vrstva 1
10
6.380198
20
7.272336
11
6.323268
21
7.146065
0
LINE
8
Vrstva 1
10
6.323268
20
7.146065
11
5.967866
21
6.462322
0
LINE
8
Vrstva 1
10
5.967866
20
6.462322
11
5.915996
21
6.354792
0
LINE
8
Vrstva 1
10
5.915996
20
6.354792
11
5.959933
21
6.345403
0
LINE
8
Vrstva 1
10
5.959933
20
6.345403
11
6.370967
21
6.205560
0
LINE
8
Vrstva 1
10
6.370967
20
6.205560
11
6.516108
21
6.059351
0
LINE
8
Vrstva 1
10
6.516108
20
6.059351
11
6.487321
21
6.005749
0
LINE
8
Vrstva 1
10
6.487321
20
6.005749
11
6.417968
21
6.022714
0
LINE
8
Vrstva 1
10
6.417968
20
6.022714
11
6.120337
21
6.154613
0
LINE
8
Vrstva 1
10
6.120337
20
6.154613
11
5.901615
21
6.185114
0
LINE
8
Vrstva 1
10
5.901615
20
6.185114
11
5.682893
21
6.155401
0
LINE
8
Vrstva 1
10
5.682893
20
6.155401
11
5.621052
21
6.133023
0
LINE
8
Vrstva 1
10
5.621052
20
6.133023
11
5.530716
21
6.092957
0
LINE
8
Vrstva 1
10
5.530716
20
6.092957
11
5.484886
21
6.069434
0
LINE
8
Vrstva 1
10
5.484886
20
6.069434
11
5.305435
21
5.946848
0
LINE
8
Vrstva 1
10
5.305435
20
5.946848
11
4.924421
21
5.587320
0
LINE
8
Vrstva 1
10
4.924421
20
5.587320
11
4.958691
21
5.497332
0
LINE
8
Vrstva 1
10
4.958691
20
5.497332
11
5.001877
21
5.388231
0
LINE
8
Vrstva 1
10
5.001877
20
5.388231
11
5.017004
21
5.355335
0
LINE
8
Vrstva 1
10
5.017004
20
5.355335
11
5.023213
21
5.339725
0
LINE
8
Vrstva 1
10
5.023213
20
5.339725
11
5.033175
21
5.309486
0
LINE
8
Vrstva 1
10
5.033175
20
5.309486
11
5.079832
21
5.188856
0
LINE
8
Vrstva 1
10
5.079832
20
5.188856
11
5.134942
21
5.031345
0
LINE
8
Vrstva 1
10
5.134942
20
5.031345
11
5.194919
21
4.858552
0
LINE
8
Vrstva 1
10
5.194919
20
4.858552
11
5.223672
21
4.766842
0
LINE
8
Vrstva 1
10
5.223672
20
4.766842
11
5.312372
21
4.257602
0
LINE
8
Vrstva 1
10
5.312372
20
4.257602
11
5.282651
21
4.127758
0
LINE
8
Vrstva 1
10
5.282651
20
4.127758
11
5.238311
21
4.124219
0
LINE
8
Vrstva 1
10
5.238311
20
4.124219
11
5.195718
21
4.211913
0
LINE
8
Vrstva 1
10
5.195718
20
4.211913
11
5.173931
21
4.304955
0
LINE
8
Vrstva 1
10
5.173931
20
4.304955
11
5.157421
21
4.374737
0
LINE
8
Vrstva 1
10
5.157421
20
4.374737
11
5.139697
21
4.444518
0
LINE
8
Vrstva 1
10
5.139697
20
4.444518
11
4.968281
21
4.999449
0
LINE
8
Vrstva 1
10
4.968281
20
4.999449
11
4.680584
21
5.713240
0
LINE
8
Vrstva 1
10
4.680584
20
5.713240
11
4.670452
21
5.737571
0
LINE
8
Vrstva 1
10
4.670452
20
5.737571
11
4.601898
21
5.883351
0
LINE
8
Vrstva 1
10
4.601898
20
5.883351
11
4.490299
21
6.088978
0
LINE
8
Vrstva 1
10
4.490299
20
6.088978
11
4.475369
21
6.093911
0
LINE
8
Vrstva 1
10
4.475369
20
6.093911
11
4.521555
21
5.600902
0
LINE
8
Vrstva 1
10
4.521555
20
5.600902
11
4.538855
21
5.484403
0
LINE
8
Vrstva 1
10
4.538855
20
5.484403
11
4.557482
21
5.375281
0
LINE
8
Vrstva 1
10
4.557482
20
5.375281
11
4.532167
21
5.293533
0
LINE
8
Vrstva 1
10
4.532167
20
5.293533
11
4.489204
21
5.295961
0
LINE
8
Vrstva 1
10
4.489204
20
5.295961
11
4.335416
21
5.728665
0
LINE
8
Vrstva 1
10
4.335416
20
5.728665
11
4.304253
21
6.089360
0
LINE
8
Vrstva 1
10
4.304253
20
6.089360
11
4.302842
21
6.192371
0
LINE
8
Vrstva 1
10
4.302842
20
6.192371
11
4.271905
21
6.239171
0
LINE
8
Vrstva 1
10
4.271905
20
6.239171
11
4.209773
21
6.304122
0
LINE
8
Vrstva 1
10
4.209773
20
6.304122
11
4.208645
21
5.825933
0
LINE
8
Vrstva 1
10
4.208645
20
5.825933
11
4.236556
21
5.584274
0
LINE
8
Vrstva 1
10
4.236556
20
5.584274
11
4.267889
21
5.368283
0
LINE
8
Vrstva 1
10
4.267889
20
5.368283
11
4.229729
21
5.251980
0
LINE
8
Vrstva 1
10
4.229729
20
5.251980
11
4.160495
21
5.315116
0
LINE
8
Vrstva 1
10
4.160495
20
5.315116
11
4.066275
21
5.610857
0
LINE
8
Vrstva 1
10
4.066275
20
5.610857
11
4.035998
21
5.820525
0
LINE
8
Vrstva 1
10
4.035998
20
5.820525
11
4.014380
21
5.903275
0
LINE
8
Vrstva 1
10
4.014380
20
5.903275
11
4.004756
21
5.707222
0
LINE
8
Vrstva 1
10
4.004756
20
5.707222
11
4.303942
21
4.181992
0
LINE
8
Vrstva 1
10
4.303942
20
4.181992
11
4.402164
21
3.919480
0
LINE
8
Vrstva 1
10
4.402164
20
3.919480
11
4.419775
21
3.876223
0
LINE
8
Vrstva 1
10
4.419775
20
3.876223
11
4.631602
21
3.447623
0
LINE
8
Vrstva 1
10
4.631602
20
3.447623
11
5.019691
21
2.961375
0
LINE
8
Vrstva 1
10
5.019691
20
2.961375
11
5.187176
21
2.911968
0
LINE
8
Vrstva 1
10
5.187176
20
2.911968
11
5.351161
21
3.151390
0
LINE
8
Vrstva 1
10
5.351161
20
3.151390
11
5.417263
21
3.231633
0
LINE
8
Vrstva 1
10
5.417263
20
3.231633
11
5.479131
21
3.136203
0
LINE
8
Vrstva 1
10
5.479131
20
3.136203
11
5.594921
21
3.049442
0
LINE
8
Vrstva 1
10
5.594921
20
3.049442
11
5.721718
21
3.032088
0
LINE
8
Vrstva 1
10
5.721718
20
3.032088
11
5.831079
21
3.018728
0
LINE
8
Vrstva 1
10
5.831079
20
3.018728
11
5.951023
21
3.005249
0
LINE
8
Vrstva 1
10
5.951023
20
3.005249
11
6.317912
21
2.969762
0
LINE
8
Vrstva 1
10
6.317912
20
2.969762
11
6.504884
21
2.952820
0
LINE
8
Vrstva 1
10
6.504884
20
2.952820
11
7.743134
21
2.953243
0
LINE
8
Vrstva 1
10
7.743134
20
2.953243
11
7.851874
21
3.008900
0
LINE
8
Vrstva 1
10
7.851874
20
3.008900
11
7.888809
21
3.051779
0
LINE
8
Vrstva 1
10
7.888809
20
3.051779
11
7.857073
21
3.113464
0
LINE
8
Vrstva 1
10
7.857073
20
3.113464
11
7.795819
21
3.224994
0
LINE
8
Vrstva 1
10
7.795819
20
3.224994
11
7.736189
21
3.328005
0
LINE
8
Vrstva 1
10
7.736189
20
3.328005
11
7.684037
21
3.416356
0
LINE
8
Vrstva 1
10
7.684037
20
3.416356
11
7.661995
21
3.454453
0
LINE
8
Vrstva 1
10
7.661995
20
3.454453
11
7.634648
21
3.499433
0
LINE
8
Vrstva 1
10
7.634648
20
3.499433
11
7.427771
21
3.853029
0
LINE
8
Vrstva 1
10
7.427771
20
3.853029
11
7.182286
21
4.321563
0
LINE
8
Vrstva 1
10
7.182286
20
4.321563
11
7.142134
21
4.403043
0
LINE
8
Vrstva 1
10
7.142134
20
4.403043
11
7.004500
21
4.716993
0
LINE
8
Vrstva 1
10
7.004500
20
4.716993
11
6.814319
21
5.238694
0
LINE
8
Vrstva 1
10
6.814319
20
5.238694
11
6.722924
21
5.555684
0
LINE
8
Vrstva 1
10
6.722924
20
5.555684
11
6.696226
21
5.665341
0
LINE
8
Vrstva 1
10
6.696226
20
5.665341
11
6.618116
21
6.036199
0
LINE
8
Vrstva 1
10
6.618116
20
6.036199
11
6.603694
21
6.119272
0
LINE
8
Vrstva 1
10
6.603694
20
6.119272
11
6.567841
21
6.391753
0
LINE
8
Vrstva 1
10
6.567841
20
6.391753
11
6.565583
21
7.360192
0
LINE
8
Vrstva 1
10
6.565583
20
7.360192
11
6.643276
21
7.376279
0
LINE
8
Vrstva 1
10
6.643276
20
7.376279
11
6.662636
21
7.360601
0
LINE
8
Vrstva 1
10
6.662636
20
7.360601
11
6.671526
21
7.215116
0
LINE
8
Vrstva 1
10
6.671526
20
7.215116
11
6.688205
21
6.973265
0
LINE
8
Vrstva 1
10
6.688205
20
6.973265
11
6.716174
21
6.615655
0
LINE
8
Vrstva 1
10
6.716174
20
6.615655
11
6.754547
21
6.255510
0
LINE
8
Vrstva 1
10
6.754547
20
6.255510
11
6.822278
21
5.866727
0
LINE
8
Vrstva 1
10
6.822278
20
5.866727
11
6.835345
21
5.806914
0
LINE
8
Vrstva 1
10
6.835345
20
5.806914
11
6.874701
21
5.638980
0
LINE
8
Vrstva 1
10
6.874701
20
5.638980
11
6.896742
21
5.554371
0
LINE
8
Vrstva 1
10
6.896742
20
5.554371
11
6.921239
21
5.464652
0
LINE
8
Vrstva 1
10
6.921239
20
5.464652
11
6.980923
21
5.265276
0
LINE
8
Vrstva 1
10
6.980923
20
5.265276
11
6.999042
21
5.208786
0
LINE
8
Vrstva 1
10
6.999042
20
5.208786
11
7.050596
21
5.065900
0
LINE
8
Vrstva 1
10
7.050596
20
5.065900
11
7.192844
21
4.700377
0
LINE
8
Vrstva 1
10
7.192844
20
4.700377
11
7.240014
21
4.590720
0
LINE
8
Vrstva 1
10
7.240014
20
4.590720
11
7.330562
21
4.397990
0
LINE
8
Vrstva 1
10
7.330562
20
4.397990
11
7.592027
21
3.901779
0
LINE
8
Vrstva 1
10
7.592027
20
3.901779
11
7.619572
21
3.853538
0
LINE
8
Vrstva 1
10
7.619572
20
3.853538
11
7.820655
21
3.510765
0
LINE
8
Vrstva 1
10
7.820655
20
3.510765
11
7.903583
21
3.371202
0
LINE
8
Vrstva 1
10
7.903583
20
3.371202
11
8.010556
21
3.181795
0
LINE
8
Vrstva 1
10
8.010556
20
3.181795
11
8.055252
21
2.986973
0
LINE
8
Vrstva 1
10
8.055252
20
2.986973
11
7.986460
21
2.907901
0
LINE
8
Vrstva 1
10
7.986460
20
2.907901
11
7.900100
21
2.791949
0
LINE
8
Vrstva 1
10
7.900100
20
2.791949
11
7.983455
21
2.790171
0
LINE
8
Vrstva 1
10
7.983455
20
2.790171
11
8.059821
21
2.794992
0
LINE
8
Vrstva 1
10
8.059821
20
2.794992
11
8.108823
21
2.843890
0
LINE
8
Vrstva 1
10
8.108823
20
2.843890
11
8.252353
21
2.904822
0
LINE
8
Vrstva 1
10
8.252353
20
2.904822
11
8.259211
21
2.842662
0
LINE
8
Vrstva 1
10
8.259211
20
2.842662
11
8.196518
21
2.700031
0
LINE
8
Vrstva 1
10
8.196518
20
2.700031
11
8.215766
21
2.692301
0
LINE
8
Vrstva 1
10
8.215766
20
2.692301
11
8.337635
21
2.728380
0
LINE
8
Vrstva 1
10
8.337635
20
2.728380
11
8.375249
21
2.786906
0
LINE
8
Vrstva 1
10
8.375249
20
2.786906
11
8.491855
21
2.855872
0
LINE
8
Vrstva 1
10
8.491855
20
2.855872
11
8.504584
21
2.761169
0
LINE
8
Vrstva 1
10
8.504584
20
2.761169
11
8.510031
21
2.644341
0
LINE
8
Vrstva 1
10
8.510031
20
2.644341
11
8.737412
21
2.777936
0
LINE
8
Vrstva 1
10
8.737412
20
2.777936
11
8.882330
21
2.824374
0
LINE
8
Vrstva 1
10
8.882330
20
2.824374
11
8.933931
21
2.699580
0
LINE
8
Vrstva 1
10
8.933931
20
2.699580
11
8.944909
21
2.618615
0
LINE
8
Vrstva 1
10
8.944909
20
2.618615
11
9.062559
21
2.730204
0
LINE
8
Vrstva 1
10
9.062559
20
2.730204
11
9.147960
21
2.824057
0
LINE
8
Vrstva 1
10
9.147960
20
2.824057
11
9.298946
21
2.815839
0
LINE
8
Vrstva 1
10
9.298946
20
2.815839
11
9.374906
21
2.790916
0
LINE
8
Vrstva 1
10
9.374906
20
2.790916
11
9.482777
21
2.965710
0
LINE
8
Vrstva 1
10
9.482777
20
2.965710
11
9.505806
21
3.008398
0
LINE
8
Vrstva 1
10
9.505806
20
3.008398
11
9.507217
21
3.297791
0
LINE
8
Vrstva 1
10
9.507217
20
3.297791
11
9.531658
21
3.909509
0
LINE
8
Vrstva 1
10
9.531658
20
3.909509
11
9.608552
21
4.673784
0
LINE
8
Vrstva 1
10
9.608552
20
4.673784
11
9.630509
21
4.843254
0
LINE
8
Vrstva 1
10
9.630509
20
4.843254
11
9.630371
21
5.142318
0
LINE
8
Vrstva 1
10
9.630371
20
5.142318
11
9.580767
21
5.424768
0
LINE
8
Vrstva 1
10
9.580767
20
5.424768
11
9.549060
21
5.574300
0
LINE
8
Vrstva 1
10
9.549060
20
5.574300
11
9.514005
21
5.733801
0
LINE
8
Vrstva 1
10
9.514005
20
5.733801
11
9.489000
21
5.836812
0
LINE
8
Vrstva 1
10
9.489000
20
5.836812
11
9.463600
21
5.943146
0
LINE
8
Vrstva 1
10
9.463600
20
5.943146
11
9.446836
21
6.012927
0
LINE
8
Vrstva 1
10
9.446836
20
6.012927
11
9.429254
21
6.089355
0
LINE
8
Vrstva 1
10
9.429254
20
6.089355
11
9.393584
21
6.232869
0
LINE
8
Vrstva 1
10
9.393584
20
6.232869
11
9.386443
21
6.381262
0
LINE
8
Vrstva 1
10
9.386443
20
6.381262
11
9.456248
21
6.376411
0
LINE
8
Vrstva 1
10
9.456248
20
6.376411
11
9.533916
21
6.225187
0
LINE
8
Vrstva 1
10
9.533916
20
6.225187
11
9.701536
21
5.670663
0
LINE
8
Vrstva 1
10
9.701536
20
5.670663
11
9.715873
21
5.614843
0
LINE
8
Vrstva 1
10
9.715873
20
5.614843
11
9.722166
21
5.580344
0
LINE
8
Vrstva 1
10
9.722166
20
5.580344
11
9.739212
21
5.565570
0
LINE
8
Vrstva 1
10
9.739212
20
5.565570
11
9.782977
21
5.790290
0
LINE
8
Vrstva 1
10
9.782977
20
5.790290
11
9.827655
21
6.002958
0
LINE
8
Vrstva 1
10
9.827655
20
6.002958
11
9.849189
21
6.099323
0
LINE
8
Vrstva 1
10
9.849189
20
6.099323
11
9.935080
21
6.415002
0
LINE
8
Vrstva 1
10
9.935080
20
6.415002
11
9.987342
21
6.546483
0
LINE
8
Vrstva 1
10
9.987342
20
6.546483
11
9.997333
21
6.575095
0
LINE
8
Vrstva 1
10
9.997333
20
6.575095
11
10.099452
21
6.765814
0
LINE
8
Vrstva 1
10
10.099452
20
6.765814
11
10.173721
21
6.773880
0
LINE
8
Vrstva 1
10
10.173721
20
6.773880
11
10.159892
21
6.634317
0
LINE
8
Vrstva 1
10
10.159892
20
6.634317
11
10.103357
21
6.424972
0
LINE
8
Vrstva 1
10
10.103357
20
6.424972
11
10.068286
21
6.288732
0
LINE
8
Vrstva 1
10
10.068286
20
6.288732
11
10.024863
21
6.112616
0
LINE
8
Vrstva 1
10
10.024863
20
6.112616
11
9.989800
21
5.956438
0
LINE
8
Vrstva 1
10
9.989800
20
5.956438
11
9.965839
21
5.843458
0
LINE
8
Vrstva 1
10
9.965839
20
5.843458
11
9.927053
21
5.644082
0
LINE
8
Vrstva 1
10
9.927053
20
5.644082
11
9.898224
21
5.481258
0
LINE
8
Vrstva 1
10
9.898224
20
5.481258
11
9.860452
21
5.251975
0
LINE
8
Vrstva 1
10
9.860452
20
5.251975
11
9.845635
21
5.155610
0
LINE
8
Vrstva 1
10
9.845635
20
5.155610
11
9.824525
21
5.012724
0
LINE
8
Vrstva 1
10
9.824525
20
5.012724
11
9.792501
21
4.783441
0
LINE
8
Vrstva 1
10
9.792501
20
4.783441
11
9.743725
21
4.361428
0
LINE
8
Vrstva 1
10
9.743725
20
4.361428
11
9.715124
21
4.055718
0
LINE
8
Vrstva 1
10
9.715124
20
4.055718
11
9.700872
21
3.902863
0
LINE
8
Vrstva 1
10
9.700872
20
3.902863
11
9.676008
21
3.154273
0
LINE
8
Vrstva 1
10
9.676008
20
3.154273
11
9.668868
21
2.981480
0
LINE
8
Vrstva 1
10
9.668868
20
2.981480
11
9.557342
21
2.763830
0
LINE
8
Vrstva 1
10
9.557342
20
2.763830
11
9.606339
21
2.740549
0
LINE
8
Vrstva 1
10
9.606339
20
2.740549
11
9.779443
21
2.787896
0
LINE
8
Vrstva 1
10
9.779443
20
2.787896
11
9.968983
21
2.663729
0
LINE
8
Vrstva 1
10
9.968983
20
2.663729
11
10.079450
21
2.567042
0
LINE
8
Vrstva 1
10
10.079450
20
2.567042
11
10.115529
21
2.598610
0
LINE
8
Vrstva 1
10
10.115529
20
2.598610
11
10.115715
21
2.598642
0
LINE
8
Vrstva 1
10
8.988545
20
8.508532
11
8.589590
21
8.728729
0
LINE
8
Vrstva 1
10
8.589590
20
8.728729
11
8.232060
21
9.220200
0
LINE
8
Vrstva 1
10
8.232060
20
9.220200
11
8.106324
21
9.475464
0
LINE
8
Vrstva 1
10
8.106324
20
9.475464
11
7.892106
21
10.040363
0
LINE
8
Vrstva 1
10
7.892106
20
10.040363
11
7.804447
21
10.342750
0
LINE
8
Vrstva 1
10
7.804447
20
10.342750
11
7.704267
21
10.804638
0
LINE
8
Vrstva 1
10
7.704267
20
10.804638
11
7.647888
21
10.930261
0
LINE
8
Vrstva 1
10
7.647888
20
10.930261
11
7.468604
21
11.036996
0
LINE
8
Vrstva 1
10
7.468604
20
11.036996
11
7.418540
21
11.095231
0
LINE
8
Vrstva 1
10
7.418540
20
11.095231
11
7.448543
21
11.154301
0
LINE
8
Vrstva 1
10
7.448543
20
11.154301
11
7.492768
21
11.147759
0
LINE
8
Vrstva 1
10
7.492768
20
11.147759
11
7.647990
21
11.082944
0
LINE
8
Vrstva 1
10
7.647990
20
11.082944
11
7.806740
21
11.063871
0
LINE
8
Vrstva 1
10
7.806740
20
11.063871
11
8.350017
21
11.243372
0
LINE
8
Vrstva 1
10
8.350017
20
11.243372
11
8.829794
21
11.406089
0
LINE
8
Vrstva 1
10
8.829794
20
11.406089
11
8.949738
21
11.386565
0
LINE
8
Vrstva 1
10
8.949738
20
11.386565
11
9.210793
21
11.274245
0
LINE
8
Vrstva 1
10
9.210793
20
11.274245
11
9.480143
21
11.138965
0
LINE
8
Vrstva 1
10
9.480143
20
11.138965
11
9.814043
21
10.988211
0
LINE
8
Vrstva 1
10
9.814043
20
10.988211
11
10.004543
21
10.933628
0
LINE
8
Vrstva 1
10
10.004543
20
10.933628
11
10.274562
21
10.944674
0
LINE
8
Vrstva 1
10
10.274562
20
10.944674
11
10.522875
21
11.028092
0
LINE
8
Vrstva 1
10
10.522875
20
11.028092
11
10.608794
21
11.060503
0
LINE
8
Vrstva 1
10
10.608794
20
11.060503
11
10.650504
21
11.004132
0
LINE
8
Vrstva 1
10
10.650504
20
11.004132
11
10.455305
21
10.839324
0
LINE
8
Vrstva 1
10
10.455305
20
10.839324
11
10.399764
21
10.670676
0
LINE
8
Vrstva 1
10
10.399764
20
10.670676
11
10.371369
21
10.478990
0
LINE
8
Vrstva 1
10
10.371369
20
10.478990
11
10.357766
21
10.405885
0
LINE
8
Vrstva 1
10
10.357766
20
10.405885
11
10.136834
21
9.638287
0
LINE
8
Vrstva 1
10
10.136834
20
9.638287
11
9.910430
21
9.174767
0
LINE
8
Vrstva 1
10
9.910430
20
9.174767
11
9.891662
21
9.143231
0
LINE
8
Vrstva 1
10
9.891662
20
9.143231
11
9.769240
21
8.960408
0
LINE
8
Vrstva 1
10
9.769240
20
8.960408
11
9.592244
21
8.762145
0
LINE
8
Vrstva 1
10
9.592244
20
8.762145
11
9.201011
21
8.522423
0
LINE
8
Vrstva 1
10
9.201011
20
8.522423
11
8.988551
21
8.508532
0
LINE
8
Vrstva 1
10
8.988551
20
8.508532
11
8.988545
21
8.508532
0
LINE
8
Vrstva 1
10
9.149194
20
8.674612
11
9.401294
21
8.808002
0
LINE
8
Vrstva 1
10
9.401294
20
8.808002
11
9.771329
21
9.261681
0
LINE
8
Vrstva 1
10
9.771329
20
9.261681
11
10.065252
21
9.934032
0
LINE
8
Vrstva 1
10
10.065252
20
9.934032
11
10.107145
21
10.067261
0
LINE
8
Vrstva 1
10
10.107145
20
10.067261
11
10.234354
21
10.723947
0
LINE
8
Vrstva 1
10
10.234354
20
10.723947
11
10.239180
21
10.776170
0
LINE
8
Vrstva 1
10
10.239180
20
10.776170
11
10.222416
21
10.771155
0
LINE
8
Vrstva 1
10
10.222416
20
10.771155
11
9.962224
21
10.773997
0
LINE
8
Vrstva 1
10
9.962224
20
10.773997
11
9.422474
21
10.986873
0
LINE
8
Vrstva 1
10
9.422474
20
10.986873
11
9.330751
21
11.033596
0
LINE
8
Vrstva 1
10
9.330751
20
11.033596
11
9.033433
21
11.180572
0
LINE
8
Vrstva 1
10
9.033433
20
11.180572
11
8.826341
21
11.246595
0
LINE
8
Vrstva 1
10
8.826341
20
11.246595
11
8.670577
21
11.204925
0
LINE
8
Vrstva 1
10
8.670577
20
11.204925
11
8.537001
21
11.149755
0
LINE
8
Vrstva 1
10
8.537001
20
11.149755
11
8.423940
21
11.099656
0
LINE
8
Vrstva 1
10
8.423940
20
11.099656
11
8.309798
21
11.016252
0
LINE
8
Vrstva 1
10
8.309798
20
11.016252
11
8.173253
21
10.790752
0
LINE
8
Vrstva 1
10
8.173253
20
10.790752
11
8.137620
21
10.716587
0
LINE
8
Vrstva 1
10
8.137620
20
10.716587
11
8.016160
21
10.389278
0
LINE
8
Vrstva 1
10
8.016160
20
10.389278
11
8.007722
21
10.233100
0
LINE
8
Vrstva 1
10
8.007722
20
10.233100
11
8.036455
21
10.136734
0
LINE
8
Vrstva 1
10
8.036455
20
10.136734
11
8.085824
21
9.987202
0
LINE
8
Vrstva 1
10
8.085824
20
9.987202
11
8.105692
21
9.930713
0
LINE
8
Vrstva 1
10
8.105692
20
9.930713
11
8.183817
21
9.721368
0
LINE
8
Vrstva 1
10
8.183817
20
9.721368
11
8.230321
21
9.608388
0
LINE
8
Vrstva 1
10
8.230321
20
9.608388
11
8.254762
21
9.551898
0
LINE
8
Vrstva 1
10
8.254762
20
9.551898
11
8.437241
21
9.195763
0
LINE
8
Vrstva 1
10
8.437241
20
9.195763
11
8.722220
21
8.828704
0
LINE
8
Vrstva 1
10
8.722220
20
8.828704
11
8.981348
21
8.673708
0
LINE
8
Vrstva 1
10
8.981348
20
8.673708
11
9.149211
21
8.674611
0
LINE
8
Vrstva 1
10
9.149211
20
8.674611
11
9.149194
21
8.674612
0
LINE
8
Vrstva 1
10
7.943034
20
10.693472
11
8.007772
21
10.832003
0
LINE
8
Vrstva 1
10
8.007772
20
10.832003
11
8.043101
21
10.936425
0
LINE
8
Vrstva 1
10
8.043101
20
10.936425
11
7.870869
21
10.894854
0
LINE
8
Vrstva 1
10
7.870869
20
10.894854
11
7.871716
21
10.826353
0
LINE
8
Vrstva 1
10
7.871716
20
10.826353
11
7.915720
21
10.635321
0
LINE
8
Vrstva 1
10
7.915720
20
10.635321
11
7.943095
21
10.693472
0
LINE
8
Vrstva 1
10
7.943095
20
10.693472
11
7.943034
21
10.693472
0
LINE
8
Vrstva 1
10
12.307864
20
9.309152
11
11.823368
21
9.530727
0
LINE
8
Vrstva 1
10
11.823368
20
9.530727
11
11.580460
21
9.938507
0
LINE
8
Vrstva 1
10
11.580460
20
9.938507
11
11.575662
21
10.249708
0
LINE
8
Vrstva 1
10
11.575662
20
10.249708
11
11.596208
21
10.326135
0
LINE
8
Vrstva 1
10
11.596208
20
10.326135
11
11.944795
21
10.775666
0
LINE
8
Vrstva 1
10
11.944795
20
10.775666
11
12.533256
21
10.897838
0
LINE
8
Vrstva 1
10
12.533256
20
10.897838
11
12.793702
21
10.820267
0
LINE
8
Vrstva 1
10
12.793702
20
10.820267
11
13.014967
21
10.667208
0
LINE
8
Vrstva 1
10
13.014967
20
10.667208
11
13.171499
21
10.462376
0
LINE
8
Vrstva 1
10
13.171499
20
10.462376
11
13.246968
21
9.943681
0
LINE
8
Vrstva 1
10
13.246968
20
9.943681
11
13.182709
21
9.761580
0
LINE
8
Vrstva 1
10
13.182709
20
9.761580
11
13.114558
21
9.650864
0
LINE
8
Vrstva 1
10
13.114558
20
9.650864
11
12.682101
21
9.344103
0
LINE
8
Vrstva 1
10
12.682101
20
9.344103
11
12.307841
21
9.309152
0
LINE
8
Vrstva 1
10
12.307841
20
9.309152
11
12.307864
21
9.309152
0
LINE
8
Vrstva 1
10
12.583349
20
9.481162
11
12.890810
21
9.651569
0
LINE
8
Vrstva 1
10
12.890810
20
9.651569
11
12.997544
21
9.774528
0
LINE
8
Vrstva 1
10
12.997544
20
9.774528
11
13.094011
21
10.088355
0
LINE
8
Vrstva 1
10
13.094011
20
10.088355
11
13.015634
21
10.400632
0
LINE
8
Vrstva 1
10
13.015634
20
10.400632
11
12.872147
21
10.580275
0
LINE
8
Vrstva 1
10
12.872147
20
10.580275
11
12.813659
21
10.622323
0
LINE
8
Vrstva 1
10
12.813659
20
10.622323
11
12.614475
21
10.717953
0
LINE
8
Vrstva 1
10
12.614475
20
10.717953
11
12.106879
21
10.678715
0
LINE
8
Vrstva 1
10
12.106879
20
10.678715
11
11.934074
21
10.559290
0
LINE
8
Vrstva 1
10
11.934074
20
10.559290
11
11.736386
21
10.174819
0
LINE
8
Vrstva 1
10
11.736386
20
10.174819
11
11.736626
21
10.028553
0
LINE
8
Vrstva 1
10
11.736626
20
10.028553
11
11.916683
21
9.665717
0
LINE
8
Vrstva 1
10
11.916683
20
9.665717
11
12.290732
21
9.472362
0
LINE
8
Vrstva 1
10
12.290732
20
9.472362
11
12.583354
21
9.481162
0
LINE
8
Vrstva 1
10
12.583354
20
9.481162
11
12.583349
21
9.481162
0
LINE
8
Vrstva 1
10
11.390309
20
11.439542
11
10.912688
21
11.677071
0
LINE
8
Vrstva 1
10
10.912688
20
11.677071
11
10.765543
21
11.944410
0
LINE
8
Vrstva 1
10
10.765543
20
11.944410
11
10.751093
21
12.206922
0
LINE
8
Vrstva 1
10
10.751093
20
12.206922
11
10.952870
21
12.585478
0
LINE
8
Vrstva 1
10
10.952870
20
12.585478
11
11.200794
21
12.742380
0
LINE
8
Vrstva 1
10
11.200794
20
12.742380
11
11.841887
21
12.686000
0
LINE
8
Vrstva 1
10
11.841887
20
12.686000
11
12.057581
21
12.490161
0
LINE
8
Vrstva 1
10
12.057581
20
12.490161
11
12.157809
21
12.286551
0
LINE
8
Vrstva 1
10
12.157809
20
12.286551
11
12.173867
21
12.103910
0
LINE
8
Vrstva 1
10
12.173867
20
12.103910
11
12.173619
21
11.974315
0
LINE
8
Vrstva 1
10
12.173619
20
11.974315
11
12.148078
21
11.903829
0
LINE
8
Vrstva 1
10
12.148078
20
11.903829
11
12.078871
21
11.758868
0
LINE
8
Vrstva 1
10
12.078871
20
11.758868
11
11.964921
21
11.628008
0
LINE
8
Vrstva 1
10
11.964921
20
11.628008
11
11.536610
21
11.439693
0
LINE
8
Vrstva 1
10
11.536610
20
11.439693
11
11.458999
21
11.433623
0
LINE
8
Vrstva 1
10
11.458999
20
11.433623
11
11.390309
21
11.439541
0
LINE
8
Vrstva 1
10
11.390309
20
11.439541
11
11.390309
21
11.439542
0
LINE
8
Vrstva 1
10
11.472650
20
12.143885
11
11.677868
21
12.340704
0
LINE
8
Vrstva 1
10
11.677868
20
12.340704
11
11.535597
21
12.596342
0
LINE
8
Vrstva 1
10
11.535597
20
12.596342
11
11.426236
21
12.612180
0
LINE
8
Vrstva 1
10
11.426236
20
12.612180
11
11.304903
21
12.587288
0
LINE
8
Vrstva 1
10
11.304903
20
12.587288
11
11.196516
21
12.476081
0
LINE
8
Vrstva 1
10
11.196516
20
12.476081
11
11.192621
21
12.293320
0
LINE
8
Vrstva 1
10
11.192621
20
12.293320
11
11.362555
21
12.149558
0
LINE
8
Vrstva 1
10
11.362555
20
12.149558
11
11.472647
21
12.143886
0
LINE
8
Vrstva 1
10
11.472647
20
12.143886
11
11.472650
21
12.143885
0
LINE
8
Vrstva 1
10
7.136460
20
11.656488
11
6.709227
21
11.891243
0
LINE
8
Vrstva 1
10
6.709227
20
11.891243
11
6.561636
21
12.396330
0
LINE
8
Vrstva 1
10
6.561636
20
12.396330
11
6.729559
21
12.759280
0
LINE
8
Vrstva 1
10
6.729559
20
12.759280
11
7.075805
21
12.973857
0
LINE
8
Vrstva 1
10
7.075805
20
12.973857
11
7.350325
21
12.995261
0
LINE
8
Vrstva 1
10
7.350325
20
12.995261
11
7.443376
21
12.979995
0
LINE
8
Vrstva 1
10
7.443376
20
12.979995
11
7.593411
21
12.920803
0
LINE
8
Vrstva 1
10
7.593411
20
12.920803
11
7.630831
21
12.901417
0
LINE
8
Vrstva 1
10
7.630831
20
12.901417
11
7.681876
21
12.865898
0
LINE
8
Vrstva 1
10
7.681876
20
12.865898
11
7.933824
21
12.496018
0
LINE
8
Vrstva 1
10
7.933824
20
12.496018
11
7.941388
21
12.216789
0
LINE
8
Vrstva 1
10
7.941388
20
12.216789
11
7.753537
21
11.863120
0
LINE
8
Vrstva 1
10
7.753537
20
11.863120
11
7.400083
21
11.669315
0
LINE
8
Vrstva 1
10
7.400083
20
11.669315
11
7.237805
21
11.652763
0
LINE
8
Vrstva 1
10
7.237805
20
11.652763
11
7.136459
21
11.656488
0
LINE
8
Vrstva 1
10
7.136459
20
11.656488
11
7.136460
21
11.656488
0
LINE
8
Vrstva 1
10
7.466595
20
12.355517
11
7.595568
21
12.474313
0
LINE
8
Vrstva 1
10
7.595568
20
12.474313
11
7.615831
21
12.582413
0
LINE
8
Vrstva 1
10
7.615831
20
12.582413
11
7.599067
21
12.681967
0
LINE
8
Vrstva 1
10
7.599067
20
12.681967
11
7.444999
21
12.805336
0
LINE
8
Vrstva 1
10
7.444999
20
12.805336
11
7.155047
21
12.669113
0
LINE
8
Vrstva 1
10
7.155047
20
12.669113
11
7.153072
21
12.476408
0
LINE
8
Vrstva 1
10
7.153072
20
12.476408
11
7.306592
21
12.343512
0
LINE
8
Vrstva 1
10
7.306592
20
12.343512
11
7.466524
21
12.355518
0
LINE
8
Vrstva 1
10
7.466524
20
12.355518
11
7.466595
21
12.355517
0
LINE
8
Vrstva 1
10
8.807685
20
11.681125
11
8.688960
21
11.801575
0
LINE
8
Vrstva 1
10
8.688960
20
11.801575
11
8.729628
21
11.931776
0
LINE
8
Vrstva 1
10
8.729628
20
11.931776
11
8.946208
21
11.924520
0
LINE
8
Vrstva 1
10
8.946208
20
11.924520
11
9.079710
21
11.853502
0
LINE
8
Vrstva 1
10
9.079710
20
11.853502
11
9.029624
21
11.754795
0
LINE
8
Vrstva 1
10
9.029624
20
11.754795
11
8.807685
21
11.681124
0
LINE
8
Vrstva 1
10
8.807685
20
11.681124
11
8.807685
21
11.681125
0
LINE
8
Vrstva 1
10
13.816435
20
6.704645
11
13.856908
21
6.813125
0
LINE
8
Vrstva 1
10
13.856908
20
6.813125
11
13.900729
21
6.905188
0
LINE
8
Vrstva 1
10
13.900729
20
6.905188
11
14.086177
21
6.996537
0
LINE
8
Vrstva 1
10
14.086177
20
6.996537
11
14.156732
21
7.023624
0
LINE
8
Vrstva 1
10
14.156732
20
7.023624
11
14.332971
21
7.087689
0
LINE
8
Vrstva 1
10
14.332971
20
7.087689
11
14.382510
21
7.106226
0
LINE
8
Vrstva 1
10
14.382510
20
7.106226
11
14.417787
21
7.119064
0
LINE
8
Vrstva 1
10
14.417787
20
7.119064
11
14.474232
21
7.137341
0
LINE
8
Vrstva 1
10
14.474232
20
7.137341
11
14.601232
21
7.181226
0
LINE
8
Vrstva 1
10
14.601232
20
7.181226
11
14.802315
21
7.248971
0
LINE
8
Vrstva 1
10
14.802315
20
7.248971
11
14.992815
21
7.313311
0
LINE
8
Vrstva 1
10
14.992815
20
7.313311
11
15.098648
21
7.348847
0
LINE
8
Vrstva 1
10
15.098648
20
7.348847
11
15.218592
21
7.388877
0
LINE
8
Vrstva 1
10
15.218592
20
7.388877
11
15.299101
21
7.419013
0
LINE
8
Vrstva 1
10
15.299101
20
7.419013
11
15.257705
21
7.598004
0
LINE
8
Vrstva 1
10
15.257705
20
7.598004
11
15.236256
21
7.671109
0
LINE
8
Vrstva 1
10
15.236256
20
7.671109
11
15.204258
21
7.777443
0
LINE
8
Vrstva 1
10
15.204258
20
7.777443
11
15.166339
21
7.903714
0
LINE
8
Vrstva 1
10
15.166339
20
7.903714
11
15.126669
21
8.036632
0
LINE
8
Vrstva 1
10
15.126669
20
8.036632
11
15.095459
21
8.139643
0
LINE
8
Vrstva 1
10
15.095459
20
8.139643
11
15.010456
21
8.415447
0
LINE
8
Vrstva 1
10
15.010456
20
8.415447
11
14.978853
21
8.518458
0
LINE
8
Vrstva 1
10
14.978853
20
8.518458
11
14.852116
21
8.923856
0
LINE
8
Vrstva 1
10
14.852116
20
8.923856
11
14.834364
21
8.980346
0
LINE
8
Vrstva 1
10
14.834364
20
8.980346
11
14.809246
21
9.063419
0
LINE
8
Vrstva 1
10
14.809246
20
9.063419
11
14.745865
21
9.259473
0
LINE
8
Vrstva 1
10
14.745865
20
9.259473
11
14.682503
21
9.455526
0
LINE
8
Vrstva 1
10
14.682503
20
9.455526
11
14.676520
21
9.527996
0
LINE
8
Vrstva 1
10
14.676520
20
9.527996
11
14.774953
21
9.585689
0
LINE
8
Vrstva 1
10
14.774953
20
9.585689
11
15.345586
21
9.618342
0
LINE
8
Vrstva 1
10
15.345586
20
9.618342
11
15.603114
21
9.631699
0
LINE
8
Vrstva 1
10
15.603114
20
9.631699
11
15.970003
21
9.644978
0
LINE
8
Vrstva 1
10
15.970003
20
9.644978
11
16.248697
21
9.654695
0
LINE
8
Vrstva 1
10
16.248697
20
9.654695
11
17.310557
21
9.659744
0
LINE
8
Vrstva 1
10
17.310557
20
9.659744
11
17.543390
21
9.653896
0
LINE
8
Vrstva 1
10
17.543390
20
9.653896
11
17.557502
21
9.670719
0
LINE
8
Vrstva 1
10
17.557502
20
9.670719
11
17.730323
21
9.934029
0
LINE
8
Vrstva 1
10
17.730323
20
9.934029
11
17.751348
21
9.967259
0
LINE
8
Vrstva 1
10
17.751348
20
9.967259
11
17.829388
21
10.096854
0
LINE
8
Vrstva 1
10
17.829388
20
10.096854
11
17.879996
21
10.183250
0
LINE
8
Vrstva 1
10
17.879996
20
10.183250
11
18.292463
21
10.960817
0
LINE
8
Vrstva 1
10
18.292463
20
10.960817
11
18.351058
21
11.080443
0
LINE
8
Vrstva 1
10
18.351058
20
11.080443
11
18.460535
21
11.309726
0
LINE
8
Vrstva 1
10
18.460535
20
11.309726
11
18.518574
21
11.432675
0
LINE
8
Vrstva 1
10
18.518574
20
11.432675
11
18.567664
21
11.538726
0
LINE
8
Vrstva 1
10
18.567664
20
11.538726
11
18.612317
21
11.635374
0
LINE
8
Vrstva 1
10
18.612317
20
11.635374
11
18.742692
21
11.927792
0
LINE
8
Vrstva 1
10
18.742692
20
11.927792
11
18.806872
21
12.074001
0
LINE
8
Vrstva 1
10
18.806872
20
12.074001
11
18.881034
21
12.250117
0
LINE
8
Vrstva 1
10
18.881034
20
12.250117
11
18.959537
21
12.439524
0
LINE
8
Vrstva 1
10
18.959537
20
12.439524
11
19.029429
21
12.615640
0
LINE
8
Vrstva 1
10
19.029429
20
12.615640
11
19.049467
21
12.665485
0
LINE
8
Vrstva 1
10
19.049467
20
12.665485
11
19.078446
21
12.741912
0
LINE
8
Vrstva 1
10
19.078446
20
12.741912
11
19.125055
21
12.870148
0
LINE
8
Vrstva 1
10
19.125055
20
12.870148
11
19.144161
21
12.942548
0
LINE
8
Vrstva 1
10
19.144161
20
12.942548
11
18.718124
21
12.934465
0
LINE
8
Vrstva 1
10
18.718124
20
12.934465
11
18.520569
21
12.917532
0
LINE
8
Vrstva 1
10
18.520569
20
12.917532
11
18.171319
21
12.885552
0
LINE
8
Vrstva 1
10
18.171319
20
12.885552
11
18.079597
21
12.874537
0
LINE
8
Vrstva 1
10
18.079597
20
12.874537
11
17.779736
21
12.836617
0
LINE
8
Vrstva 1
10
17.779736
20
12.836617
11
17.444600
21
12.788814
0
LINE
8
Vrstva 1
10
17.444600
20
12.788814
11
17.239989
21
12.755236
0
LINE
8
Vrstva 1
10
17.239989
20
12.755236
11
16.837823
21
12.677502
0
LINE
8
Vrstva 1
10
16.837823
20
12.677502
11
16.682601
21
12.645329
0
LINE
8
Vrstva 1
10
16.682601
20
12.645329
11
16.425073
21
12.589191
0
LINE
8
Vrstva 1
10
16.425073
20
12.589191
11
16.301601
21
12.558527
0
LINE
8
Vrstva 1
10
16.301601
20
12.558527
11
16.206351
21
12.535040
0
LINE
8
Vrstva 1
10
16.206351
20
12.535040
11
16.132454
21
12.518372
0
LINE
8
Vrstva 1
10
16.132454
20
12.518372
11
16.054843
21
12.499218
0
LINE
8
Vrstva 1
10
16.054843
20
12.499218
11
15.999897
21
12.485756
0
LINE
8
Vrstva 1
10
15.999897
20
12.485756
11
15.969494
21
12.475325
0
LINE
8
Vrstva 1
10
15.969494
20
12.475325
11
15.950161
21
12.469336
0
LINE
8
Vrstva 1
10
15.950161
20
12.469336
11
15.902954
21
12.458598
0
LINE
8
Vrstva 1
10
15.902954
20
12.458598
11
15.835926
21
12.439443
0
LINE
8
Vrstva 1
10
15.835926
20
12.439443
11
15.599565
21
12.374476
0
LINE
8
Vrstva 1
10
15.599565
20
12.374476
11
15.493732
21
12.343392
0
LINE
8
Vrstva 1
10
15.493732
20
12.343392
11
14.699983
21
12.084200
0
LINE
8
Vrstva 1
10
14.699983
20
12.084200
11
14.654122
21
12.068116
0
LINE
8
Vrstva 1
10
14.654122
20
12.068116
11
14.227261
21
11.908171
0
LINE
8
Vrstva 1
10
14.227261
20
11.908171
11
14.167289
21
11.884541
0
LINE
8
Vrstva 1
10
14.167289
20
11.884541
11
14.050319
21
11.837328
0
LINE
8
Vrstva 1
10
14.050319
20
11.837328
11
13.967400
21
11.804847
0
LINE
8
Vrstva 1
10
13.967400
20
11.804847
11
13.738665
21
11.704664
0
LINE
8
Vrstva 1
10
13.738665
20
11.704664
11
13.666345
21
11.672009
0
LINE
8
Vrstva 1
10
13.666345
20
11.672009
11
13.665781
21
11.610495
0
LINE
8
Vrstva 1
10
13.665781
20
11.610495
11
13.652883
21
11.362896
0
LINE
8
Vrstva 1
10
13.652883
20
11.362896
11
13.613846
21
10.804643
0
LINE
8
Vrstva 1
10
13.613846
20
10.804643
11
13.585198
21
10.199869
0
LINE
8
Vrstva 1
10
13.585198
20
10.199869
11
13.515105
21
9.638293
0
LINE
8
Vrstva 1
10
13.515105
20
9.638293
11
13.421797
21
9.274378
0
LINE
8
Vrstva 1
10
13.421797
20
9.274378
11
13.402606
21
9.197951
0
LINE
8
Vrstva 1
10
13.402606
20
9.197951
11
13.465112
21
9.116593
0
LINE
8
Vrstva 1
10
13.465112
20
9.116593
11
13.576593
21
8.973707
0
LINE
8
Vrstva 1
10
13.576593
20
8.973707
11
13.726512
21
8.780977
0
LINE
8
Vrstva 1
10
13.726512
20
8.780977
11
13.851929
21
8.617443
0
LINE
8
Vrstva 1
10
13.851929
20
8.617443
11
13.989334
21
8.432069
0
LINE
8
Vrstva 1
10
13.989334
20
8.432069
11
14.113929
21
8.263319
0
LINE
8
Vrstva 1
10
14.113929
20
8.263319
11
14.170814
21
8.183609
0
LINE
8
Vrstva 1
10
14.170814
20
8.183609
11
14.203617
21
8.136367
0
LINE
8
Vrstva 1
10
14.203617
20
8.136367
11
14.356706
21
7.901691
0
LINE
8
Vrstva 1
10
14.356706
20
7.901691
11
14.393065
21
7.803816
0
LINE
8
Vrstva 1
10
14.393065
20
7.803816
11
14.237843
21
7.681034
0
LINE
8
Vrstva 1
10
14.237843
20
7.681034
11
13.763357
21
7.465929
0
LINE
8
Vrstva 1
10
13.763357
20
7.465929
11
13.546399
21
7.362224
0
LINE
8
Vrstva 1
10
13.546399
20
7.362224
11
13.595497
21
7.195936
0
LINE
8
Vrstva 1
10
13.595497
20
7.195936
11
13.637886
21
7.072987
0
LINE
8
Vrstva 1
10
13.637886
20
7.072987
11
13.680183
21
6.950038
0
LINE
8
Vrstva 1
10
13.680183
20
6.950038
11
13.711767
21
6.863641
0
LINE
8
Vrstva 1
10
13.711767
20
6.863641
11
13.743830
21
6.777245
0
LINE
8
Vrstva 1
10
13.743830
20
6.777245
11
13.760566
21
6.734047
0
LINE
8
Vrstva 1
10
13.760566
20
6.734047
11
13.796179
21
6.669587
0
LINE
8
Vrstva 1
10
13.796179
20
6.669587
11
13.816414
21
6.704650
0
LINE
8
Vrstva 1
10
13.816414
20
6.704650
11
13.816435
21
6.704645
0
LINE
8
Vrstva 1
10
13.695582
20
7.612075
11
13.938011
21
7.724353
0
LINE
8
Vrstva 1
10
13.938011
20
7.724353
11
14.190904
21
7.842219
0
LINE
8
Vrstva 1
10
14.190904
20
7.842219
11
13.903927
21
8.269240
0
LINE
8
Vrstva 1
10
13.903927
20
8.269240
11
13.813664
21
8.391569
0
LINE
8
Vrstva 1
10
13.813664
20
8.391569
11
13.713038
21
8.525252
0
LINE
8
Vrstva 1
10
13.713038
20
8.525252
11
13.627567
21
8.637679
0
LINE
8
Vrstva 1
10
13.627567
20
8.637679
11
13.508991
21
8.791391
0
LINE
8
Vrstva 1
10
13.508991
20
8.791391
11
13.399794
21
8.931781
0
LINE
8
Vrstva 1
10
13.399794
20
8.931781
11
13.334979
21
9.010067
0
LINE
8
Vrstva 1
10
13.334979
20
9.010067
11
13.300333
21
8.981935
0
LINE
8
Vrstva 1
10
13.300333
20
8.981935
11
13.274707
21
8.856678
0
LINE
8
Vrstva 1
10
13.274707
20
8.856678
11
13.310157
21
8.342344
0
LINE
8
Vrstva 1
10
13.310157
20
8.342344
11
13.320120
21
8.279208
0
LINE
8
Vrstva 1
10
13.320120
20
8.279208
11
13.337222
21
8.179520
0
LINE
8
Vrstva 1
10
13.337222
20
8.179520
11
13.358897
21
8.073186
0
LINE
8
Vrstva 1
10
13.358897
20
8.073186
11
13.376705
21
7.986790
0
LINE
8
Vrstva 1
10
13.376705
20
7.986790
11
13.395049
21
7.907039
0
LINE
8
Vrstva 1
10
13.395049
20
7.907039
11
13.482756
21
7.566250
0
LINE
8
Vrstva 1
10
13.482756
20
7.566250
11
13.507704
21
7.524902
0
LINE
8
Vrstva 1
10
13.507704
20
7.524902
11
13.695576
21
7.612075
0
LINE
8
Vrstva 1
10
13.695576
20
7.612075
11
13.695582
21
7.612075
0
LINE
8
Vrstva 1
10
6.128312
20
9.869965
11
6.380942
21
10.065812
0
LINE
8
Vrstva 1
10
6.380942
20
10.065812
11
6.512329
21
10.401475
0
LINE
8
Vrstva 1
10
6.512329
20
10.401475
11
6.496129
21
10.692336
0
LINE
8
Vrstva 1
10
6.496129
20
10.692336
11
6.296762
21
10.997435
0
LINE
8
Vrstva 1
10
6.296762
20
10.997435
11
5.969717
21
11.113677
0
LINE
8
Vrstva 1
10
5.969717
20
11.113677
11
5.757723
21
11.054945
0
LINE
8
Vrstva 1
10
5.757723
20
11.054945
11
5.687549
21
10.784707
0
LINE
8
Vrstva 1
10
5.687549
20
10.784707
11
5.676288
21
10.724894
0
LINE
8
Vrstva 1
10
5.676288
20
10.724894
11
5.662459
21
10.595227
0
LINE
8
Vrstva 1
10
5.662459
20
10.595227
11
5.769579
21
9.944005
0
LINE
8
Vrstva 1
10
5.769579
20
9.944005
11
5.832244
21
9.871120
0
LINE
8
Vrstva 1
10
5.832244
20
9.871120
11
5.989947
21
9.846871
0
LINE
8
Vrstva 1
10
5.989947
20
9.846871
11
6.128320
21
9.869968
0
LINE
8
Vrstva 1
10
6.128320
20
9.869968
11
6.128312
21
9.869965
 0 
ENDSEC
 0 
EOF